<svg width="129" height="130" viewBox="0 0 129 130" fill="none" xmlns="http://www.w3.org/2000/svg">
<path d="M66.5174 58.6301V56.4668C69.3842 56.1069 72.1003 54.9751 74.3776 53.1916L77.1791 56.022C77.3664 56.2115 77.5894 56.3619 77.835 56.4646C78.0806 56.5672 78.344 56.6201 78.61 56.6201C78.8761 56.6201 79.1395 56.5672 79.3851 56.4646C79.6307 56.3619 79.8536 56.2115 80.041 56.022C80.2299 55.8341 80.3798 55.6105 80.4822 55.3641C80.5845 55.1177 80.6372 54.8535 80.6372 54.5866C80.6372 54.3197 80.5845 54.0554 80.4822 53.8091C80.3798 53.5627 80.2299 53.3391 80.041 53.1511L77.2194 50.3409C78.9973 48.0565 80.1256 45.3318 80.4844 42.4561H82.6409C83.1754 42.4561 83.6881 42.2431 84.066 41.8639C84.444 41.4848 84.6563 40.9705 84.6563 40.4343C84.6563 39.8981 84.444 39.3839 84.066 39.0047C83.6881 38.6256 83.1754 38.4126 82.6409 38.4126H80.4844C80.1256 35.5368 78.9973 32.8122 77.2194 30.5277L80.041 27.7175C80.4205 27.3368 80.6337 26.8205 80.6337 26.2821C80.6337 25.7437 80.4205 25.2273 80.041 24.8466C79.6615 24.4659 79.1468 24.252 78.61 24.252C78.0733 24.252 77.5586 24.4659 77.1791 24.8466L74.3776 27.6771C72.1003 25.8936 69.3842 24.7618 66.5174 24.4018V22.2385C66.5174 21.7023 66.3051 21.1881 65.9271 20.809C65.5492 20.4298 65.0365 20.2168 64.502 20.2168C63.9675 20.2168 63.4548 20.4298 63.0769 20.809C62.6989 21.1881 62.4866 21.7023 62.4866 22.2385V24.4018C59.6198 24.7618 56.9037 25.8936 54.6264 27.6771L51.8249 24.8466C51.637 24.6581 51.4139 24.5086 51.1684 24.4066C50.9229 24.3045 50.6597 24.252 50.394 24.252C49.8572 24.252 49.3425 24.4659 48.963 24.8466C48.7751 25.0351 48.626 25.2589 48.5243 25.5052C48.4226 25.7515 48.3703 26.0155 48.3703 26.2821C48.3703 26.8205 48.5835 27.3368 48.963 27.7175L51.7846 30.5277C50.0067 32.8122 48.8784 35.5368 48.5196 38.4126H46.3631C45.8286 38.4126 45.3159 38.6256 44.938 39.0047C44.56 39.3839 44.3477 39.8981 44.3477 40.4343C44.3477 40.9705 44.56 41.4848 44.938 41.8639C45.3159 42.2431 45.8286 42.4561 46.3631 42.4561H48.5196C48.8784 45.3318 50.0067 48.0565 51.7846 50.3409L48.963 53.1511C48.7741 53.3391 48.6242 53.5627 48.5218 53.8091C48.4195 54.0554 48.3668 54.3197 48.3668 54.5866C48.3668 54.8535 48.4195 55.1177 48.5218 55.3641C48.6242 55.6105 48.7741 55.8341 48.963 56.022C49.1504 56.2115 49.3733 56.3619 49.6189 56.4646C49.8645 56.5672 50.1279 56.6201 50.394 56.6201C50.66 56.6201 50.9234 56.5672 51.169 56.4646C51.4146 56.3619 51.6376 56.2115 51.8249 56.022L54.6264 53.1916C56.9037 54.9751 59.6198 56.1069 62.4866 56.4668V58.6301C62.4866 59.1663 62.6989 59.6805 63.0769 60.0597C63.4548 60.4388 63.9675 60.6518 64.502 60.6518C65.0365 60.6518 65.5492 60.4388 65.9271 60.0597C66.3051 59.6805 66.5174 59.1663 66.5174 58.6301ZM62.4866 52.3829C60.0147 51.9615 57.7346 50.7798 55.9617 49.0014C54.1888 47.2229 53.0108 44.9356 52.5908 42.4561C53.1253 42.4561 53.6379 42.2431 54.0159 41.8639C54.3939 41.4848 54.6062 40.9705 54.6062 40.4343C54.6062 39.8981 54.3939 39.3839 54.0159 39.0047C53.6379 38.6256 53.1253 38.4126 52.5908 38.4126C53.0108 35.933 54.1888 33.6457 55.9617 31.8673C57.7346 30.0888 60.0147 28.9071 62.4866 28.4858C62.4866 29.022 62.6989 29.5362 63.0769 29.9154C63.4548 30.2945 63.9675 30.5075 64.502 30.5075C65.0365 30.5075 65.5492 30.2945 65.9271 29.9154C66.3051 29.5362 66.5174 29.022 66.5174 28.4858C68.9893 28.9071 71.2694 30.0888 73.0423 31.8673C74.8152 33.6457 75.9932 35.933 76.4132 38.4126C75.8787 38.4126 75.3661 38.6256 74.9881 39.0047C74.6101 39.3839 74.3978 39.8981 74.3978 40.4343C74.3978 40.9705 74.6101 41.4848 74.9881 41.8639C75.3661 42.2431 75.8787 42.4561 76.4132 42.4561C75.9932 44.9356 74.8152 47.2229 73.0423 49.0014C71.2694 50.7798 68.9893 51.9615 66.5174 52.3829C66.5174 51.8467 66.3051 51.3324 65.9271 50.9533C65.5492 50.5741 65.0365 50.3611 64.502 50.3611C63.9675 50.3611 63.4548 50.5741 63.0769 50.9533C62.6989 51.3324 62.4866 51.8467 62.4866 52.3829Z" fill="#FF4D79"/>
<path d="M69.5388 40.4344C71.2084 40.4344 72.5619 39.0766 72.5619 37.4018C72.5619 35.7269 71.2084 34.3691 69.5388 34.3691C67.8691 34.3691 66.5156 35.7269 66.5156 37.4018C66.5156 39.0766 67.8691 40.4344 69.5388 40.4344Z" fill="#FF4D79"/>
<path d="M58.4529 40.4341C59.566 40.4341 60.4684 39.529 60.4684 38.4124C60.4684 37.2958 59.566 36.3906 58.4529 36.3906C57.3398 36.3906 56.4375 37.2958 56.4375 38.4124C56.4375 39.529 57.3398 40.4341 58.4529 40.4341Z" fill="#FF4D79"/>
<path d="M64.4998 46.5005C65.6129 46.5005 66.5152 45.5954 66.5152 44.4788C66.5152 43.3622 65.6129 42.457 64.4998 42.457C63.3867 42.457 62.4844 43.3622 62.4844 44.4788C62.4844 45.5954 63.3867 46.5005 64.4998 46.5005Z" fill="#FF4D79"/>
<path d="M94.7326 40.4337C94.7326 34.4357 92.9595 28.5725 89.6377 23.5853C86.3158 18.5982 81.5942 14.7112 76.0702 12.4159C70.5461 10.1206 64.4675 9.52 58.6032 10.6901C52.7388 11.8603 47.3521 14.7486 43.1242 18.9898C38.8962 23.231 36.0169 28.6346 34.8504 34.5174C33.6839 40.4001 34.2826 46.4977 36.5708 52.0391C38.8589 57.5805 42.7338 62.3168 47.7053 65.6491C52.6769 68.9814 58.5218 70.76 64.5011 70.76C68.4711 70.76 72.4023 69.9756 76.0702 68.4516C79.738 66.9275 83.0707 64.6937 85.878 61.8776C88.6852 59.0616 90.9121 55.7184 92.4313 52.0391C93.9506 48.3597 94.7326 44.4162 94.7326 40.4337ZM38.3004 40.4337C38.3004 35.2355 39.8371 30.154 42.716 25.8318C45.595 21.5096 49.687 18.1409 54.4745 16.1516C59.2621 14.1623 64.5301 13.6418 69.6126 14.656C74.695 15.6701 79.3635 18.1733 83.0277 21.849C86.6919 25.5247 89.1873 30.2078 90.1983 35.3062C91.2092 40.4046 90.6904 45.6892 88.7073 50.4917C86.7242 55.2943 83.366 59.3991 79.0574 62.2871C74.7487 65.175 69.6831 66.7165 64.5011 66.7165C57.5522 66.7165 50.888 63.9474 45.9744 59.0185C41.0608 54.0895 38.3004 47.4043 38.3004 40.4337Z" fill="#FF4D79"/>
<path d="M128.73 126.36L104.545 83.9027C104.367 83.5942 104.112 83.3382 103.804 83.1607C103.496 82.9832 103.146 82.8904 102.791 82.8919H88.3205C96.9667 70.5794 104.807 55.3354 104.807 40.4351C104.807 29.711 100.56 19.4262 93.0006 11.8432C85.4413 4.26011 75.1886 0 64.4981 0C53.8076 0 43.5549 4.26011 35.9955 11.8432C28.4362 19.4262 24.1894 29.711 24.1894 40.4351C24.1894 55.3354 32.0294 70.5794 40.6757 82.8919H24.1894C23.8193 82.8911 23.4562 82.9925 23.1398 83.1851C22.8233 83.3777 22.5659 83.654 22.3957 83.9836L0.225895 126.44C0.066573 126.749 -0.0108084 127.093 0.00121497 127.441C0.0132383 127.788 0.114261 128.126 0.294537 128.423C0.474813 128.719 0.728258 128.964 1.03043 129.134C1.33259 129.304 1.67328 129.393 2.01963 129.392H126.977C127.332 129.394 127.681 129.301 127.989 129.123C128.297 128.946 128.552 128.69 128.73 128.381C128.907 128.074 129 127.725 129 127.37C129 127.016 128.907 126.667 128.73 126.36ZM28.2203 40.4351C28.2203 30.7834 32.0424 21.5271 38.8458 14.7023C45.6492 7.8776 54.8766 4.04351 64.4981 4.04351C74.1196 4.04351 83.347 7.8776 90.1504 14.7023C96.9538 21.5271 100.776 30.7834 100.776 40.4351C100.776 67.8096 71.2296 97.873 64.4981 104.383C57.7665 97.8933 28.2203 67.8298 28.2203 40.4351ZM5.3451 125.349L25.4994 86.9354H43.6383C49.5155 94.7216 56.0494 101.986 63.1679 108.649C63.5382 108.984 64.0194 109.17 64.5182 109.17C65.0171 109.17 65.4983 108.984 65.8686 108.649C72.9801 101.985 79.5073 94.7208 85.378 86.9354H101.622L123.51 125.349H5.3451Z" fill="#FF4D79"/>
</svg>
