<svg width="419" height="149" viewBox="0 0 419 149" fill="none" xmlns="http://www.w3.org/2000/svg">
<rect width="419" height="149" rx="30" fill="white"/>
<path d="M44.0488 55.75H77.9046C80.6876 55.7493 83.4274 55.0647 85.8817 53.7567C88.3359 52.4487 90.4288 50.5577 91.9751 48.2511C93.5214 45.9445 94.4733 43.2934 94.7467 40.5326C95.0201 37.7717 94.6064 34.9863 93.5423 32.4228C92.4783 29.8593 90.7966 27.5969 88.6462 25.8359C86.4959 24.0748 83.9431 22.8694 81.214 22.3264C78.4849 21.7834 75.6635 21.9195 72.9998 22.7227C70.336 23.5259 67.9119 24.9714 65.9422 26.9312C65.7112 27.0821 65.5163 27.2817 65.3714 27.5161C65.2265 27.7505 65.1352 28.0138 65.1039 28.2873C65.0725 28.5608 65.102 28.8379 65.1903 29.0987C65.2785 29.3596 65.4232 29.5979 65.6142 29.7968C65.8053 29.9956 66.0379 30.15 66.2955 30.2492C66.5532 30.3483 66.8295 30.3896 67.105 30.3702C67.3805 30.3508 67.6483 30.2712 67.8894 30.137C68.1306 30.0028 68.3391 29.8173 68.5002 29.5937C70.0371 28.0931 71.9195 26.9907 73.9826 26.383C76.0458 25.7754 78.2269 25.6809 80.3351 26.108C82.4433 26.5351 84.4145 27.4707 86.076 28.8329C87.7376 30.1951 89.0391 31.9424 89.8665 33.922C90.694 35.9017 91.0222 38.0533 90.8224 40.1886C90.6227 42.3239 89.9011 44.3779 88.7209 46.171C87.5406 47.964 85.9375 49.4414 84.0519 50.4739C82.1663 51.5064 80.0557 52.0625 77.9046 52.0937H44.0488C43.55 52.0937 43.0716 52.2913 42.7189 52.6429C42.3661 52.9945 42.168 53.4714 42.168 53.9687C42.168 54.466 42.3661 54.9429 42.7189 55.2945C43.0716 55.6462 43.55 55.8437 44.0488 55.8437V55.75Z" fill="#FF4D79"/>
<path d="M149.378 61.374C149.379 57.2938 148.166 53.3048 145.893 49.9118C143.62 46.5188 140.388 43.8742 136.606 42.3126C132.825 40.7509 128.664 40.3425 124.65 41.1389C120.635 41.9353 116.948 43.9007 114.055 46.7865C113.7 47.1396 113.502 47.6185 113.502 48.1178C113.502 48.6171 113.7 49.096 114.055 49.449C114.409 49.8021 114.889 50.0005 115.39 50.0005C115.891 50.0005 116.371 49.8021 116.726 49.449C118.693 47.4848 121.117 46.0348 123.782 45.2278C126.446 44.4208 129.27 44.2815 132.001 44.8225C134.733 45.3634 137.288 46.5678 139.441 48.3289C141.594 50.0899 143.278 52.3533 144.343 54.9183C145.408 57.4832 145.822 60.2706 145.549 63.0334C145.275 65.7961 144.321 68.4488 142.773 70.7563C141.225 73.0639 139.129 74.9549 136.672 76.2619C134.215 77.5689 131.473 78.2514 128.688 78.249H85.4278C84.9289 78.249 84.4505 78.4465 84.0978 78.7982C83.745 79.1498 83.5469 79.6267 83.5469 80.124C83.5469 80.6213 83.745 81.0982 84.0978 81.4498C84.4505 81.8014 84.9289 81.999 85.4278 81.999H128.688C134.175 81.999 139.438 79.826 143.318 75.9581C147.198 72.0901 149.378 66.8441 149.378 61.374V61.374Z" fill="#FF4D79"/>
<path d="M109.879 89.5H70.3809C69.882 89.5 69.4036 89.6975 69.0509 90.0492C68.6982 90.4008 68.5 90.8777 68.5 91.375C68.5 91.8723 68.6982 92.3492 69.0509 92.7008C69.4036 93.0525 69.882 93.25 70.3809 93.25H109.879C113.87 93.25 117.697 94.8303 120.519 97.6434C123.341 100.456 124.926 104.272 124.926 108.25C124.926 112.228 123.341 116.044 120.519 118.857C117.697 121.67 113.87 123.25 109.879 123.25C107.904 123.258 105.948 122.875 104.123 122.121C102.299 121.368 100.643 120.26 99.2523 118.862C98.8999 118.513 98.4232 118.317 97.9263 118.317C97.4294 118.317 96.9527 118.513 96.6003 118.862C96.424 119.037 96.2841 119.244 96.1886 119.473C96.0931 119.701 96.0439 119.946 96.0439 120.194C96.0439 120.441 96.0931 120.686 96.1886 120.915C96.2841 121.143 96.424 121.351 96.6003 121.525C98.3395 123.269 100.409 124.651 102.689 125.591C104.968 126.531 107.412 127.01 109.879 127C112.349 127 114.795 126.515 117.077 125.573C119.359 124.63 121.432 123.249 123.179 121.508C124.926 119.767 126.311 117.7 127.256 115.425C128.202 113.15 128.688 110.712 128.688 108.25C128.688 105.788 128.202 103.35 127.256 101.075C126.311 98.7998 124.926 96.7328 123.179 94.9917C121.432 93.2506 119.359 91.8695 117.077 90.9273C114.795 89.985 112.349 89.5 109.879 89.5V89.5Z" fill="#FF4D79"/>
<path d="M64.7366 78.25H62.7241C62.3892 75.583 61.3363 73.0561 59.6771 70.9375L62.3103 68.3312C62.6645 67.9782 62.8634 67.4993 62.8634 67C62.8634 66.5007 62.6645 66.0218 62.3103 65.6687C61.9561 65.3157 61.4758 65.1173 60.9749 65.1173C60.474 65.1173 59.9936 65.3157 59.6395 65.6687L57.025 68.2937C54.8998 66.6397 52.365 65.5901 49.6896 65.2562V63.25C49.6896 62.7527 49.4915 62.2758 49.1387 61.9242C48.786 61.5725 48.3076 61.375 47.8087 61.375C47.3099 61.375 46.8315 61.5725 46.4788 61.9242C46.126 62.2758 45.9279 62.7527 45.9279 63.25V65.2562C43.2525 65.5901 40.7177 66.6397 38.5925 68.2937L35.978 65.6687C35.6239 65.3157 35.1435 65.1173 34.6426 65.1173C34.1417 65.1173 33.6614 65.3157 33.3072 65.6687C32.953 66.0218 32.7541 66.5007 32.7541 67C32.7541 67.4993 32.953 67.9782 33.3072 68.3312L35.9404 70.9375C34.2812 73.0561 33.2283 75.583 32.8934 78.25H30.8809C30.382 78.25 29.9036 78.4475 29.5509 78.7991C29.1982 79.1508 29 79.6277 29 80.125C29 80.6223 29.1982 81.0992 29.5509 81.4508C29.9036 81.8024 30.382 82 30.8809 82H32.8934C33.2283 84.667 34.2812 87.1939 35.9404 89.3125L33.3072 91.9187C33.1309 92.093 32.991 92.3004 32.8955 92.5289C32.8 92.7574 32.7508 93.0024 32.7508 93.25C32.7508 93.4975 32.8 93.7425 32.8955 93.971C32.991 94.1995 33.1309 94.4069 33.3072 94.5812C33.4821 94.7569 33.6901 94.8964 33.9193 94.9916C34.1485 95.0868 34.3943 95.1358 34.6426 95.1358C34.8909 95.1358 35.1368 95.0868 35.366 94.9916C35.5952 94.8964 35.8032 94.7569 35.978 94.5812L38.5925 91.9562C40.7177 93.6102 43.2525 94.6599 45.9279 94.9937V97C45.9279 97.4972 46.126 97.9741 46.4788 98.3258C46.8315 98.6774 47.3099 98.8749 47.8087 98.8749C48.3076 98.8749 48.786 98.6774 49.1387 98.3258C49.4915 97.9741 49.6896 97.4972 49.6896 97V94.9937C52.365 94.6599 54.8998 93.6102 57.025 91.9562L59.6395 94.5812C59.8143 94.7569 60.0223 94.8964 60.2515 94.9916C60.4807 95.0868 60.7266 95.1358 60.9749 95.1358C61.2232 95.1358 61.469 95.0868 61.6982 94.9916C61.9274 94.8964 62.1354 94.7569 62.3103 94.5812C62.4866 94.4069 62.6265 94.1995 62.722 93.971C62.8175 93.7425 62.8667 93.4975 62.8667 93.25C62.8667 93.0024 62.8175 92.7574 62.722 92.5289C62.6265 92.3004 62.4866 92.093 62.3103 91.9187L59.6771 89.3125C61.3363 87.1939 62.3892 84.667 62.7241 82H64.7366C65.2355 82 65.7139 81.8024 66.0666 81.4508C66.4193 81.0992 66.6175 80.6223 66.6175 80.125C66.6175 79.6277 66.4193 79.1508 66.0666 78.7991C65.7139 78.4475 65.2355 78.25 64.7366 78.25ZM58.9247 82C58.5327 84.2996 57.4334 86.4208 55.7788 88.0702C54.1243 89.7195 51.9964 90.8154 49.6896 91.2062C49.6896 90.7089 49.4915 90.232 49.1387 89.8804C48.786 89.5288 48.3076 89.3312 47.8087 89.3312C47.3099 89.3312 46.8315 89.5288 46.4788 89.8804C46.126 90.232 45.9279 90.7089 45.9279 91.2062C43.6211 90.8154 41.4932 89.7195 39.8387 88.0702C38.1841 86.4208 37.0848 84.2996 36.6928 82C37.1916 82 37.67 81.8024 38.0228 81.4508C38.3755 81.0992 38.5737 80.6223 38.5737 80.125C38.5737 79.6277 38.3755 79.1508 38.0228 78.7991C37.67 78.4475 37.1916 78.25 36.6928 78.25C37.0848 75.9504 38.1841 73.8291 39.8387 72.1798C41.4932 70.5304 43.6211 69.4345 45.9279 69.0437C45.9279 69.541 46.126 70.0179 46.4788 70.3696C46.8315 70.7212 47.3099 70.9187 47.8087 70.9187C48.3076 70.9187 48.786 70.7212 49.1387 70.3696C49.4915 70.0179 49.6896 69.541 49.6896 69.0437C51.9964 69.4345 54.1243 70.5304 55.7788 72.1798C57.4334 73.8291 58.5327 75.9504 58.9247 78.25C58.4259 78.25 57.9475 78.4475 57.5947 78.7991C57.242 79.1508 57.0438 79.6277 57.0438 80.125C57.0438 80.6223 57.242 81.0992 57.5947 81.4508C57.9475 81.8024 58.4259 82 58.9247 82V82Z" fill="#FF4D79"/>
<path d="M43.1065 80.125C44.6646 80.125 45.9278 78.8658 45.9278 77.3125C45.9278 75.7592 44.6646 74.5 43.1065 74.5C41.5483 74.5 40.2852 75.7592 40.2852 77.3125C40.2852 78.8658 41.5483 80.125 43.1065 80.125Z" fill="#FF4D79"/>
<path d="M53.4512 80.125C54.49 80.125 55.3321 79.2855 55.3321 78.25C55.3321 77.2145 54.49 76.375 53.4512 76.375C52.4124 76.375 51.5703 77.2145 51.5703 78.25C51.5703 79.2855 52.4124 80.125 53.4512 80.125Z" fill="#FF4D79"/>
<path d="M47.8106 85.75C48.8493 85.75 49.6914 84.9105 49.6914 83.875C49.6914 82.8395 48.8493 82 47.8106 82C46.7718 82 45.9297 82.8395 45.9297 83.875C45.9297 84.9105 46.7718 85.75 47.8106 85.75Z" fill="#FF4D79"/>
<path d="M91.0686 110.125H89.0184C88.7476 108.46 88.1048 106.877 87.1376 105.494L88.5858 104.05C88.7612 103.875 88.9003 103.668 88.9952 103.439C89.0901 103.211 89.139 102.966 89.139 102.719C89.139 102.472 89.0901 102.227 88.9952 101.998C88.9003 101.77 88.7612 101.562 88.5858 101.387C88.4105 101.213 88.2023 101.074 87.9731 100.979C87.744 100.885 87.4984 100.836 87.2504 100.836C87.0024 100.836 86.7568 100.885 86.5277 100.979C86.2986 101.074 86.0904 101.213 85.915 101.387L84.4667 102.831C83.0787 101.867 81.491 101.226 79.821 100.956V98.875C79.821 98.3777 79.6228 97.9008 79.2701 97.5492C78.9173 97.1975 78.4389 97 77.9401 97C77.4412 97 76.9628 97.1975 76.6101 97.5492C76.2574 97.9008 76.0592 98.3777 76.0592 98.875V100.919C74.3892 101.189 72.8015 101.83 71.4134 102.794L69.9652 101.35C69.7898 101.175 69.5816 101.036 69.3525 100.942C69.1233 100.847 68.8778 100.799 68.6298 100.799C68.3817 100.799 68.1362 100.847 67.907 100.942C67.6779 101.036 67.4697 101.175 67.2943 101.35C67.119 101.525 66.9799 101.732 66.8849 101.961C66.79 102.189 66.7412 102.434 66.7412 102.681C66.7412 102.928 66.79 103.173 66.8849 103.402C66.9799 103.63 67.119 103.838 67.2943 104.012L68.7426 105.456C67.7753 106.84 67.1325 108.423 66.8617 110.087H64.7363C64.2375 110.087 63.7591 110.285 63.4064 110.637C63.0536 110.988 62.8555 111.465 62.8555 111.962C62.8555 112.46 63.0536 112.937 63.4064 113.288C63.7591 113.64 64.2375 113.837 64.7363 113.837H66.7865C67.0573 115.502 67.7001 117.085 68.6674 118.469L67.2191 119.912C67.0428 120.087 66.9029 120.294 66.8074 120.523C66.7119 120.751 66.6627 120.996 66.6627 121.244C66.6627 121.491 66.7119 121.736 66.8074 121.965C66.9029 122.193 67.0428 122.401 67.2191 122.575C67.394 122.751 67.602 122.89 67.8312 122.985C68.0604 123.081 68.3062 123.13 68.5545 123.13C68.8028 123.13 69.0487 123.081 69.2779 122.985C69.5071 122.89 69.7151 122.751 69.8899 122.575L71.3382 121.131C72.7262 122.095 74.314 122.736 75.984 123.006V125.125C75.984 125.622 76.1821 126.099 76.5349 126.451C76.8876 126.802 77.366 127 77.8649 127C78.3637 127 78.8421 126.802 79.1948 126.451C79.5476 126.099 79.7457 125.622 79.7457 125.125V123.081C81.4157 122.811 83.0035 122.17 84.3915 121.206L85.8398 122.65C86.0146 122.826 86.2226 122.965 86.4518 123.06C86.681 123.156 86.9269 123.205 87.1752 123.205C87.4235 123.205 87.6693 123.156 87.8985 123.06C88.1277 122.965 88.3358 122.826 88.5106 122.65C88.6869 122.476 88.8268 122.268 88.9223 122.04C89.0178 121.811 89.067 121.566 89.067 121.319C89.067 121.071 89.0178 120.826 88.9223 120.598C88.8268 120.369 88.6869 120.162 88.5106 119.987L87.0623 118.544C88.0296 117.16 88.6724 115.577 88.9432 113.912H91.0686C91.5674 113.912 92.0458 113.715 92.3986 113.363C92.7513 113.012 92.9495 112.535 92.9495 112.037C92.9495 111.54 92.7513 111.063 92.3986 110.712C92.0458 110.36 91.5674 110.162 91.0686 110.162V110.125ZM85.1815 113.875C84.8492 115.188 84.1668 116.386 83.2064 117.344C82.2461 118.301 81.0438 118.981 79.7269 119.312C79.625 118.907 79.3901 118.547 79.0595 118.29C78.729 118.033 78.3217 117.893 77.9025 117.893C77.4832 117.893 77.0759 118.033 76.7454 118.29C76.4148 118.547 76.1799 118.907 76.078 119.312C74.7612 118.981 73.5588 118.301 72.5985 117.344C71.6382 116.386 70.9557 115.188 70.6235 113.875C71.0302 113.773 71.3912 113.539 71.6491 113.21C71.907 112.88 72.0471 112.474 72.0471 112.056C72.0471 111.638 71.907 111.232 71.6491 110.903C71.3912 110.573 71.0302 110.339 70.6235 110.237C70.9557 108.925 71.6382 107.726 72.5985 106.769C73.5588 105.812 74.7612 105.131 76.078 104.8C76.1799 105.205 76.4148 105.565 76.7454 105.822C77.0759 106.08 77.4832 106.219 77.9025 106.219C78.3217 106.219 78.729 106.08 79.0595 105.822C79.3901 105.565 79.625 105.205 79.7269 104.8C81.0438 105.131 82.2461 105.812 83.2064 106.769C84.1668 107.726 84.8492 108.925 85.1815 110.237C84.7748 110.339 84.4138 110.573 84.1558 110.903C83.8979 111.232 83.7578 111.638 83.7578 112.056C83.7578 112.474 83.8979 112.88 84.1558 113.21C84.4138 113.539 84.7748 113.773 85.1815 113.875Z" fill="#FF4D79"/>
<path d="M95.2464 55.0558L96.7323 56.5183C96.06 57.519 95.5875 58.6394 95.3405 59.8183H93.2715C92.7727 59.8183 92.2943 60.0159 91.9415 60.3675C91.5888 60.7191 91.3906 61.1961 91.3906 61.6933C91.3906 62.1906 91.5888 62.6675 91.9415 63.0192C92.2943 63.3708 92.7727 63.5683 93.2715 63.5683H95.3405C95.5781 64.7412 96.0446 65.8561 96.7135 66.8496L95.2276 68.3121C95.0513 68.4864 94.9114 68.6938 94.8159 68.9223C94.7204 69.1507 94.6713 69.3958 94.6713 69.6433C94.6713 69.8909 94.7204 70.1359 94.8159 70.3644C94.9114 70.5929 95.0513 70.8003 95.2276 70.9746C95.4034 71.1484 95.6118 71.2858 95.841 71.3792C96.0701 71.4725 96.3155 71.5198 96.563 71.5183C96.8106 71.5198 97.056 71.4725 97.2851 71.3792C97.5143 71.2858 97.7227 71.1484 97.8985 70.9746L99.3655 69.4933C100.364 70.1613 101.481 70.6323 102.657 70.8808V72.9433C102.657 73.4406 102.855 73.9175 103.208 74.2692C103.561 74.6208 104.039 74.8183 104.538 74.8183C105.037 74.8183 105.515 74.6208 105.868 74.2692C106.221 73.9175 106.419 73.4406 106.419 72.9433V70.8808C107.601 70.6346 108.725 70.1635 109.729 69.4933L111.196 70.9746C111.55 71.3252 112.03 71.5211 112.529 71.5194C113.028 71.5176 113.506 71.3183 113.858 70.9652C114.209 70.6121 114.406 70.1343 114.404 69.6367C114.402 69.1391 114.202 68.6627 113.848 68.3121L112.381 66.8496C113.048 65.8547 113.514 64.7404 113.754 63.5683H115.823C116.322 63.5683 116.8 63.3708 117.153 63.0192C117.506 62.6675 117.704 62.1906 117.704 61.6933C117.704 61.1961 117.506 60.7191 117.153 60.3675C116.8 60.0159 116.322 59.8183 115.823 59.8183H113.754C113.518 58.6452 113.051 57.5301 112.381 56.5371L113.848 55.0558C114.045 54.8878 114.205 54.6809 114.318 54.4483C114.431 54.2157 114.494 53.9623 114.504 53.7041C114.514 53.4459 114.471 53.1884 114.376 52.9477C114.282 52.7071 114.138 52.4886 113.955 52.3059C113.772 52.1232 113.552 51.9802 113.311 51.8859C113.07 51.7916 112.811 51.7481 112.552 51.7581C112.293 51.7681 112.039 51.8313 111.806 51.9439C111.572 52.0564 111.365 52.2158 111.196 52.4121L109.729 53.8746C108.724 53.211 107.6 52.7464 106.419 52.5059V50.4434C106.419 49.9461 106.221 49.4692 105.868 49.1175C105.515 48.7659 105.037 48.5684 104.538 48.5684C104.039 48.5684 103.561 48.7659 103.208 49.1175C102.855 49.4692 102.657 49.9461 102.657 50.4434V52.5059C101.482 52.7486 100.365 53.2132 99.3655 53.8746L97.8985 52.4121C97.7236 52.2364 97.5156 52.0969 97.2864 52.0017C97.0572 51.9065 96.8113 51.8575 96.563 51.8575C96.3147 51.8575 96.0689 51.9065 95.8397 52.0017C95.6105 52.0969 95.4025 52.2364 95.2276 52.4121C94.8798 52.7659 94.6865 53.2425 94.6901 53.7378C94.6936 54.2332 94.8936 54.707 95.2464 55.0558V55.0558ZM100.569 59.5933C100.818 59.5923 101.064 59.5421 101.294 59.4455C101.523 59.349 101.731 59.208 101.905 59.0308C102.204 58.7189 102.386 58.3134 102.421 57.883C102.455 57.4525 102.339 57.0235 102.093 56.6683C102.857 56.2738 103.705 56.0679 104.566 56.0679C105.427 56.0679 106.275 56.2738 107.04 56.6683C106.85 56.9479 106.739 57.2733 106.72 57.6103C106.7 57.9472 106.772 58.2832 106.928 58.5827C107.084 58.8822 107.319 59.1342 107.606 59.3121C107.894 59.49 108.225 59.5871 108.563 59.5933C108.944 59.5777 109.311 59.4469 109.616 59.2183C109.994 59.9893 110.194 60.8352 110.199 61.6933C110.194 62.5456 109.995 63.3854 109.616 64.1496C109.257 63.9374 108.837 63.8506 108.423 63.9026C108.008 63.9547 107.623 64.1427 107.328 64.4371C107.033 64.7314 106.844 65.1154 106.792 65.5285C106.74 65.9415 106.827 66.3601 107.04 66.7183C106.275 67.1129 105.427 67.3188 104.566 67.3188C103.705 67.3188 102.857 67.1129 102.093 66.7183C102.344 66.3615 102.463 65.9286 102.428 65.494C102.394 65.0594 102.209 64.6503 101.905 64.3371C101.588 64.0367 101.177 63.8556 100.741 63.8248C100.305 63.794 99.8718 63.9155 99.516 64.1683C99.1282 63.4001 98.9223 62.5534 98.9141 61.6933C98.9168 60.8327 99.123 59.9847 99.516 59.2183C99.8208 59.4469 100.188 59.5777 100.569 59.5933Z" fill="#FF4D79"/>
<path d="M89.1877 67C89.1877 66.5027 88.9895 66.0258 88.6368 65.6742C88.284 65.3225 87.8056 65.125 87.3068 65.125H72.2598C71.7609 65.125 71.2825 65.3225 70.9298 65.6742C70.5771 66.0258 70.3789 66.5027 70.3789 67C70.3789 67.4973 70.5771 67.9742 70.9298 68.3258C71.2825 68.6775 71.7609 68.875 72.2598 68.875H87.3068C87.8056 68.875 88.284 68.6775 88.6368 68.3258C88.9895 67.9742 89.1877 67.4973 89.1877 67Z" fill="#FF4D79"/>
<path d="M68.4981 46.375C69.6141 46.375 70.705 46.0451 71.633 45.427C72.5609 44.8089 73.2841 43.9304 73.7112 42.9026C74.1383 41.8748 74.25 40.7438 74.0323 39.6526C73.8146 38.5615 73.2772 37.5592 72.488 36.7725C71.6989 35.9859 70.6935 35.4501 69.5989 35.2331C68.5044 35.016 67.3698 35.1274 66.3388 35.5532C65.3077 35.9789 64.4264 36.6999 63.8064 37.6249C63.1864 38.5499 62.8555 39.6375 62.8555 40.75C62.8555 42.2418 63.45 43.6726 64.5082 44.7275C65.5664 45.7824 67.0016 46.375 68.4981 46.375V46.375ZM68.4981 38.875C68.8701 38.875 69.2337 38.985 69.5431 39.191C69.8524 39.397 70.0934 39.6899 70.2358 40.0325C70.3782 40.3751 70.4154 40.7521 70.3428 41.1158C70.2703 41.4795 70.0911 41.8136 69.8281 42.0758C69.565 42.338 69.2299 42.5166 68.865 42.589C68.5002 42.6613 68.122 42.6242 67.7783 42.4823C67.4346 42.3404 67.1409 42.1 66.9342 41.7917C66.7275 41.4833 66.6172 41.1208 66.6172 40.75C66.6172 40.2527 66.8154 39.7758 67.1681 39.4242C67.5208 39.0725 67.9993 38.875 68.4981 38.875Z" fill="#FF4D79"/>
<path d="M139.971 98.875C138.855 98.875 137.764 99.2049 136.836 99.823C135.908 100.441 135.185 101.32 134.758 102.347C134.331 103.375 134.219 104.506 134.437 105.597C134.654 106.689 135.192 107.691 135.981 108.477C136.77 109.264 137.775 109.8 138.87 110.017C139.964 110.234 141.099 110.123 142.13 109.697C143.161 109.271 144.042 108.55 144.662 107.625C145.282 106.7 145.613 105.613 145.613 104.5C145.613 103.008 145.019 101.577 143.961 100.523C142.902 99.4676 141.467 98.875 139.971 98.875V98.875ZM139.971 106.375C139.599 106.375 139.235 106.265 138.926 106.059C138.616 105.853 138.375 105.56 138.233 105.218C138.091 104.875 138.053 104.498 138.126 104.134C138.199 103.77 138.378 103.436 138.641 103.174C138.904 102.912 139.239 102.733 139.604 102.661C139.969 102.589 140.347 102.626 140.691 102.768C141.034 102.91 141.328 103.15 141.535 103.458C141.741 103.767 141.852 104.129 141.852 104.5C141.852 104.997 141.653 105.474 141.301 105.826C140.948 106.177 140.47 106.375 139.971 106.375Z" fill="#FF4D79"/>
<path d="M104.234 106.375C106.312 106.375 107.996 104.696 107.996 102.625C107.996 100.554 106.312 98.875 104.234 98.875C102.157 98.875 100.473 100.554 100.473 102.625C100.473 104.696 102.157 106.375 104.234 106.375Z" fill="#FF4D79"/>
<path d="M107.996 38.875C110.074 38.875 111.758 37.1961 111.758 35.125C111.758 33.0539 110.074 31.375 107.996 31.375C105.919 31.375 104.234 33.0539 104.234 35.125C104.234 37.1961 105.919 38.875 107.996 38.875Z" fill="#FF4D79"/>
<path d="M45.9297 115.75C48.0073 115.75 49.6915 114.071 49.6915 112C49.6915 109.929 48.0073 108.25 45.9297 108.25C43.8522 108.25 42.168 109.929 42.168 112C42.168 114.071 43.8522 115.75 45.9297 115.75Z" fill="#FF4D79"/>
<path d="M77.9043 82C78.9431 82 79.7852 81.1605 79.7852 80.125C79.7852 79.0895 78.9431 78.25 77.9043 78.25C76.8655 78.25 76.0234 79.0895 76.0234 80.125C76.0234 81.1605 76.8655 82 77.9043 82Z" fill="#FF4D79"/>
<path d="M36.5254 55.75C37.5642 55.75 38.4063 54.9105 38.4063 53.875C38.4063 52.8395 37.5642 52 36.5254 52C35.4866 52 34.6445 52.8395 34.6445 53.875C34.6445 54.9105 35.4866 55.75 36.5254 55.75Z" fill="#FF4D79"/>
<path d="M196.224 77.8L191.712 82.504V91H183.984V57.4H191.712V73.096L206.592 57.4H215.232L201.312 72.376L216.048 91H206.976L196.224 77.8ZM230.197 91.384C227.477 91.384 225.029 90.824 222.853 89.704C220.709 88.552 219.029 86.968 217.813 84.952C216.597 82.936 215.989 80.648 215.989 78.088C215.989 75.528 216.597 73.24 217.813 71.224C219.029 69.208 220.709 67.64 222.853 66.52C225.029 65.368 227.477 64.792 230.197 64.792C232.917 64.792 235.349 65.368 237.493 66.52C239.637 67.64 241.317 69.208 242.533 71.224C243.749 73.24 244.357 75.528 244.357 78.088C244.357 80.648 243.749 82.936 242.533 84.952C241.317 86.968 239.637 88.552 237.493 89.704C235.349 90.824 232.917 91.384 230.197 91.384ZM230.197 85.24C232.117 85.24 233.685 84.6 234.901 83.32C236.149 82.008 236.773 80.264 236.773 78.088C236.773 75.912 236.149 74.184 234.901 72.904C233.685 71.592 232.117 70.936 230.197 70.936C228.277 70.936 226.693 71.592 225.445 72.904C224.197 74.184 223.573 75.912 223.573 78.088C223.573 80.264 224.197 82.008 225.445 83.32C226.693 84.6 228.277 85.24 230.197 85.24ZM274.291 65.176L263.395 91H255.667L244.819 65.176H252.547L259.699 82.744L267.091 65.176H274.291ZM277.347 65.176H284.835V91H277.347V65.176ZM281.091 61.576C279.715 61.576 278.595 61.176 277.731 60.376C276.867 59.576 276.435 58.584 276.435 57.4C276.435 56.216 276.867 55.224 277.731 54.424C278.595 53.624 279.715 53.224 281.091 53.224C282.467 53.224 283.587 53.608 284.451 54.376C285.315 55.144 285.747 56.104 285.747 57.256C285.747 58.504 285.315 59.544 284.451 60.376C283.587 61.176 282.467 61.576 281.091 61.576ZM318.088 55.384V91H310.936V88.024C309.08 90.264 306.392 91.384 302.872 91.384C300.44 91.384 298.232 90.84 296.248 89.752C294.296 88.664 292.76 87.112 291.64 85.096C290.52 83.08 289.96 80.744 289.96 78.088C289.96 75.432 290.52 73.096 291.64 71.08C292.76 69.064 294.296 67.512 296.248 66.424C298.232 65.336 300.44 64.792 302.872 64.792C306.168 64.792 308.744 65.832 310.6 67.912V55.384H318.088ZM304.168 85.24C306.056 85.24 307.624 84.6 308.872 83.32C310.12 82.008 310.744 80.264 310.744 78.088C310.744 75.912 310.12 74.184 308.872 72.904C307.624 71.592 306.056 70.936 304.168 70.936C302.248 70.936 300.664 71.592 299.416 72.904C298.168 74.184 297.544 75.912 297.544 78.088C297.544 80.264 298.168 82.008 299.416 83.32C300.664 84.6 302.248 85.24 304.168 85.24ZM324.059 74.488H337.643V80.488H324.059V74.488Z" fill="#121212"/>
<path d="M354.91 57.4V91H347.134V63.64H340.414V57.4H354.91ZM372.555 56.824C377.259 56.824 380.939 58.264 383.595 61.144C386.251 63.992 387.579 68.104 387.579 73.48C387.579 77.288 386.859 80.552 385.419 83.272C384.011 85.992 382.011 88.056 379.419 89.464C376.827 90.872 373.835 91.576 370.443 91.576C368.651 91.576 366.939 91.384 365.307 91C363.675 90.584 362.283 90.008 361.131 89.272L364.011 83.56C365.643 84.68 367.739 85.24 370.299 85.24C373.147 85.24 375.403 84.408 377.067 82.744C378.731 81.048 379.627 78.616 379.755 75.448C377.739 77.464 374.955 78.472 371.403 78.472C369.259 78.472 367.307 78.04 365.547 77.176C363.787 76.312 362.395 75.096 361.371 73.528C360.347 71.928 359.835 70.088 359.835 68.008C359.835 65.768 360.395 63.8 361.515 62.104C362.635 60.408 364.155 59.112 366.075 58.216C368.027 57.288 370.187 56.824 372.555 56.824ZM373.131 72.664C374.827 72.664 376.203 72.2 377.259 71.272C378.347 70.312 378.891 69.096 378.891 67.624C378.891 66.152 378.363 64.952 377.307 64.024C376.283 63.096 374.859 62.632 373.035 62.632C371.371 62.632 370.011 63.08 368.955 63.976C367.931 64.872 367.419 66.088 367.419 67.624C367.419 69.16 367.931 70.392 368.955 71.32C370.011 72.216 371.403 72.664 373.131 72.664Z" fill="#FF4D79"/>
</svg>
