<svg width="361" height="105" viewBox="0 0 361 105" fill="none" xmlns="http://www.w3.org/2000/svg">
<path d="M15.0488 33.75H48.9046C51.6876 33.7493 54.4274 33.0647 56.8817 31.7567C59.3359 30.4487 61.4288 28.5577 62.9751 26.2511C64.5214 23.9445 65.4733 21.2934 65.7467 18.5326C66.0201 15.7717 65.6064 12.9863 64.5423 10.4228C63.4783 7.85933 61.7966 5.59693 59.6462 3.83587C57.4959 2.07481 54.9431 0.869418 52.214 0.326406C49.4849 -0.216606 46.6635 -0.080488 43.9998 0.722709C41.336 1.52591 38.9119 2.97141 36.9422 4.93124C36.7112 5.08206 36.5163 5.28174 36.3714 5.51611C36.2265 5.75047 36.1352 6.01377 36.1039 6.2873C36.0725 6.56082 36.102 6.83787 36.1903 7.09875C36.2785 7.35963 36.4232 7.59795 36.6142 7.79677C36.8053 7.99559 37.0379 8.15004 37.2955 8.24915C37.5532 8.34826 37.8295 8.38959 38.105 8.37021C38.3805 8.35083 38.6483 8.27121 38.8894 8.13702C39.1306 8.00282 39.3391 7.81734 39.5002 7.59374C41.0371 6.09307 42.9195 4.99068 44.9826 4.38302C47.0458 3.77536 49.2269 3.68094 51.3351 4.10802C53.4433 4.53509 55.4145 5.47066 57.076 6.83286C58.7376 8.19507 60.0391 9.94242 60.8665 11.922C61.694 13.9017 62.0222 16.0533 61.8224 18.1886C61.6227 20.3239 60.9011 22.3779 59.7209 24.171C58.5406 25.964 56.9375 27.4414 55.0519 28.4739C53.1663 29.5064 51.0557 30.0625 48.9046 30.0937H15.0488C14.55 30.0937 14.0716 30.2913 13.7189 30.6429C13.3661 30.9945 13.168 31.4714 13.168 31.9687C13.168 32.466 13.3661 32.9429 13.7189 33.2945C14.0716 33.6462 14.55 33.8437 15.0488 33.8437V33.75Z" fill="#FF4D79"/>
<path d="M120.378 39.374C120.379 35.2938 119.166 31.3048 116.893 27.9118C114.62 24.5188 111.388 21.8742 107.606 20.3126C103.825 18.7509 99.6639 18.3425 95.6496 19.1389C91.6353 19.9353 87.9482 21.9007 85.0547 24.7865C84.7005 25.1396 84.5015 25.6185 84.5015 26.1178C84.5015 26.6171 84.7005 27.096 85.0547 27.449C85.4088 27.8021 85.8892 28.0005 86.3901 28.0005C86.891 28.0005 87.3713 27.8021 87.7255 27.449C89.6935 25.4848 92.1172 24.0348 94.7818 23.2278C97.4464 22.4208 100.27 22.2815 103.001 22.8225C105.733 23.3634 108.288 24.5678 110.441 26.3289C112.594 28.0899 114.278 30.3533 115.343 32.9183C116.408 35.4832 116.822 38.2706 116.549 41.0334C116.275 43.7961 115.321 46.4488 113.773 48.7563C112.225 51.0639 110.129 52.9549 107.672 54.2619C105.215 55.5689 102.473 56.2514 99.6879 56.249H56.4278C55.9289 56.249 55.4505 56.4465 55.0978 56.7982C54.745 57.1498 54.5469 57.6267 54.5469 58.124C54.5469 58.6213 54.745 59.0982 55.0978 59.4498C55.4505 59.8014 55.9289 59.999 56.4278 59.999H99.6879C105.175 59.999 110.438 57.826 114.318 53.9581C118.198 50.0901 120.378 44.8441 120.378 39.374Z" fill="#FF4D79"/>
<path d="M80.8793 67.5H41.3809C40.882 67.5 40.4036 67.6975 40.0509 68.0492C39.6982 68.4008 39.5 68.8777 39.5 69.375C39.5 69.8723 39.6982 70.3492 40.0509 70.7008C40.4036 71.0525 40.882 71.25 41.3809 71.25H80.8793C84.87 71.25 88.6972 72.8303 91.5191 75.6434C94.3409 78.4564 95.9263 82.2717 95.9263 86.25C95.9263 90.2282 94.3409 94.0435 91.5191 96.8566C88.6972 99.6696 84.87 101.25 80.8793 101.25C78.9045 101.258 76.9478 100.875 75.1232 100.121C73.2987 99.3681 71.6429 98.2603 70.2523 96.8625C69.8999 96.5132 69.4232 96.3172 68.9263 96.3172C68.4294 96.3172 67.9527 96.5132 67.6003 96.8625C67.424 97.0368 67.2841 97.2441 67.1886 97.4726C67.0931 97.7011 67.0439 97.9462 67.0439 98.1937C67.0439 98.4412 67.0931 98.6863 67.1886 98.9148C67.2841 99.1433 67.424 99.3506 67.6003 99.525C69.3395 101.269 71.409 102.651 73.6886 103.591C75.9682 104.531 78.4124 105.01 80.8793 105C83.3493 105 85.7951 104.515 88.0771 103.573C90.359 102.63 92.4325 101.249 94.179 99.5082C95.9256 97.7671 97.311 95.7001 98.2563 93.4253C99.2015 91.1504 99.688 88.7122 99.688 86.25C99.688 83.7877 99.2015 81.3495 98.2563 79.0747C97.311 76.7998 95.9256 74.7328 94.179 72.9917C92.4325 71.2506 90.359 69.8695 88.0771 68.9273C85.7951 67.985 83.3493 67.5 80.8793 67.5Z" fill="#FF4D79"/>
<path d="M35.7366 56.25H33.7241C33.3892 53.583 32.3363 51.0561 30.6771 48.9375L33.3103 46.3312C33.6645 45.9782 33.8634 45.4993 33.8634 45C33.8634 44.5007 33.6645 44.0218 33.3103 43.6687C32.9561 43.3157 32.4758 43.1173 31.9749 43.1173C31.474 43.1173 30.9936 43.3157 30.6395 43.6687L28.025 46.2937C25.8998 44.6397 23.365 43.5901 20.6896 43.2562V41.25C20.6896 40.7527 20.4915 40.2758 20.1387 39.9242C19.786 39.5725 19.3076 39.375 18.8088 39.375C18.3099 39.375 17.8315 39.5725 17.4788 39.9242C17.126 40.2758 16.9279 40.7527 16.9279 41.25V43.2562C14.2525 43.5901 11.7177 44.6397 9.59246 46.2937L6.97805 43.6687C6.62387 43.3157 6.14351 43.1173 5.64262 43.1173C5.14174 43.1173 4.66138 43.3157 4.3072 43.6687C3.95303 44.0218 3.75405 44.5007 3.75405 45C3.75405 45.4993 3.95303 45.9782 4.3072 46.3312L6.94043 48.9375C5.2812 51.0561 4.22829 53.583 3.89341 56.25H1.88087C1.38204 56.25 0.903628 56.4475 0.550896 56.7991C0.198163 57.1508 0 57.6277 0 58.125C0 58.6223 0.198163 59.0992 0.550896 59.4508C0.903628 59.8024 1.38204 60 1.88087 60H3.89341C4.22829 62.667 5.2812 65.1939 6.94043 67.3125L4.3072 69.9187C4.13091 70.093 3.99099 70.3004 3.8955 70.5289C3.80001 70.7574 3.75084 71.0024 3.75084 71.25C3.75084 71.4975 3.80001 71.7425 3.8955 71.971C3.99099 72.1995 4.13091 72.4069 4.3072 72.5812C4.48206 72.7569 4.69008 72.8964 4.91928 72.9916C5.14849 73.0868 5.39433 73.1358 5.64262 73.1358C5.89092 73.1358 6.13676 73.0868 6.36597 72.9916C6.59517 72.8964 6.80319 72.7569 6.97805 72.5812L9.59246 69.9562C11.7177 71.6102 14.2525 72.6599 16.9279 72.9937V75C16.9279 75.4972 17.126 75.9741 17.4788 76.3258C17.8315 76.6774 18.3099 76.8749 18.8088 76.8749C19.3076 76.8749 19.786 76.6774 20.1387 76.3258C20.4915 75.9741 20.6896 75.4972 20.6896 75V72.9937C23.365 72.6599 25.8998 71.6102 28.025 69.9562L30.6395 72.5812C30.8143 72.7569 31.0223 72.8964 31.2515 72.9916C31.4807 73.0868 31.7266 73.1358 31.9749 73.1358C32.2232 73.1358 32.469 73.0868 32.6982 72.9916C32.9274 72.8964 33.1354 72.7569 33.3103 72.5812C33.4866 72.4069 33.6265 72.1995 33.722 71.971C33.8175 71.7425 33.8667 71.4975 33.8667 71.25C33.8667 71.0024 33.8175 70.7574 33.722 70.5289C33.6265 70.3004 33.4866 70.093 33.3103 69.9187L30.6771 67.3125C32.3363 65.1939 33.3892 62.667 33.7241 60H35.7366C36.2355 60 36.7139 59.8024 37.0666 59.4508C37.4193 59.0992 37.6175 58.6223 37.6175 58.125C37.6175 57.6277 37.4193 57.1508 37.0666 56.7991C36.7139 56.4475 36.2355 56.25 35.7366 56.25ZM29.9247 60C29.5327 62.2996 28.4334 64.4208 26.7788 66.0702C25.1243 67.7195 22.9964 68.8154 20.6896 69.2062C20.6896 68.7089 20.4915 68.232 20.1387 67.8804C19.786 67.5288 19.3076 67.3312 18.8088 67.3312C18.3099 67.3312 17.8315 67.5288 17.4788 67.8804C17.126 68.232 16.9279 68.7089 16.9279 69.2062C14.6211 68.8154 12.4932 67.7195 10.8387 66.0702C9.18412 64.4208 8.08478 62.2996 7.69278 60C8.19162 60 8.67003 59.8024 9.02276 59.4508C9.37549 59.0992 9.57365 58.6223 9.57365 58.125C9.57365 57.6277 9.37549 57.1508 9.02276 56.7991C8.67003 56.4475 8.19162 56.25 7.69278 56.25C8.08478 53.9504 9.18412 51.8291 10.8387 50.1798C12.4932 48.5304 14.6211 47.4345 16.9279 47.0437C16.9279 47.541 17.126 48.0179 17.4788 48.3696C17.8315 48.7212 18.3099 48.9187 18.8088 48.9187C19.3076 48.9187 19.786 48.7212 20.1387 48.3696C20.4915 48.0179 20.6896 47.541 20.6896 47.0437C22.9964 47.4345 25.1243 48.5304 26.7788 50.1798C28.4334 51.8291 29.5327 53.9504 29.9247 56.25C29.4259 56.25 28.9475 56.4475 28.5947 56.7991C28.242 57.1508 28.0438 57.6277 28.0438 58.125C28.0438 58.6223 28.242 59.0992 28.5947 59.4508C28.9475 59.8024 29.4259 60 29.9247 60Z" fill="#FF4D79"/>
<path d="M14.1065 58.125C15.6646 58.125 16.9278 56.8658 16.9278 55.3125C16.9278 53.7592 15.6646 52.5 14.1065 52.5C12.5483 52.5 11.2852 53.7592 11.2852 55.3125C11.2852 56.8658 12.5483 58.125 14.1065 58.125Z" fill="#FF4D79"/>
<path d="M24.4512 58.125C25.49 58.125 26.3321 57.2855 26.3321 56.25C26.3321 55.2145 25.49 54.375 24.4512 54.375C23.4124 54.375 22.5703 55.2145 22.5703 56.25C22.5703 57.2855 23.4124 58.125 24.4512 58.125Z" fill="#FF4D79"/>
<path d="M18.8106 63.75C19.8493 63.75 20.6914 62.9105 20.6914 61.875C20.6914 60.8395 19.8493 60 18.8106 60C17.7718 60 16.9297 60.8395 16.9297 61.875C16.9297 62.9105 17.7718 63.75 18.8106 63.75Z" fill="#FF4D79"/>
<path d="M62.0686 88.125H60.0184C59.7476 86.4602 59.1048 84.8774 58.1376 83.4937L59.5858 82.05C59.7612 81.8752 59.9003 81.6676 59.9952 81.4392C60.0901 81.2108 60.139 80.966 60.139 80.7187C60.139 80.4715 60.0901 80.2267 59.9952 79.9983C59.9003 79.7699 59.7612 79.5623 59.5858 79.3875C59.4105 79.2127 59.2023 79.074 58.9731 78.9794C58.744 78.8848 58.4984 78.8361 58.2504 78.8361C58.0024 78.8361 57.7568 78.8848 57.5277 78.9794C57.2986 79.074 57.0904 79.2127 56.915 79.3875L55.4667 80.8312C54.0787 79.867 52.491 79.2262 50.821 78.9562V76.875C50.821 76.3777 50.6228 75.9008 50.2701 75.5492C49.9173 75.1975 49.4389 75 48.9401 75C48.4412 75 47.9628 75.1975 47.6101 75.5492C47.2574 75.9008 47.0592 76.3777 47.0592 76.875V78.9187C45.3892 79.1887 43.8015 79.8295 42.4134 80.7937L40.9652 79.35C40.7898 79.1752 40.5816 79.0365 40.3525 78.9419C40.1233 78.8473 39.8778 78.7986 39.6298 78.7986C39.3817 78.7986 39.1362 78.8473 38.907 78.9419C38.6779 79.0365 38.4697 79.1752 38.2943 79.35C38.119 79.5248 37.9799 79.7324 37.8849 79.9608C37.79 80.1892 37.7412 80.434 37.7412 80.6812C37.7412 80.9285 37.79 81.1733 37.8849 81.4017C37.9799 81.6301 38.119 81.8377 38.2943 82.0125L39.7426 83.4562C38.7753 84.8399 38.1325 86.4227 37.8617 88.0875H35.7363C35.2375 88.0875 34.7591 88.285 34.4064 88.6367C34.0536 88.9883 33.8555 89.4652 33.8555 89.9625C33.8555 90.4598 34.0536 90.9367 34.4064 91.2883C34.7591 91.6399 35.2375 91.8375 35.7363 91.8375H37.7865C38.0573 93.5023 38.7001 95.085 39.6674 96.4687L38.2191 97.9125C38.0428 98.0868 37.9029 98.2941 37.8074 98.5226C37.7119 98.7511 37.6627 98.9962 37.6627 99.2437C37.6627 99.4912 37.7119 99.7363 37.8074 99.9648C37.9029 100.193 38.0428 100.401 38.2191 100.575C38.3939 100.751 38.602 100.89 38.8312 100.985C39.0604 101.081 39.3062 101.13 39.5545 101.13C39.8028 101.13 40.0487 101.081 40.2779 100.985C40.5071 100.89 40.7151 100.751 40.8899 100.575L42.3382 99.1312C43.7262 100.095 45.314 100.736 46.984 101.006V103.125C46.984 103.622 47.1821 104.099 47.5349 104.451C47.8876 104.802 48.366 105 48.8649 105C49.3637 105 49.8421 104.802 50.1948 104.451C50.5476 104.099 50.7457 103.622 50.7457 103.125V101.081C52.4157 100.811 54.0035 100.17 55.3915 99.2062L56.8398 100.65C57.0146 100.826 57.2226 100.965 57.4518 101.06C57.681 101.156 57.9269 101.205 58.1752 101.205C58.4235 101.205 58.6693 101.156 58.8985 101.06C59.1277 100.965 59.3358 100.826 59.5106 100.65C59.6869 100.476 59.8268 100.268 59.9223 100.04C60.0178 99.8113 60.067 99.5662 60.067 99.3187C60.067 99.0712 60.0178 98.8261 59.9223 98.5976C59.8268 98.3691 59.6869 98.1618 59.5106 97.9875L58.0623 96.5437C59.0296 95.16 59.6724 93.5773 59.9432 91.9125H62.0686C62.5674 91.9125 63.0458 91.7149 63.3986 91.3633C63.7513 91.0117 63.9495 90.5348 63.9495 90.0375C63.9495 89.5402 63.7513 89.0633 63.3986 88.7117C63.0458 88.36 62.5674 88.1625 62.0686 88.1625V88.125ZM56.1815 91.875C55.8492 93.1877 55.1668 94.3863 54.2064 95.3436C53.2461 96.3009 52.0438 96.9813 50.7269 97.3125C50.625 96.907 50.3901 96.5472 50.0595 96.2901C49.729 96.0329 49.3217 95.8933 48.9025 95.8933C48.4832 95.8933 48.0759 96.0329 47.7454 96.2901C47.4148 96.5472 47.1799 96.907 47.078 97.3125C45.7612 96.9813 44.5588 96.3009 43.5985 95.3436C42.6382 94.3863 41.9557 93.1877 41.6235 91.875C42.0302 91.7734 42.3912 91.5392 42.6491 91.2097C42.907 90.8802 43.0471 90.4742 43.0471 90.0562C43.0471 89.6383 42.907 89.2323 42.6491 88.9028C42.3912 88.5732 42.0302 88.3391 41.6235 88.2375C41.9557 86.9248 42.6382 85.7261 43.5985 84.7688C44.5588 83.8115 45.7612 83.1312 47.078 82.8C47.1799 83.2054 47.4148 83.5653 47.7454 83.8224C48.0759 84.0795 48.4832 84.2192 48.9025 84.2192C49.3217 84.2192 49.729 84.0795 50.0595 83.8224C50.3901 83.5653 50.625 83.2054 50.7269 82.8C52.0438 83.1312 53.2461 83.8115 54.2064 84.7688C55.1668 85.7261 55.8492 86.9248 56.1815 88.2375C55.7748 88.3391 55.4138 88.5732 55.1558 88.9028C54.8979 89.2323 54.7578 89.6383 54.7578 90.0562C54.7578 90.4742 54.8979 90.8802 55.1558 91.2097C55.4138 91.5392 55.7748 91.7734 56.1815 91.875Z" fill="#FF4D79"/>
<path d="M66.2464 33.0558L67.7323 34.5183C67.06 35.519 66.5875 36.6394 66.3405 37.8183H64.2715C63.7727 37.8183 63.2943 38.0159 62.9415 38.3675C62.5888 38.7191 62.3906 39.1961 62.3906 39.6933C62.3906 40.1906 62.5888 40.6675 62.9415 41.0192C63.2943 41.3708 63.7727 41.5683 64.2715 41.5683H66.3405C66.5781 42.7412 67.0446 43.8561 67.7135 44.8496L66.2276 46.3121C66.0513 46.4864 65.9114 46.6938 65.8159 46.9223C65.7204 47.1507 65.6713 47.3958 65.6713 47.6433C65.6713 47.8909 65.7204 48.1359 65.8159 48.3644C65.9114 48.5929 66.0513 48.8003 66.2276 48.9746C66.4034 49.1484 66.6118 49.2858 66.841 49.3792C67.0701 49.4725 67.3155 49.5198 67.563 49.5183C67.8106 49.5198 68.056 49.4725 68.2851 49.3792C68.5143 49.2858 68.7227 49.1484 68.8985 48.9746L70.3655 47.4933C71.3637 48.1613 72.481 48.6323 73.6571 48.8808V50.9433C73.6571 51.4406 73.8552 51.9175 74.208 52.2692C74.5607 52.6208 75.0391 52.8183 75.5379 52.8183C76.0368 52.8183 76.5152 52.6208 76.8679 52.2692C77.2207 51.9175 77.4188 51.4406 77.4188 50.9433V48.8808C78.6014 48.6346 79.7254 48.1635 80.7292 47.4933L82.1962 48.9746C82.5504 49.3252 83.0298 49.5211 83.5289 49.5194C84.028 49.5176 84.506 49.3183 84.8577 48.9652C85.2094 48.6121 85.4059 48.1343 85.4042 47.6367C85.4024 47.1391 85.2025 46.6627 84.8483 46.3121L83.3812 44.8496C84.0476 43.8547 84.5139 42.7404 84.7542 41.5683H86.8232C87.322 41.5683 87.8004 41.3708 88.1532 41.0192C88.5059 40.6675 88.7041 40.1906 88.7041 39.6933C88.7041 39.1961 88.5059 38.7191 88.1532 38.3675C87.8004 38.0159 87.322 37.8183 86.8232 37.8183H84.7542C84.5176 36.6452 84.051 35.5301 83.3812 34.5371L84.8483 33.0558C85.0452 32.8878 85.2051 32.6809 85.318 32.4483C85.4309 32.2157 85.4943 31.9623 85.5043 31.7041C85.5143 31.4459 85.4707 31.1884 85.3761 30.9477C85.2816 30.7071 85.1381 30.4886 84.9548 30.3059C84.7715 30.1232 84.5523 29.9802 84.311 29.8859C84.0696 29.7916 83.8113 29.7481 83.5523 29.7581C83.2932 29.7681 83.0391 29.8313 82.8057 29.9439C82.5724 30.0564 82.3649 30.2158 82.1962 30.4121L80.7292 31.8746C79.7239 31.211 78.6001 30.7464 77.4188 30.5059V28.4434C77.4188 27.9461 77.2207 27.4692 76.8679 27.1175C76.5152 26.7659 76.0368 26.5684 75.5379 26.5684C75.0391 26.5684 74.5607 26.7659 74.208 27.1175C73.8552 27.4692 73.6571 27.9461 73.6571 28.4434V30.5059C72.4824 30.7486 71.3651 31.2132 70.3655 31.8746L68.8985 30.4121C68.7236 30.2364 68.5156 30.0969 68.2864 30.0017C68.0572 29.9065 67.8113 29.8575 67.563 29.8575C67.3147 29.8575 67.0689 29.9065 66.8397 30.0017C66.6105 30.0969 66.4025 30.2364 66.2276 30.4121C65.8798 30.7659 65.6865 31.2425 65.6901 31.7378C65.6936 32.2332 65.8936 32.707 66.2464 33.0558ZM71.5693 37.5933C71.8182 37.5923 72.0643 37.5421 72.2936 37.4455C72.5228 37.349 72.7305 37.208 72.9047 37.0308C73.2042 36.7189 73.3864 36.3134 73.4207 35.883C73.4549 35.4525 73.3391 35.0235 73.0928 34.6683C73.8572 34.2738 74.7054 34.0679 75.5662 34.0679C76.4269 34.0679 77.2751 34.2738 78.0395 34.6683C77.8499 34.9479 77.7394 35.2733 77.7199 35.6103C77.7003 35.9472 77.7723 36.2832 77.9283 36.5827C78.0843 36.8822 78.3185 37.1342 78.6063 37.3121C78.894 37.49 79.2245 37.5871 79.563 37.5933C79.9441 37.5777 80.3115 37.4469 80.6163 37.2183C80.9945 37.9893 81.1938 38.8352 81.1994 39.6933C81.1942 40.5456 80.9948 41.3854 80.6163 42.1496C80.257 41.9374 79.837 41.8506 79.4227 41.9026C79.0084 41.9547 78.6232 42.1427 78.3279 42.4371C78.0326 42.7314 77.844 43.1154 77.7918 43.5285C77.7395 43.9415 77.8267 44.3601 78.0395 44.7183C77.2751 45.1129 76.4269 45.3188 75.5662 45.3188C74.7054 45.3188 73.8572 45.1129 73.0928 44.7183C73.344 44.3615 73.4627 43.9286 73.4284 43.494C73.394 43.0594 73.2089 42.6503 72.9047 42.3371C72.5882 42.0367 72.1767 41.8556 71.7408 41.8248C71.3049 41.794 70.8718 41.9155 70.516 42.1683C70.1282 41.4001 69.9223 40.5534 69.9141 39.6933C69.9168 38.8327 70.123 37.9847 70.516 37.2183C70.8208 37.4469 71.1882 37.5777 71.5693 37.5933Z" fill="#FF4D79"/>
<path d="M60.1877 45C60.1877 44.5027 59.9895 44.0258 59.6368 43.6742C59.284 43.3225 58.8056 43.125 58.3068 43.125H43.2598C42.7609 43.125 42.2825 43.3225 41.9298 43.6742C41.5771 44.0258 41.3789 44.5027 41.3789 45C41.3789 45.4973 41.5771 45.9742 41.9298 46.3258C42.2825 46.6775 42.7609 46.875 43.2598 46.875H58.3068C58.8056 46.875 59.284 46.6775 59.6368 46.3258C59.9895 45.9742 60.1877 45.4973 60.1877 45Z" fill="#FF4D79"/>
<path d="M39.4981 24.375C40.6141 24.375 41.705 24.0451 42.633 23.427C43.5609 22.8089 44.2841 21.9304 44.7112 20.9026C45.1383 19.8748 45.25 18.7438 45.0323 17.6526C44.8146 16.5615 44.2772 15.5592 43.488 14.7725C42.6989 13.9859 41.6935 13.4501 40.5989 13.2331C39.5044 13.016 38.3698 13.1274 37.3388 13.5532C36.3077 13.9789 35.4264 14.6999 34.8064 15.6249C34.1864 16.5499 33.8555 17.6375 33.8555 18.75C33.8555 20.2418 34.45 21.6726 35.5082 22.7275C36.5664 23.7824 38.0016 24.375 39.4981 24.375ZM39.4981 16.875C39.8701 16.875 40.2337 16.985 40.5431 17.191C40.8524 17.397 41.0934 17.6899 41.2358 18.0325C41.3782 18.3751 41.4154 18.7521 41.3428 19.1158C41.2703 19.4795 41.0911 19.8136 40.8281 20.0758C40.565 20.338 40.2299 20.5166 39.865 20.589C39.5002 20.6613 39.122 20.6242 38.7783 20.4823C38.4346 20.3404 38.1409 20.1 37.9342 19.7917C37.7275 19.4833 37.6172 19.1208 37.6172 18.75C37.6172 18.2527 37.8154 17.7758 38.1681 17.4242C38.5208 17.0725 38.9993 16.875 39.4981 16.875Z" fill="#FF4D79"/>
<path d="M110.971 76.875C109.855 76.875 108.764 77.2049 107.836 77.823C106.908 78.4411 106.185 79.3196 105.758 80.3474C105.331 81.3752 105.219 82.5062 105.437 83.5974C105.654 84.6885 106.192 85.6908 106.981 86.4775C107.77 87.2641 108.775 87.7999 109.87 88.0169C110.964 88.2339 112.099 88.1225 113.13 87.6968C114.161 87.2711 115.042 86.5501 115.662 85.6251C116.282 84.7 116.613 83.6125 116.613 82.5C116.613 81.0082 116.019 79.5774 114.961 78.5225C113.902 77.4676 112.467 76.875 110.971 76.875ZM110.971 84.375C110.599 84.375 110.235 84.265 109.926 84.059C109.616 83.853 109.375 83.5601 109.233 83.2175C109.091 82.8749 109.053 82.4979 109.126 82.1342C109.199 81.7705 109.378 81.4364 109.641 81.1742C109.904 80.9119 110.239 80.7334 110.604 80.661C110.969 80.5887 111.347 80.6258 111.691 80.7677C112.034 80.9096 112.328 81.15 112.535 81.4583C112.741 81.7666 112.852 82.1292 112.852 82.5C112.852 82.9973 112.653 83.4742 112.301 83.8258C111.948 84.1774 111.47 84.375 110.971 84.375Z" fill="#FF4D79"/>
<path d="M75.2344 84.375C77.312 84.375 78.9962 82.6961 78.9962 80.625C78.9962 78.5539 77.312 76.875 75.2344 76.875C73.1568 76.875 71.4727 78.5539 71.4727 80.625C71.4727 82.6961 73.1568 84.375 75.2344 84.375Z" fill="#FF4D79"/>
<path d="M78.9961 16.875C81.0737 16.875 82.7579 15.1961 82.7579 13.125C82.7579 11.0539 81.0737 9.375 78.9961 9.375C76.9186 9.375 75.2344 11.0539 75.2344 13.125C75.2344 15.1961 76.9186 16.875 78.9961 16.875Z" fill="#FF4D79"/>
<path d="M16.9297 93.75C19.0073 93.75 20.6915 92.0711 20.6915 90C20.6915 87.9289 19.0073 86.25 16.9297 86.25C14.8522 86.25 13.168 87.9289 13.168 90C13.168 92.0711 14.8522 93.75 16.9297 93.75Z" fill="#FF4D79"/>
<path d="M48.9043 60C49.9431 60 50.7852 59.1605 50.7852 58.125C50.7852 57.0895 49.9431 56.25 48.9043 56.25C47.8655 56.25 47.0234 57.0895 47.0234 58.125C47.0234 59.1605 47.8655 60 48.9043 60Z" fill="#FF4D79"/>
<path d="M7.52541 33.75C8.56419 33.75 9.40628 32.9105 9.40628 31.875C9.40628 30.8395 8.56419 30 7.52541 30C6.48663 30 5.64453 30.8395 5.64453 31.875C5.64453 32.9105 6.48663 33.75 7.52541 33.75Z" fill="#FF4D79"/>
<path d="M167.224 55.8L162.712 60.504V69H154.984V35.4H162.712V51.096L177.592 35.4H186.232L172.312 50.376L187.048 69H177.976L167.224 55.8ZM201.197 69.384C198.477 69.384 196.029 68.824 193.853 67.704C191.709 66.552 190.029 64.968 188.813 62.952C187.597 60.936 186.989 58.648 186.989 56.088C186.989 53.528 187.597 51.24 188.813 49.224C190.029 47.208 191.709 45.64 193.853 44.52C196.029 43.368 198.477 42.792 201.197 42.792C203.917 42.792 206.349 43.368 208.493 44.52C210.637 45.64 212.317 47.208 213.533 49.224C214.749 51.24 215.357 53.528 215.357 56.088C215.357 58.648 214.749 60.936 213.533 62.952C212.317 64.968 210.637 66.552 208.493 67.704C206.349 68.824 203.917 69.384 201.197 69.384ZM201.197 63.24C203.117 63.24 204.685 62.6 205.901 61.32C207.149 60.008 207.773 58.264 207.773 56.088C207.773 53.912 207.149 52.184 205.901 50.904C204.685 49.592 203.117 48.936 201.197 48.936C199.277 48.936 197.693 49.592 196.445 50.904C195.197 52.184 194.573 53.912 194.573 56.088C194.573 58.264 195.197 60.008 196.445 61.32C197.693 62.6 199.277 63.24 201.197 63.24ZM245.291 43.176L234.395 69H226.667L215.819 43.176H223.547L230.699 60.744L238.091 43.176H245.291ZM248.347 43.176H255.835V69H248.347V43.176ZM252.091 39.576C250.715 39.576 249.595 39.176 248.731 38.376C247.867 37.576 247.435 36.584 247.435 35.4C247.435 34.216 247.867 33.224 248.731 32.424C249.595 31.624 250.715 31.224 252.091 31.224C253.467 31.224 254.587 31.608 255.451 32.376C256.315 33.144 256.747 34.104 256.747 35.256C256.747 36.504 256.315 37.544 255.451 38.376C254.587 39.176 253.467 39.576 252.091 39.576ZM289.088 33.384V69H281.936V66.024C280.08 68.264 277.392 69.384 273.872 69.384C271.44 69.384 269.232 68.84 267.248 67.752C265.296 66.664 263.76 65.112 262.64 63.096C261.52 61.08 260.96 58.744 260.96 56.088C260.96 53.432 261.52 51.096 262.64 49.08C263.76 47.064 265.296 45.512 267.248 44.424C269.232 43.336 271.44 42.792 273.872 42.792C277.168 42.792 279.744 43.832 281.6 45.912V33.384H289.088ZM275.168 63.24C277.056 63.24 278.624 62.6 279.872 61.32C281.12 60.008 281.744 58.264 281.744 56.088C281.744 53.912 281.12 52.184 279.872 50.904C278.624 49.592 277.056 48.936 275.168 48.936C273.248 48.936 271.664 49.592 270.416 50.904C269.168 52.184 268.544 53.912 268.544 56.088C268.544 58.264 269.168 60.008 270.416 61.32C271.664 62.6 273.248 63.24 275.168 63.24ZM295.059 52.488H308.643V58.488H295.059V52.488Z" fill="#121212"/>
<path d="M325.91 35.4V69H318.134V41.64H311.414V35.4H325.91ZM343.555 34.824C348.259 34.824 351.939 36.264 354.595 39.144C357.251 41.992 358.579 46.104 358.579 51.48C358.579 55.288 357.859 58.552 356.419 61.272C355.011 63.992 353.011 66.056 350.419 67.464C347.827 68.872 344.835 69.576 341.443 69.576C339.651 69.576 337.939 69.384 336.307 69C334.675 68.584 333.283 68.008 332.131 67.272L335.011 61.56C336.643 62.68 338.739 63.24 341.299 63.24C344.147 63.24 346.403 62.408 348.067 60.744C349.731 59.048 350.627 56.616 350.755 53.448C348.739 55.464 345.955 56.472 342.403 56.472C340.259 56.472 338.307 56.04 336.547 55.176C334.787 54.312 333.395 53.096 332.371 51.528C331.347 49.928 330.835 48.088 330.835 46.008C330.835 43.768 331.395 41.8 332.515 40.104C333.635 38.408 335.155 37.112 337.075 36.216C339.027 35.288 341.187 34.824 343.555 34.824ZM344.131 50.664C345.827 50.664 347.203 50.2 348.259 49.272C349.347 48.312 349.891 47.096 349.891 45.624C349.891 44.152 349.363 42.952 348.307 42.024C347.283 41.096 345.859 40.632 344.035 40.632C342.371 40.632 341.011 41.08 339.955 41.976C338.931 42.872 338.419 44.088 338.419 45.624C338.419 47.16 338.931 48.392 339.955 49.32C341.011 50.216 342.403 50.664 344.131 50.664Z" fill="#FF4D79"/>
</svg>
