<svg width="560" height="435" viewBox="0 0 560 435" fill="none" xmlns="http://www.w3.org/2000/svg">
<path d="M522.003 155.503C517.566 155.517 513.259 157.002 509.756 159.724C506.253 162.447 503.751 166.254 502.642 170.55H486.893C486.203 155.476 482.268 140.729 475.357 127.315L489.401 119.24C492.107 121.577 495.556 122.875 499.131 122.901C501.756 122.868 504.327 122.148 506.588 120.814C508.849 119.48 510.722 117.578 512.02 115.296C513.318 113.014 513.996 110.432 513.988 107.807C513.979 105.182 513.284 102.604 511.971 100.331C510.487 97.7465 508.269 95.6611 505.599 94.3389C502.928 93.0168 499.925 92.5175 496.97 92.9043C494.015 93.2911 491.242 94.5467 489.001 96.5117C486.761 98.4768 485.154 101.063 484.385 103.942C483.91 106.123 483.91 108.381 484.385 110.563L470.342 118.638C462.19 105.966 451.415 95.1909 438.743 87.0394L446.768 72.9956C447.66 73.1864 448.566 73.3038 449.477 73.3467C450.796 73.3283 452.108 73.16 453.389 72.8451C456.549 72.0461 459.365 70.2425 461.411 67.7055C463.458 65.1685 464.626 62.0355 464.739 58.7777C464.851 55.5199 463.903 52.3136 462.037 49.6412C460.17 46.9688 457.486 44.9748 454.389 43.9593C451.291 42.9437 447.948 42.9615 444.861 44.0099C441.775 45.0584 439.112 47.0808 437.274 49.7729C435.436 52.465 434.522 55.6812 434.669 58.9376C434.817 62.194 436.018 65.3144 438.091 67.8295L429.966 81.8231C416.495 74.9491 401.692 71.0816 386.581 70.4878V54.4879C391.309 53.2672 395.429 50.3639 398.17 46.3225C400.91 42.281 402.083 37.3787 401.468 32.5345C400.852 27.6904 398.492 23.2369 394.828 20.0089C391.164 16.7809 386.448 15 381.565 15C376.682 15 371.967 16.7809 368.303 20.0089C364.639 23.2369 362.278 27.6904 361.663 32.5345C361.047 37.3787 362.22 42.281 364.96 46.3225C367.701 50.3639 371.822 53.2672 376.55 54.4879V70.4878C361.491 71.1727 346.759 75.108 333.365 82.0237L325.24 68.0301C327.313 65.5151 328.514 62.3946 328.662 59.1382C328.809 55.8818 327.895 52.6656 326.057 49.9735C324.219 47.2814 321.556 45.259 318.47 44.2106C315.383 43.1621 312.04 43.1443 308.942 44.1599C305.845 45.1755 303.161 47.1695 301.294 49.8419C299.428 52.5143 298.48 55.7206 298.592 58.9783C298.705 62.2361 299.873 65.3692 301.92 67.9061C303.966 70.4431 306.782 72.2468 309.942 73.0458C311.223 73.3606 312.535 73.5289 313.854 73.5473C314.765 73.5044 315.671 73.387 316.563 73.1962L324.688 87.24C312.016 95.3915 301.241 106.167 293.09 118.838L279.046 110.362C279.521 108.181 279.521 105.923 279.046 103.741C278.399 101.356 277.175 99.166 275.482 97.3658C273.788 95.5656 271.677 94.2102 269.336 93.4196C266.994 92.629 264.493 92.4274 262.055 92.8327C259.617 93.238 257.316 94.2377 255.356 95.7434C253.396 97.2491 251.837 99.2144 250.817 101.466C249.797 103.717 249.347 106.185 249.507 108.651C249.667 111.118 250.433 113.507 251.736 115.607C253.038 117.708 254.839 119.455 256.977 120.694C259.251 122.003 261.827 122.695 264.45 122.7C268.026 122.675 271.475 121.377 274.181 119.039L288.224 127.114C281.216 140.573 277.212 155.393 276.488 170.55H260.488C259.267 165.822 256.364 161.701 252.322 158.96C248.281 156.22 243.379 155.047 238.535 155.663C233.69 156.278 229.237 158.639 226.009 162.303C222.781 165.967 221 170.682 221 175.565C221 180.448 222.781 185.164 226.009 188.828C229.237 192.492 233.69 194.852 238.535 195.468C243.379 196.083 248.281 194.91 252.322 192.17C256.364 189.429 259.267 185.309 260.488 180.581H276.488C277.178 195.654 281.113 210.402 288.024 223.815L274.03 231.891C271.515 229.817 268.395 228.616 265.138 228.469C261.882 228.321 258.666 229.235 255.974 231.073C253.281 232.911 251.259 235.574 250.211 238.661C249.162 241.747 249.144 245.091 250.16 248.188C251.175 251.286 253.169 253.969 255.842 255.836C258.514 257.703 261.721 258.651 264.978 258.538C268.236 258.425 271.369 257.258 273.906 255.211C276.443 253.164 278.247 250.349 279.046 247.188C279.521 245.007 279.521 242.749 279.046 240.568L293.09 232.493C301.241 245.164 312.016 255.939 324.688 264.091L316.362 278.085C314.181 277.609 311.923 277.609 309.741 278.085C306.581 278.884 303.766 280.687 301.719 283.224C299.672 285.761 298.504 288.894 298.392 292.152C298.279 295.41 299.227 298.616 301.094 301.288C302.96 303.961 305.644 305.955 308.742 306.97C311.839 307.986 315.183 307.968 318.269 306.92C321.356 305.871 324.018 303.849 325.856 301.157C327.694 298.465 328.608 295.248 328.461 291.992C328.314 288.736 327.113 285.615 325.039 283.1L333.164 269.107C346.599 276.137 361.404 280.159 376.55 280.893V296.893C371.822 298.114 367.701 301.017 364.96 305.059C362.22 309.1 361.047 314.002 361.663 318.847C362.278 323.691 364.639 328.144 368.303 331.372C371.967 334.6 376.682 336.381 381.565 336.381C386.448 336.381 391.164 334.6 394.828 331.372C398.492 328.144 400.852 323.691 401.468 318.847C402.083 314.002 400.91 309.1 398.17 305.059C395.429 301.017 391.309 298.114 386.581 296.893V280.893C401.639 280.208 416.371 276.273 429.765 269.357L437.891 283.351C435.817 285.866 434.616 288.986 434.469 292.243C434.321 295.499 435.235 298.715 437.073 301.408C438.911 304.1 441.574 306.122 444.661 307.171C447.747 308.219 451.091 308.237 454.188 307.221C457.286 306.206 459.969 304.212 461.836 301.539C463.703 298.867 464.651 295.661 464.538 292.403C464.425 289.145 463.258 286.012 461.211 283.475C459.164 280.938 456.349 279.134 453.188 278.335C451.007 277.86 448.749 277.86 446.568 278.335L438.442 264.342C451.114 256.19 461.889 245.415 470.041 232.743L484.085 240.768C483.609 242.95 483.609 245.208 484.085 247.389C484.884 250.549 486.687 253.365 489.224 255.411C491.761 257.458 494.894 258.626 498.152 258.739C501.41 258.851 504.616 257.903 507.288 256.037C509.961 254.17 511.955 251.486 512.97 248.389C513.986 245.291 513.968 241.948 512.92 238.861C511.871 235.775 509.849 233.112 507.157 231.274C504.465 229.436 501.248 228.522 497.992 228.669C494.736 228.817 491.615 230.018 489.1 232.091L475.107 224.016C482.132 210.561 486.154 195.742 486.893 180.581H502.893C503.835 184.227 505.784 187.534 508.517 190.124C511.25 192.715 514.657 194.484 518.349 195.229C522.04 195.974 525.866 195.665 529.39 194.337C532.914 193.01 535.993 190.718 538.276 187.722C540.558 184.727 541.951 181.15 542.296 177.4C542.641 173.651 541.924 169.879 540.226 166.518C538.528 163.157 535.919 160.341 532.696 158.393C529.474 156.445 525.768 155.443 522.003 155.503ZM494.015 106.55C494.231 105.753 494.64 105.021 495.206 104.42C495.772 103.819 496.478 103.367 497.26 103.104C498.043 102.841 498.878 102.776 499.693 102.913C500.507 103.051 501.274 103.387 501.927 103.892C502.58 104.398 503.098 105.056 503.436 105.81C503.773 106.564 503.919 107.389 503.861 108.213C503.802 109.036 503.542 109.833 503.102 110.531C502.662 111.23 502.056 111.809 501.338 112.218C500.187 112.872 498.823 113.044 497.545 112.696C496.267 112.348 495.179 111.509 494.517 110.362C494.187 109.791 493.973 109.16 493.887 108.506C493.8 107.852 493.844 107.187 494.015 106.55ZM444.913 55.792C445.321 55.0744 445.9 54.4687 446.599 54.0287C447.298 53.5887 448.094 53.328 448.918 53.2698C449.741 53.2115 450.567 53.3575 451.32 53.6947C452.074 54.032 452.733 54.5501 453.238 55.203C453.743 55.856 454.08 56.6236 454.217 57.4377C454.355 58.2519 454.289 59.0874 454.026 59.8701C453.763 60.6528 453.311 61.3585 452.71 61.9245C452.109 62.4905 451.377 62.8994 450.58 63.1148C449.943 63.286 449.278 63.3298 448.624 63.2438C447.97 63.1577 447.339 62.9434 446.768 62.6133C445.621 61.9516 444.782 60.8631 444.434 59.5851C444.087 58.3072 444.259 56.9437 444.913 55.792ZM312.55 63.1148C311.753 62.8994 311.021 62.4905 310.42 61.9245C309.819 61.3585 309.367 60.6528 309.104 59.8701C308.841 59.0874 308.776 58.2519 308.913 57.4377C309.051 56.6236 309.387 55.856 309.892 55.203C310.398 54.5501 311.056 54.032 311.81 53.6947C312.564 53.3575 313.389 53.2115 314.213 53.2698C315.036 53.328 315.833 53.5887 316.531 54.0287C317.23 54.4687 317.809 55.0744 318.218 55.792C318.872 56.9437 319.044 58.3072 318.696 59.5851C318.348 60.8631 317.509 61.9516 316.362 62.6133C315.791 62.9434 315.16 63.1577 314.506 63.2438C313.852 63.3298 313.187 63.286 312.55 63.1148ZM261.792 112.218C261.074 111.809 260.469 111.23 260.029 110.531C259.589 109.833 259.328 109.036 259.27 108.213C259.212 107.389 259.357 106.564 259.695 105.81C260.032 105.056 260.55 104.398 261.203 103.892C261.856 103.387 262.624 103.051 263.438 102.913C264.252 102.776 265.087 102.841 265.87 103.104C266.653 103.367 267.358 103.819 267.925 104.42C268.491 105.021 268.899 105.753 269.115 106.55C269.286 107.187 269.33 107.852 269.244 108.506C269.158 109.16 268.943 109.791 268.613 110.362C267.952 111.509 266.863 112.348 265.585 112.696C264.307 113.044 262.944 112.872 261.792 112.218ZM269.115 244.58C268.899 245.377 268.491 246.109 267.925 246.71C267.358 247.311 266.653 247.763 265.87 248.026C265.087 248.289 264.252 248.355 263.438 248.217C262.624 248.08 261.856 247.743 261.203 247.238C260.55 246.733 260.032 246.074 259.695 245.32C259.357 244.567 259.212 243.741 259.27 242.918C259.328 242.094 259.589 241.298 260.029 240.599C260.469 239.9 261.074 239.321 261.792 238.913C262.944 238.259 264.307 238.087 265.585 238.434C266.863 238.782 267.952 239.621 268.613 240.768C268.943 241.339 269.158 241.97 269.244 242.624C269.33 243.278 269.286 243.943 269.115 244.58ZM318.218 295.338C317.809 296.056 317.23 296.662 316.531 297.102C315.833 297.542 315.036 297.802 314.213 297.861C313.389 297.919 312.564 297.773 311.81 297.436C311.056 297.098 310.398 296.58 309.892 295.927C309.387 295.274 309.051 294.507 308.913 293.693C308.776 292.878 308.841 292.043 309.104 291.26C309.367 290.478 309.819 289.772 310.42 289.206C311.021 288.64 311.753 288.231 312.55 288.015C312.982 287.943 313.423 287.943 313.854 288.015C314.736 288.012 315.604 288.241 316.369 288.68C317.134 289.119 317.77 289.752 318.213 290.515C318.655 291.278 318.889 292.144 318.89 293.026C318.891 293.908 318.659 294.775 318.218 295.539V295.338ZM450.58 288.015C451.377 288.231 452.109 288.64 452.71 289.206C453.311 289.772 453.763 290.478 454.026 291.26C454.289 292.043 454.355 292.878 454.217 293.693C454.08 294.507 453.743 295.274 453.238 295.927C452.733 296.58 452.074 297.098 451.32 297.436C450.567 297.773 449.741 297.919 448.918 297.861C448.094 297.802 447.298 297.542 446.599 297.102C445.9 296.662 445.321 296.056 444.913 295.338C444.259 294.187 444.087 292.823 444.434 291.545C444.782 290.267 445.621 289.179 446.768 288.517C447.528 288.066 448.393 287.824 449.276 287.815C449.719 287.807 450.16 287.875 450.58 288.015ZM498.831 238.26C499.709 238.254 500.574 238.479 501.338 238.913C502.056 239.321 502.662 239.9 503.102 240.599C503.542 241.298 503.802 242.094 503.861 242.918C503.919 243.741 503.773 244.567 503.436 245.32C503.098 246.074 502.58 246.733 501.927 247.238C501.274 247.743 500.507 248.08 499.693 248.217C498.878 248.355 498.043 248.289 497.26 248.026C496.478 247.763 495.772 247.311 495.206 246.71C494.64 246.109 494.231 245.377 494.015 244.58C493.844 243.943 493.8 243.278 493.887 242.624C493.973 241.97 494.187 241.339 494.517 240.768C494.955 240.01 495.583 239.38 496.34 238.94C497.097 238.5 497.955 238.266 498.831 238.26ZM371.534 35.1276C371.534 33.1436 372.122 31.2042 373.224 29.5546C374.327 27.9049 375.893 26.6192 377.726 25.86C379.559 25.1007 381.576 24.9021 383.522 25.2891C385.468 25.6762 387.255 26.6316 388.658 28.0345C390.061 29.4374 391.017 31.2248 391.404 33.1706C391.791 35.1165 391.592 37.1334 390.833 38.9664C390.074 40.7994 388.788 42.3661 387.138 43.4683C385.489 44.5706 383.549 45.1589 381.565 45.1589C378.905 45.1589 376.353 44.102 374.472 42.2208C372.591 40.3396 371.534 37.7881 371.534 35.1276ZM241.128 185.596C239.144 185.596 237.204 185.008 235.555 183.906C233.905 182.804 232.619 181.237 231.86 179.404C231.101 177.571 230.902 175.554 231.289 173.608C231.676 171.662 232.632 169.875 234.034 168.472C235.437 167.069 237.225 166.114 239.171 165.727C241.116 165.34 243.133 165.538 244.966 166.297C246.799 167.057 248.366 168.342 249.468 169.992C250.571 171.642 251.159 173.581 251.159 175.565C251.159 178.226 250.102 180.777 248.221 182.658C246.34 184.54 243.788 185.596 241.128 185.596ZM391.596 316.003C391.596 317.987 391.008 319.926 389.906 321.576C388.804 323.225 387.237 324.511 385.404 325.27C383.571 326.03 381.554 326.228 379.608 325.841C377.662 325.454 375.875 324.499 374.472 323.096C373.069 321.693 372.114 319.906 371.727 317.96C371.34 316.014 371.538 313.997 372.297 312.164C373.057 310.331 374.342 308.764 375.992 307.662C377.642 306.56 379.581 305.971 381.565 305.971C384.226 305.971 386.777 307.028 388.658 308.91C390.54 310.791 391.596 313.342 391.596 316.003ZM433.427 255.414L428.411 246.887C427.746 245.73 426.648 244.884 425.36 244.536C424.071 244.188 422.697 244.366 421.54 245.032C420.382 245.697 419.537 246.794 419.189 248.083C418.841 249.372 419.019 250.746 419.684 251.903L424.7 260.379C411.347 267.268 396.54 270.862 381.515 270.862C366.49 270.862 351.683 267.268 338.33 260.379L343.346 251.903C344.011 250.746 344.189 249.372 343.841 248.083C343.493 246.794 342.648 245.697 341.49 245.032C340.333 244.366 338.959 244.188 337.67 244.536C336.382 244.884 335.284 245.73 334.619 246.887L329.603 255.414C317.037 247.213 306.586 236.161 299.099 223.157C291.612 210.153 287.302 195.565 286.519 180.581H296.3C297.63 180.581 298.905 180.052 299.846 179.112C300.787 178.171 301.315 176.895 301.315 175.565C301.315 174.235 300.787 172.959 299.846 172.019C298.905 171.078 297.63 170.55 296.3 170.55H286.519C287.313 155.556 291.639 140.962 299.143 127.958C306.648 114.953 317.119 103.906 329.704 95.7164L334.719 104.243C335.051 104.813 335.492 105.313 336.018 105.713C336.543 106.112 337.142 106.404 337.78 106.572C338.418 106.74 339.084 106.78 339.738 106.69C340.391 106.6 341.021 106.382 341.591 106.049C342.738 105.387 343.577 104.298 343.924 103.02C344.272 101.743 344.1 100.379 343.446 99.2273L338.431 90.7509C351.784 83.8625 366.59 80.2683 381.615 80.2683C396.64 80.2683 411.447 83.8625 424.8 90.7509L419.784 99.2273C419.134 100.385 418.97 101.753 419.327 103.032C419.685 104.31 420.534 105.395 421.69 106.049C422.26 106.382 422.889 106.6 423.543 106.69C424.197 106.78 424.862 106.74 425.501 106.572C426.139 106.404 426.738 106.112 427.263 105.713C427.789 105.313 428.23 104.813 428.562 104.243L433.577 95.7164C446.18 103.895 456.671 114.937 464.193 127.942C471.716 140.948 476.057 155.547 476.862 170.55H466.831C465.501 170.55 464.225 171.078 463.284 172.019C462.344 172.959 461.815 174.235 461.815 175.565C461.815 176.895 462.344 178.171 463.284 179.112C464.225 180.052 465.501 180.581 466.831 180.581H476.862C476.04 195.597 471.676 210.205 464.127 223.211C456.578 236.217 446.058 247.252 433.427 255.414ZM522.003 185.596C520.019 185.596 518.079 185.008 516.43 183.906C514.78 182.804 513.494 181.237 512.735 179.404C511.976 177.571 511.777 175.554 512.164 173.608C512.551 171.662 513.507 169.875 514.91 168.472C516.312 167.069 518.1 166.114 520.046 165.727C521.992 165.34 524.009 165.538 525.841 166.297C527.674 167.057 529.241 168.342 530.343 169.992C531.446 171.642 532.034 173.581 532.034 175.565C532.034 178.226 530.977 180.777 529.096 182.658C527.215 184.54 524.663 185.596 522.003 185.596Z" fill="#FF4D79"/>
<path d="M364.004 120.396C359.54 120.396 355.176 121.72 351.465 124.2C347.753 126.68 344.86 130.205 343.152 134.33C341.443 138.454 340.996 142.992 341.867 147.37C342.738 151.748 344.888 155.77 348.044 158.926C351.201 162.083 355.222 164.233 359.601 165.103C363.979 165.974 368.517 165.527 372.641 163.819C376.765 162.111 380.29 159.218 382.77 155.506C385.25 151.795 386.574 147.431 386.574 142.967C386.561 136.985 384.179 131.252 379.949 127.022C375.719 122.792 369.986 120.41 364.004 120.396ZM364.004 155.506C361.524 155.506 359.1 154.77 357.038 153.393C354.976 152.015 353.368 150.057 352.419 147.765C351.47 145.474 351.222 142.953 351.706 140.521C352.19 138.088 353.384 135.854 355.137 134.1C356.891 132.347 359.125 131.152 361.558 130.669C363.99 130.185 366.511 130.433 368.802 131.382C371.094 132.331 373.052 133.938 374.43 136C375.808 138.063 376.543 140.487 376.543 142.967C376.543 146.292 375.222 149.482 372.87 151.833C370.519 154.185 367.329 155.506 364.004 155.506Z" fill="#FF4D79"/>
<path d="M401.621 195.631C397.653 195.631 393.774 196.808 390.475 199.012C387.176 201.216 384.604 204.35 383.086 208.016C381.567 211.682 381.17 215.716 381.944 219.607C382.718 223.499 384.629 227.074 387.435 229.88C390.241 232.685 393.815 234.596 397.707 235.37C401.599 236.144 405.633 235.747 409.299 234.229C412.965 232.71 416.098 230.139 418.302 226.839C420.507 223.54 421.684 219.661 421.684 215.693C421.684 210.372 419.57 205.269 415.807 201.507C412.045 197.745 406.942 195.631 401.621 195.631ZM401.621 225.725C399.637 225.725 397.698 225.136 396.048 224.034C394.398 222.932 393.113 221.365 392.353 219.532C391.594 217.699 391.396 215.682 391.783 213.736C392.17 211.79 393.125 210.003 394.528 208.6C395.931 207.197 397.718 206.242 399.664 205.855C401.61 205.468 403.627 205.666 405.46 206.426C407.293 207.185 408.86 208.471 409.962 210.12C411.064 211.77 411.652 213.709 411.652 215.693C411.652 218.354 410.595 220.905 408.714 222.787C406.833 224.668 404.282 225.725 401.621 225.725Z" fill="#FF4D79"/>
<path d="M424.191 135.443C420.719 135.443 417.325 136.473 414.439 138.402C411.552 140.331 409.302 143.072 407.973 146.28C406.644 149.488 406.297 153.018 406.974 156.423C407.651 159.828 409.323 162.956 411.778 165.411C414.233 167.866 417.361 169.538 420.767 170.215C424.172 170.893 427.702 170.545 430.909 169.216C434.117 167.888 436.859 165.638 438.788 162.751C440.717 159.864 441.746 156.47 441.746 152.998C441.746 148.342 439.897 143.877 436.604 140.585C433.312 137.293 428.847 135.443 424.191 135.443ZM424.191 160.521C422.703 160.521 421.249 160.08 420.012 159.254C418.774 158.427 417.81 157.252 417.241 155.877C416.671 154.502 416.522 152.99 416.813 151.53C417.103 150.071 417.819 148.73 418.872 147.678C419.924 146.626 421.264 145.909 422.724 145.619C424.183 145.329 425.696 145.478 427.07 146.047C428.445 146.617 429.62 147.581 430.447 148.818C431.274 150.055 431.715 151.51 431.715 152.998C431.715 154.993 430.922 156.907 429.511 158.318C428.1 159.729 426.187 160.521 424.191 160.521Z" fill="#FF4D79"/>
<path d="M336.418 180.584C333.442 180.584 330.533 181.466 328.058 183.12C325.584 184.773 323.655 187.123 322.516 189.873C321.378 192.622 321.08 195.648 321.66 198.566C322.241 201.485 323.674 204.166 325.778 206.271C327.883 208.375 330.564 209.808 333.482 210.389C336.401 210.969 339.427 210.671 342.176 209.532C344.926 208.393 347.276 206.465 348.929 203.99C350.582 201.516 351.465 198.607 351.465 195.631C351.465 191.64 349.88 187.813 347.058 184.991C344.236 182.169 340.409 180.584 336.418 180.584ZM336.418 200.646C335.426 200.646 334.456 200.352 333.631 199.801C332.807 199.25 332.164 198.467 331.784 197.55C331.405 196.634 331.305 195.625 331.499 194.652C331.692 193.679 332.17 192.786 332.871 192.084C333.573 191.383 334.467 190.905 335.439 190.712C336.412 190.518 337.421 190.617 338.337 190.997C339.254 191.377 340.037 192.02 340.588 192.844C341.139 193.669 341.434 194.639 341.434 195.631C341.434 196.961 340.905 198.237 339.965 199.177C339.024 200.118 337.748 200.646 336.418 200.646Z" fill="#FF4D79"/>
<path d="M174.279 46.3416C172.816 46.3463 171.395 46.836 170.24 47.734C169.084 48.632 168.259 49.8876 167.893 51.3045H162.699C162.471 46.3328 161.173 41.4687 158.894 37.0445L163.526 34.3811C164.418 35.1521 165.556 35.5803 166.735 35.5887C167.601 35.5778 168.449 35.3405 169.195 34.9004C169.94 34.4604 170.558 33.8329 170.986 33.0802C171.414 32.3276 171.638 31.4761 171.635 30.6102C171.633 29.7443 171.403 28.8942 170.97 28.1444C170.481 27.292 169.749 26.6042 168.868 26.1681C167.987 25.7321 166.997 25.5674 166.022 25.695C165.048 25.8225 164.133 26.2366 163.394 26.8848C162.655 27.5329 162.125 28.3859 161.872 29.3355C161.715 30.0549 161.715 30.7997 161.872 31.5192L157.24 34.1826C154.551 30.0031 150.997 26.4491 146.818 23.7605L149.465 19.1285C149.759 19.1914 150.057 19.2302 150.358 19.2443C150.793 19.2383 151.226 19.1828 151.648 19.0789C152.691 18.8154 153.619 18.2205 154.294 17.3837C154.969 16.5469 155.354 15.5136 155.392 14.4391C155.429 13.3646 155.116 12.3071 154.5 11.4256C153.885 10.5442 153 9.88651 151.978 9.55155C150.956 9.21659 149.853 9.22245 148.835 9.56826C147.817 9.91407 146.939 10.5811 146.333 11.469C145.727 12.357 145.425 13.4178 145.474 14.4918C145.523 15.5659 145.919 16.5951 146.603 17.4246L143.923 22.0401C139.48 19.7728 134.597 18.4972 129.613 18.3014V13.0242C131.172 12.6216 132.532 11.664 133.435 10.331C134.339 8.99801 134.726 7.3811 134.523 5.78337C134.32 4.18563 133.542 2.71676 132.333 1.65207C131.125 0.587393 129.569 0 127.959 0C126.348 0 124.793 0.587393 123.584 1.65207C122.376 2.71676 121.597 4.18563 121.394 5.78337C121.191 7.3811 121.578 8.99801 122.482 10.331C123.386 11.664 124.745 12.6216 126.304 13.0242V18.3014C121.338 18.5273 116.479 19.8253 112.061 22.1062L109.381 17.4908C110.065 16.6612 110.461 15.632 110.51 14.558C110.558 13.4839 110.257 12.4231 109.651 11.5352C109.044 10.6473 108.166 9.98024 107.148 9.63443C106.13 9.28863 105.027 9.28276 104.006 9.61772C102.984 9.95269 102.099 10.6104 101.483 11.4918C100.868 12.3732 100.555 13.4307 100.592 14.5052C100.629 15.5797 101.014 16.6131 101.689 17.4499C102.365 18.2866 103.293 18.8815 104.335 19.1451C104.758 19.2489 105.191 19.3044 105.626 19.3105C105.926 19.2963 106.225 19.2576 106.519 19.1947L109.199 23.8267C105.02 26.5153 101.466 30.0693 98.7771 34.2487L94.1451 31.453C94.3018 30.7335 94.3018 29.9888 94.1451 29.2693C93.9319 28.4825 93.5282 27.7602 92.9696 27.1665C92.411 26.5727 91.7148 26.1257 90.9424 25.8649C90.17 25.6042 89.3453 25.5377 88.5411 25.6713C87.7369 25.805 86.978 26.1347 86.3315 26.6314C85.6851 27.128 85.1709 27.7762 84.8344 28.5187C84.4979 29.2613 84.3496 30.0753 84.4024 30.8888C84.4553 31.7023 84.7077 32.4902 85.1374 33.183C85.5671 33.8758 86.1609 34.452 86.8662 34.8608C87.6161 35.2925 88.4658 35.5206 89.3311 35.5225C90.5104 35.5141 91.6481 35.086 92.5404 34.3149L97.1724 36.9783C94.8609 41.4174 93.5401 46.3053 93.3014 51.3045H88.0242C87.6216 49.745 86.664 48.386 85.331 47.482C83.998 46.5781 82.3811 46.1914 80.7834 46.3943C79.1856 46.5973 77.7168 47.3759 76.6521 48.5844C75.5874 49.7929 75 51.3482 75 52.9587C75 54.5693 75.5874 56.1246 76.6521 57.3331C77.7168 58.5415 79.1856 59.3202 80.7834 59.5232C82.3811 59.7261 83.998 59.3394 85.331 58.4354C86.664 57.5315 87.6216 56.1725 88.0242 54.613H93.3014C93.5291 59.5847 94.8269 64.4487 97.1062 68.873L92.4908 71.5364C91.6612 70.8524 90.632 70.4564 89.558 70.4078C88.4839 70.3591 87.4231 70.6606 86.5352 71.2669C85.6473 71.8731 84.9802 72.7513 84.6344 73.7693C84.2886 74.7873 84.2828 75.8901 84.6177 76.9117C84.9527 77.9334 85.6104 78.8186 86.4918 79.4342C87.3732 80.0499 88.4307 80.3626 89.5052 80.3254C90.5797 80.2883 91.6131 79.9031 92.4499 79.228C93.2866 78.5529 93.8815 77.6243 94.1451 76.582C94.3018 75.8625 94.3018 75.1178 94.1451 74.3983L98.7771 71.7349C101.466 75.9144 105.02 79.4684 109.199 82.157L106.453 86.7724C105.734 86.6157 104.989 86.6157 104.269 86.7724C103.227 87.0359 102.298 87.6308 101.623 88.4676C100.948 89.3044 100.563 90.3377 100.526 91.4122C100.489 92.4867 100.801 93.5443 101.417 94.4257C102.033 95.3071 102.918 95.9648 103.94 96.2998C104.961 96.6347 106.064 96.6289 107.082 96.2831C108.1 95.9372 108.978 95.2702 109.584 94.3823C110.191 93.4943 110.492 92.4335 110.444 91.3595C110.395 90.2855 109.999 89.2562 109.315 88.4267L111.995 83.8112C116.426 86.1302 121.309 87.4568 126.304 87.6988V92.976C124.745 93.3786 123.386 94.3362 122.482 95.6692C121.578 97.0022 121.191 98.6191 121.394 100.217C121.597 101.815 122.376 103.283 123.584 104.348C124.793 105.413 126.348 106 127.959 106C129.569 106 131.125 105.413 132.333 104.348C133.542 103.283 134.32 101.815 134.523 100.217C134.726 98.6191 134.339 97.0022 133.435 95.6692C132.532 94.3362 131.172 93.3786 129.613 92.976V87.6988C134.58 87.4729 139.439 86.1749 143.856 83.894L146.536 88.5094C145.852 89.339 145.456 90.3682 145.408 91.4422C145.359 92.5163 145.661 93.577 146.267 94.465C146.873 95.3529 147.751 96.02 148.769 96.3658C149.787 96.7116 150.89 96.7174 151.912 96.3825C152.933 96.0475 153.819 95.3898 154.434 94.5084C155.05 93.627 155.363 92.5695 155.325 91.495C155.288 90.4205 154.903 89.3871 154.228 88.5503C153.553 87.7136 152.624 87.1187 151.582 86.8551C150.863 86.6984 150.118 86.6984 149.398 86.8551L146.718 82.2397C150.898 79.5511 154.452 75.9971 157.14 71.8176L161.772 74.4645C161.616 75.184 161.616 75.9287 161.772 76.6482C162.036 77.6905 162.631 78.6191 163.468 79.2942C164.304 79.9693 165.338 80.3544 166.412 80.3916C167.487 80.4288 168.544 80.1161 169.426 79.5004C170.307 78.8848 170.965 77.9995 171.3 76.9779C171.635 75.9563 171.629 74.8535 171.283 73.8355C170.937 72.8175 170.27 71.9393 169.382 71.333C168.494 70.7268 167.434 70.4253 166.36 70.4739C165.285 70.5225 164.256 70.9186 163.427 71.6026L158.811 68.9392C161.129 64.5014 162.455 59.6135 162.699 54.613H167.976C168.287 55.8156 168.929 56.9064 169.831 57.7608C170.732 58.6151 171.856 59.1985 173.074 59.4443C174.291 59.69 175.553 59.5881 176.715 59.1503C177.878 58.7125 178.893 57.9564 179.646 56.9685C180.399 55.9806 180.858 54.8008 180.972 53.564C181.086 52.3272 180.849 51.0834 180.289 49.9748C179.729 48.8661 178.869 47.9374 177.806 47.2949C176.743 46.6524 175.521 46.3221 174.279 46.3416ZM165.048 30.1957C165.119 29.9328 165.254 29.6915 165.441 29.4933C165.627 29.295 165.86 29.1459 166.118 29.0592C166.376 28.9724 166.652 28.9508 166.92 28.9961C167.189 29.0415 167.442 29.1524 167.657 29.3191C167.873 29.4858 168.044 29.7031 168.155 29.9516C168.266 30.2002 168.314 30.4724 168.295 30.7441C168.276 31.0157 168.19 31.2784 168.045 31.5089C167.9 31.7393 167.7 31.9304 167.463 32.0651C167.083 32.2807 166.634 32.3374 166.212 32.2228C165.791 32.1081 165.432 31.8314 165.213 31.453C165.104 31.2646 165.034 31.0566 165.005 30.8408C164.977 30.6251 164.991 30.4059 165.048 30.1957ZM148.852 13.4543C148.987 13.2176 149.178 13.0179 149.409 12.8727C149.639 12.7276 149.902 12.6416 150.173 12.6224C150.445 12.6032 150.717 12.6513 150.966 12.7626C151.214 12.8738 151.432 13.0447 151.598 13.26C151.765 13.4754 151.876 13.7286 151.921 13.9971C151.967 14.2656 151.945 14.5412 151.858 14.7994C151.772 15.0575 151.623 15.2903 151.424 15.477C151.226 15.6637 150.985 15.7985 150.722 15.8696C150.512 15.926 150.292 15.9405 150.077 15.9121C149.861 15.8837 149.653 15.813 149.465 15.7041C149.086 15.4859 148.809 15.1269 148.695 14.7054C148.58 14.2839 148.637 13.8342 148.852 13.4543ZM105.196 15.8696C104.933 15.7985 104.692 15.6637 104.493 15.477C104.295 15.2903 104.146 15.0575 104.059 14.7994C103.972 14.5412 103.951 14.2656 103.996 13.9971C104.041 13.7286 104.152 13.4754 104.319 13.26C104.486 13.0447 104.703 12.8738 104.952 12.7626C105.2 12.6513 105.472 12.6032 105.744 12.6224C106.016 12.6416 106.278 12.7276 106.509 12.8727C106.739 13.0179 106.93 13.2176 107.065 13.4543C107.281 13.8342 107.337 14.2839 107.223 14.7054C107.108 15.1269 106.831 15.4859 106.453 15.7041C106.265 15.813 106.057 15.8837 105.841 15.9121C105.625 15.9405 105.406 15.926 105.196 15.8696ZM88.4543 32.0651C88.2176 31.9304 88.0179 31.7393 87.8727 31.5089C87.7276 31.2784 87.6416 31.0157 87.6224 30.7441C87.6032 30.4724 87.6513 30.2002 87.7626 29.9516C87.8738 29.7031 88.0447 29.4858 88.26 29.3191C88.4754 29.1524 88.7286 29.0415 88.9971 28.9961C89.2656 28.9508 89.5412 28.9724 89.7994 29.0592C90.0575 29.1459 90.2903 29.295 90.477 29.4933C90.6637 29.6915 90.7985 29.9328 90.8696 30.1957C90.926 30.4059 90.9405 30.6251 90.9121 30.8408C90.8837 31.0566 90.8131 31.2646 90.7041 31.453C90.4859 31.8314 90.1269 32.1081 89.7054 32.2228C89.2839 32.3374 88.8342 32.2807 88.4543 32.0651ZM90.8696 75.7218C90.7985 75.9847 90.6637 76.226 90.477 76.4242C90.2903 76.6225 90.0575 76.7716 89.7994 76.8583C89.5412 76.9451 89.2656 76.9667 88.9971 76.9214C88.7286 76.876 88.4754 76.7651 88.26 76.5984C88.0447 76.4317 87.8738 76.2144 87.7626 75.9659C87.6513 75.7173 87.6032 75.4451 87.6224 75.1734C87.6416 74.9018 87.7276 74.6391 87.8727 74.4086C88.0179 74.1782 88.2176 73.9871 88.4543 73.8524C88.8342 73.6367 89.2839 73.5801 89.7054 73.6947C90.1269 73.8094 90.4859 74.0861 90.7041 74.4645C90.8131 74.6529 90.8837 74.8609 90.9121 75.0767C90.9405 75.2924 90.926 75.5116 90.8696 75.7218ZM107.065 92.4632C106.93 92.6999 106.739 92.8996 106.509 93.0448C106.278 93.1899 106.016 93.2759 105.744 93.2951C105.472 93.3143 105.2 93.2662 104.952 93.1549C104.703 93.0437 104.486 92.8728 104.319 92.6574C104.152 92.4421 104.041 92.1889 103.996 91.9204C103.951 91.6518 103.972 91.3763 104.059 91.1181C104.146 90.86 104.295 90.6272 104.493 90.4405C104.692 90.2538 104.933 90.119 105.196 90.0479C105.338 90.0238 105.483 90.0238 105.626 90.0479C105.917 90.0468 106.203 90.1224 106.455 90.2671C106.708 90.4118 106.917 90.6205 107.063 90.8722C107.209 91.1239 107.286 91.4096 107.287 91.7006C107.287 91.9915 107.211 92.2774 107.065 92.5293V92.4632ZM150.722 90.0479C150.985 90.119 151.226 90.2538 151.424 90.4405C151.623 90.6272 151.772 90.86 151.858 91.1181C151.945 91.3763 151.967 91.6518 151.921 91.9204C151.876 92.1889 151.765 92.4421 151.598 92.6574C151.432 92.8728 151.214 93.0437 150.966 93.1549C150.717 93.2662 150.445 93.3143 150.173 93.2951C149.902 93.2759 149.639 93.1899 149.409 93.0448C149.178 92.8996 148.987 92.6999 148.852 92.4632C148.637 92.0833 148.58 91.6336 148.695 91.2121C148.809 90.7906 149.086 90.4316 149.465 90.2133C149.715 90.0647 150 89.9848 150.292 89.9817C150.438 89.9793 150.583 90.0017 150.722 90.0479ZM166.636 73.6374C166.926 73.6354 167.211 73.7095 167.463 73.8524C167.7 73.9871 167.9 74.1782 168.045 74.4086C168.19 74.6391 168.276 74.9018 168.295 75.1734C168.314 75.4451 168.266 75.7173 168.155 75.9659C168.044 76.2144 167.873 76.4317 167.657 76.5984C167.442 76.7651 167.189 76.876 166.92 76.9214C166.652 76.9667 166.376 76.9451 166.118 76.8583C165.86 76.7716 165.627 76.6225 165.441 76.4242C165.254 76.226 165.119 75.9847 165.048 75.7218C164.991 75.5116 164.977 75.2924 165.005 75.0767C165.034 74.8609 165.104 74.6529 165.213 74.4645C165.358 74.2145 165.565 74.0066 165.815 73.8615C166.064 73.7164 166.347 73.6391 166.636 73.6374ZM124.65 6.63864C124.65 5.98426 124.844 5.34458 125.208 4.80049C125.571 4.25639 126.088 3.83233 126.693 3.58191C127.297 3.33149 127.962 3.26597 128.604 3.39363C129.246 3.52129 129.836 3.8364 130.298 4.29912C130.761 4.76183 131.076 5.35136 131.204 5.99316C131.331 6.63497 131.266 7.30021 131.015 7.90477C130.765 8.50934 130.341 9.02607 129.797 9.38962C129.253 9.75317 128.613 9.94722 127.959 9.94722C127.081 9.94722 126.24 9.59863 125.619 8.97816C124.999 8.35768 124.65 7.51613 124.65 6.63864ZM81.6386 56.2673C80.9843 56.2673 80.3446 56.0733 79.8005 55.7097C79.2564 55.3462 78.8323 54.8294 78.5819 54.2249C78.3315 53.6203 78.266 52.9551 78.3936 52.3133C78.5213 51.6715 78.8364 51.0819 79.2991 50.6192C79.7618 50.1565 80.3514 49.8414 80.9932 49.7137C81.635 49.5861 82.3002 49.6516 82.9048 49.902C83.5093 50.1524 84.0261 50.5765 84.3896 51.1206C84.7532 51.6647 84.9472 52.3044 84.9472 52.9587C84.9472 53.8362 84.5986 54.6778 83.9782 55.2983C83.3577 55.9187 82.5161 56.2673 81.6386 56.2673ZM131.267 99.2788C131.267 99.9332 131.073 100.573 130.71 101.117C130.346 101.661 129.829 102.085 129.225 102.336C128.62 102.586 127.955 102.652 127.313 102.524C126.671 102.396 126.082 102.081 125.619 101.618C125.157 101.156 124.841 100.566 124.714 99.9243C124.586 99.2825 124.652 98.6173 124.902 98.0127C125.152 97.4081 125.577 96.8914 126.121 96.5279C126.665 96.1643 127.304 95.9703 127.959 95.9703C128.836 95.9703 129.678 96.3188 130.298 96.9393C130.919 97.5598 131.267 98.4014 131.267 99.2788ZM145.064 79.295L143.41 76.4827C143.19 76.101 142.828 75.8221 142.403 75.7073C141.978 75.5925 141.525 75.6513 141.143 75.8707C140.762 76.09 140.483 76.452 140.368 76.8771C140.253 77.3021 140.312 77.7553 140.531 78.137L142.186 80.9328C137.782 83.2048 132.898 84.3902 127.942 84.3902C122.987 84.3902 118.103 83.2048 113.699 80.9328L115.353 78.137C115.572 77.7553 115.631 77.3021 115.516 76.8771C115.402 76.452 115.123 76.09 114.741 75.8707C114.359 75.6513 113.906 75.5925 113.481 75.7073C113.056 75.8221 112.694 76.101 112.475 76.4827L110.82 79.295C106.676 76.5902 103.229 72.9449 100.759 68.6559C98.2898 64.3669 96.8682 59.5554 96.61 54.613H99.8358C100.275 54.613 100.695 54.4387 101.006 54.1285C101.316 53.8183 101.49 53.3975 101.49 52.9587C101.49 52.52 101.316 52.0992 101.006 51.789C100.695 51.4787 100.275 51.3045 99.8358 51.3045H96.61C96.8719 46.3592 98.2986 41.5458 100.774 37.2565C103.249 32.9673 106.703 29.3236 110.853 26.6225L112.508 29.4347C112.617 29.6229 112.763 29.7877 112.936 29.9195C113.109 30.0513 113.307 30.1477 113.517 30.203C113.728 30.2583 113.947 30.2715 114.163 30.2419C114.379 30.2123 114.586 30.1404 114.774 30.0303C115.152 29.8121 115.429 29.453 115.544 29.0315C115.659 28.61 115.602 28.1603 115.386 27.7805L113.732 24.9847C118.136 22.7127 123.02 21.5273 127.975 21.5273C132.931 21.5273 137.815 22.7127 142.219 24.9847L140.564 27.7805C140.35 28.1623 140.296 28.6136 140.414 29.0353C140.532 29.457 140.812 29.8148 141.193 30.0303C141.381 30.1404 141.589 30.2123 141.804 30.2419C142.02 30.2715 142.239 30.2583 142.45 30.203C142.66 30.1477 142.858 30.0513 143.031 29.9195C143.204 29.7877 143.35 29.6229 143.459 29.4347L145.114 26.6225C149.271 29.3199 152.731 32.962 155.212 37.2514C157.693 41.5409 159.125 46.3562 159.39 51.3045H156.082C155.643 51.3045 155.222 51.4787 154.912 51.789C154.602 52.0992 154.427 52.52 154.427 52.9587C154.427 53.3975 154.602 53.8183 154.912 54.1285C155.222 54.4387 155.643 54.613 156.082 54.613H159.39C159.119 59.5657 157.68 64.3839 155.19 68.6737C152.7 72.9635 149.23 76.6031 145.064 79.295ZM174.279 56.2673C173.624 56.2673 172.985 56.0733 172.441 55.7097C171.897 55.3462 171.473 54.8294 171.222 54.2249C170.972 53.6203 170.906 52.9551 171.034 52.3133C171.162 51.6715 171.477 51.0819 171.939 50.6192C172.402 50.1565 172.992 49.8414 173.633 49.7137C174.275 49.5861 174.94 49.6516 175.545 49.902C176.15 50.1524 176.666 50.5765 177.03 51.1206C177.393 51.6647 177.587 52.3044 177.587 52.9587C177.587 53.8362 177.239 54.6778 176.618 55.2983C175.998 55.9187 175.156 56.2673 174.279 56.2673Z" fill="#525252"/>
<path d="M122.167 34.7637C120.695 34.7637 119.255 35.2003 118.031 36.0183C116.807 36.8363 115.853 37.9989 115.289 39.3592C114.726 40.7194 114.578 42.2162 114.866 43.6603C115.153 45.1043 115.862 46.4308 116.903 47.4719C117.944 48.513 119.271 49.222 120.715 49.5092C122.159 49.7965 123.656 49.6491 125.016 49.0856C126.376 48.5222 127.539 47.568 128.357 46.3438C129.175 45.1196 129.611 43.6803 129.611 42.208C129.607 40.235 128.821 38.344 127.426 36.9489C126.031 35.5538 124.14 34.768 122.167 34.7637ZM122.167 46.3437C121.349 46.3437 120.549 46.1011 119.869 45.6467C119.189 45.1923 118.659 44.5464 118.346 43.7906C118.033 43.0349 117.951 42.2034 118.111 41.4011C118.27 40.5989 118.664 39.862 119.243 39.2836C119.821 38.7052 120.558 38.3113 121.36 38.1517C122.162 37.9921 122.994 38.074 123.75 38.3871C124.505 38.7001 125.151 39.2302 125.606 39.9103C126.06 40.5904 126.303 41.39 126.303 42.208C126.303 43.3048 125.867 44.3568 125.091 45.1324C124.316 45.908 123.264 46.3437 122.167 46.3437Z" fill="#525252"/>
<path d="M134.574 59.5781C133.265 59.5781 131.986 59.9662 130.898 60.6933C129.81 61.4204 128.962 62.4539 128.461 63.663C127.96 64.8721 127.829 66.2026 128.084 67.4862C128.34 68.7698 128.97 69.9489 129.895 70.8743C130.821 71.7997 132 72.43 133.283 72.6853C134.567 72.9406 135.897 72.8096 137.106 72.3087C138.316 71.8079 139.349 70.9598 140.076 69.8716C140.803 68.7834 141.191 67.504 141.191 66.1953C141.191 64.4403 140.494 62.7572 139.253 61.5162C138.012 60.2753 136.329 59.5781 134.574 59.5781ZM134.574 69.5039C133.92 69.5039 133.28 69.3098 132.736 68.9463C132.192 68.5827 131.768 68.066 131.517 67.4614C131.267 66.8569 131.202 66.1916 131.329 65.5498C131.457 64.908 131.772 64.3185 132.235 63.8558C132.697 63.393 133.287 63.0779 133.929 62.9503C134.571 62.8226 135.236 62.8881 135.84 63.1386C136.445 63.389 136.962 63.813 137.325 64.3571C137.689 64.9012 137.883 65.5409 137.883 66.1953C137.883 67.0728 137.534 67.9143 136.914 68.5348C136.293 69.1553 135.452 69.5039 134.574 69.5039Z" fill="#525252"/>
<path d="M142.017 39.7246C140.871 39.7246 139.752 40.0642 138.8 40.7004C137.848 41.3366 137.106 42.2409 136.667 43.2989C136.229 44.3569 136.114 45.521 136.338 46.6442C136.561 47.7674 137.113 48.799 137.922 49.6088C138.732 50.4185 139.764 50.97 140.887 51.1934C142.01 51.4168 143.174 51.3021 144.232 50.8639C145.29 50.4257 146.195 49.6835 146.831 48.7314C147.467 47.7792 147.807 46.6598 147.807 45.5146C147.807 43.979 147.197 42.5063 146.111 41.4205C145.025 40.3346 143.552 39.7246 142.017 39.7246ZM142.017 47.9961C141.526 47.9961 141.046 47.8505 140.638 47.5779C140.23 47.3052 139.912 46.9176 139.724 46.4642C139.536 46.0108 139.487 45.5119 139.583 45.0305C139.679 44.5492 139.915 44.107 140.262 43.76C140.609 43.413 141.051 43.1766 141.532 43.0809C142.014 42.9851 142.513 43.0343 142.966 43.2221C143.42 43.4099 143.807 43.7279 144.08 44.136C144.352 44.5441 144.498 45.0238 144.498 45.5146C144.498 46.1727 144.237 46.8039 143.771 47.2693C143.306 47.7346 142.675 47.9961 142.017 47.9961Z" fill="#525252"/>
<path d="M113.068 54.6152C112.087 54.6152 111.127 54.9063 110.311 55.4516C109.495 55.997 108.859 56.7721 108.483 57.6789C108.108 58.5857 108.009 59.5836 108.201 60.5463C108.392 61.509 108.865 62.3933 109.559 63.0874C110.253 63.7814 111.137 64.2541 112.1 64.4456C113.063 64.6371 114.061 64.5388 114.968 64.1632C115.874 63.7876 116.649 63.1515 117.195 62.3353C117.74 61.5192 118.031 60.5597 118.031 59.5781C118.031 58.2619 117.508 56.9995 116.578 56.0688C115.647 55.1381 114.385 54.6152 113.068 54.6152ZM113.068 61.2324C112.741 61.2324 112.421 61.1354 112.149 60.9536C111.877 60.7718 111.665 60.5135 111.54 60.2112C111.415 59.9089 111.382 59.5763 111.446 59.2554C111.51 58.9345 111.667 58.6397 111.899 58.4083C112.13 58.177 112.425 58.0194 112.746 57.9556C113.067 57.8918 113.399 57.9245 113.701 58.0497C114.004 58.1749 114.262 58.387 114.444 58.659C114.626 58.9311 114.723 59.2509 114.723 59.5781C114.723 60.0168 114.548 60.4376 114.238 60.7479C113.928 61.0581 113.507 61.2324 113.068 61.2324Z" fill="#525252"/>
<path d="M556.639 351.171C555.908 351.173 555.198 351.418 554.62 351.867C554.042 352.316 553.63 352.944 553.447 353.652H550.849C550.736 351.166 550.087 348.734 548.947 346.522L551.263 345.191C551.709 345.576 552.278 345.79 552.868 345.794C553.301 345.789 553.724 345.67 554.097 345.45C554.47 345.23 554.779 344.916 554.993 344.54C555.207 344.164 555.319 343.738 555.318 343.305C555.316 342.872 555.202 342.447 554.985 342.072C554.74 341.646 554.375 341.302 553.934 341.084C553.494 340.866 552.998 340.784 552.511 340.847C552.024 340.911 551.567 341.118 551.197 341.442C550.828 341.766 550.563 342.193 550.436 342.668C550.357 343.027 550.357 343.4 550.436 343.76L548.12 345.091C546.776 343.002 544.999 341.225 542.909 339.88L544.232 337.564C544.379 337.596 544.529 337.615 544.679 337.622C544.896 337.619 545.113 337.591 545.324 337.539C545.845 337.408 546.31 337.11 546.647 336.692C546.985 336.273 547.177 335.757 547.196 335.22C547.214 334.682 547.058 334.154 546.75 333.713C546.442 333.272 546 332.943 545.489 332.776C544.978 332.608 544.427 332.611 543.918 332.784C543.409 332.957 542.97 333.291 542.667 333.735C542.363 334.178 542.213 334.709 542.237 335.246C542.261 335.783 542.459 336.298 542.801 336.712L541.461 339.02C539.24 337.886 536.799 337.249 534.307 337.151V334.512C535.086 334.311 535.766 333.832 536.218 333.165C536.67 332.499 536.863 331.691 536.762 330.892C536.66 330.093 536.271 329.358 535.667 328.826C535.062 328.294 534.285 328 533.479 328C532.674 328 531.896 328.294 531.292 328.826C530.688 329.358 530.299 330.093 530.197 330.892C530.096 331.691 530.289 332.499 530.741 333.165C531.193 333.832 531.873 334.311 532.652 334.512V337.151C530.169 337.264 527.739 337.913 525.531 339.053L524.191 336.745C524.533 336.331 524.731 335.816 524.755 335.279C524.779 334.742 524.628 334.212 524.325 333.768C524.022 333.324 523.583 332.99 523.074 332.817C522.565 332.644 522.014 332.641 521.503 332.809C520.992 332.976 520.549 333.305 520.242 333.746C519.934 334.187 519.777 334.715 519.796 335.253C519.815 335.79 520.007 336.307 520.345 336.725C520.682 337.143 521.147 337.441 521.668 337.573C521.879 337.624 522.095 337.652 522.313 337.655C522.463 337.648 522.613 337.629 522.76 337.597L524.1 339.913C522.01 341.258 520.233 343.035 518.889 345.124L516.573 343.726C516.651 343.367 516.651 342.994 516.573 342.635C516.466 342.241 516.264 341.88 515.985 341.583C515.706 341.286 515.357 341.063 514.971 340.932C514.585 340.802 514.173 340.769 513.771 340.836C513.368 340.903 512.989 341.067 512.666 341.316C512.343 341.564 512.085 341.888 511.917 342.259C511.749 342.631 511.675 343.038 511.701 343.444C511.728 343.851 511.854 344.245 512.069 344.592C512.284 344.938 512.58 345.226 512.933 345.43C513.308 345.646 513.733 345.76 514.166 345.761C514.755 345.757 515.324 345.543 515.77 345.157L518.086 346.489C516.93 348.709 516.27 351.153 516.151 353.652H513.512C513.311 352.873 512.832 352.193 512.165 351.741C511.499 351.289 510.691 351.096 509.892 351.197C509.093 351.299 508.358 351.688 507.826 352.292C507.294 352.896 507 353.674 507 354.479C507 355.285 507.294 356.062 507.826 356.667C508.358 357.271 509.093 357.66 509.892 357.762C510.691 357.863 511.499 357.67 512.165 357.218C512.832 356.766 513.311 356.086 513.512 355.307H516.151C516.265 357.792 516.913 360.224 518.053 362.437L515.745 363.768C515.331 363.426 514.816 363.228 514.279 363.204C513.742 363.18 513.212 363.33 512.768 363.633C512.324 363.937 511.99 364.376 511.817 364.885C511.644 365.394 511.641 365.945 511.809 366.456C511.976 366.967 512.305 367.409 512.746 367.717C513.187 368.025 513.715 368.181 514.253 368.163C514.79 368.144 515.307 367.952 515.725 367.614C516.143 367.276 516.441 366.812 516.573 366.291C516.651 365.931 516.651 365.559 516.573 365.199L518.889 363.867C520.233 365.957 522.01 367.734 524.1 369.078L522.726 371.386C522.367 371.308 521.994 371.308 521.635 371.386C521.113 371.518 520.649 371.815 520.312 372.234C519.974 372.652 519.782 373.169 519.763 373.706C519.744 374.243 519.901 374.772 520.209 375.213C520.516 375.654 520.959 375.982 521.47 376.15C521.981 376.317 522.532 376.314 523.041 376.142C523.55 375.969 523.989 375.635 524.292 375.191C524.595 374.747 524.746 374.217 524.722 373.68C524.697 373.143 524.499 372.628 524.157 372.213L525.497 369.906C527.713 371.065 530.154 371.728 532.652 371.849V374.488C531.873 374.689 531.193 375.168 530.741 375.835C530.289 376.501 530.096 377.31 530.197 378.108C530.299 378.907 530.688 379.642 531.292 380.174C531.896 380.706 532.674 381 533.479 381C534.285 381 535.062 380.706 535.667 380.174C536.271 379.642 536.66 378.907 536.762 378.108C536.863 377.31 536.67 376.501 536.218 375.835C535.766 375.168 535.086 374.689 534.307 374.488V371.849C536.79 371.736 539.219 371.087 541.428 369.947L542.768 372.255C542.426 372.669 542.228 373.184 542.204 373.721C542.18 374.258 542.33 374.789 542.633 375.232C542.937 375.676 543.376 376.01 543.885 376.183C544.394 376.356 544.945 376.359 545.456 376.191C545.967 376.024 546.409 375.695 546.717 375.254C547.025 374.813 547.181 374.285 547.163 373.747C547.144 373.21 546.952 372.694 546.614 372.275C546.276 371.857 545.812 371.559 545.291 371.428C544.931 371.349 544.559 371.349 544.199 371.428L542.859 369.12C544.949 367.776 546.726 365.999 548.07 363.909L550.386 365.232C550.308 365.592 550.308 365.964 550.386 366.324C550.518 366.845 550.815 367.31 551.234 367.647C551.652 367.985 552.169 368.177 552.706 368.196C553.243 368.214 553.772 368.058 554.213 367.75C554.654 367.442 554.982 367 555.15 366.489C555.317 365.978 555.314 365.427 555.142 364.918C554.969 364.409 554.635 363.97 554.191 363.667C553.747 363.363 553.217 363.213 552.68 363.237C552.143 363.261 551.628 363.459 551.213 363.801L548.906 362.47C550.064 360.251 550.727 357.807 550.849 355.307H553.488C553.643 355.908 553.965 356.453 554.415 356.88C554.866 357.308 555.428 357.599 556.037 357.722C556.646 357.845 557.277 357.794 557.858 357.575C558.439 357.356 558.947 356.978 559.323 356.484C559.699 355.99 559.929 355.4 559.986 354.782C560.043 354.164 559.925 353.542 559.645 352.987C559.365 352.433 558.934 351.969 558.403 351.647C557.872 351.326 557.26 351.161 556.639 351.171ZM552.024 343.098C552.059 342.966 552.127 342.846 552.22 342.747C552.314 342.647 552.43 342.573 552.559 342.53C552.688 342.486 552.826 342.475 552.96 342.498C553.094 342.521 553.221 342.576 553.329 342.66C553.436 342.743 553.522 342.852 553.577 342.976C553.633 343.1 553.657 343.236 553.648 343.372C553.638 343.508 553.595 343.639 553.522 343.754C553.45 343.87 553.35 343.965 553.232 344.033C553.042 344.14 552.817 344.169 552.606 344.111C552.395 344.054 552.216 343.916 552.107 343.726C552.052 343.632 552.017 343.528 552.003 343.42C551.988 343.313 551.996 343.203 552.024 343.098ZM543.926 334.727C543.994 334.609 544.089 334.509 544.204 334.436C544.32 334.364 544.451 334.321 544.587 334.311C544.723 334.302 544.859 334.326 544.983 334.381C545.107 334.437 545.216 334.522 545.299 334.63C545.383 334.738 545.438 334.864 545.461 334.999C545.483 335.133 545.473 335.271 545.429 335.4C545.386 335.529 545.311 335.645 545.212 335.738C545.113 335.832 544.992 335.899 544.861 335.935C544.756 335.963 544.646 335.97 544.538 335.956C544.43 335.942 544.326 335.907 544.232 335.852C544.043 335.743 543.905 335.563 543.847 335.353C543.79 335.142 543.818 334.917 543.926 334.727ZM522.098 335.935C521.966 335.899 521.846 335.832 521.747 335.738C521.647 335.645 521.573 335.529 521.53 335.4C521.486 335.271 521.475 335.133 521.498 334.999C521.521 334.864 521.576 334.738 521.66 334.63C521.743 334.522 521.852 334.437 521.976 334.381C522.1 334.326 522.236 334.302 522.372 334.311C522.508 334.321 522.639 334.364 522.754 334.436C522.87 334.509 522.965 334.609 523.033 334.727C523.14 334.917 523.169 335.142 523.111 335.353C523.054 335.563 522.916 335.743 522.726 335.852C522.632 335.907 522.528 335.942 522.42 335.956C522.313 335.97 522.203 335.963 522.098 335.935ZM513.727 344.033C513.609 343.965 513.509 343.87 513.436 343.754C513.364 343.639 513.321 343.508 513.311 343.372C513.302 343.236 513.326 343.1 513.381 342.976C513.437 342.852 513.522 342.743 513.63 342.66C513.738 342.576 513.864 342.521 513.999 342.498C514.133 342.475 514.271 342.486 514.4 342.53C514.529 342.573 514.645 342.647 514.738 342.747C514.832 342.846 514.899 342.966 514.935 343.098C514.963 343.203 514.97 343.313 514.956 343.42C514.942 343.528 514.907 343.632 514.852 343.726C514.743 343.916 514.563 344.054 514.353 344.111C514.142 344.169 513.917 344.14 513.727 344.033ZM514.935 365.861C514.899 365.992 514.832 366.113 514.738 366.212C514.645 366.311 514.529 366.386 514.4 366.429C514.271 366.473 514.133 366.483 513.999 366.461C513.864 366.438 513.738 366.383 513.63 366.299C513.522 366.216 513.437 366.107 513.381 365.983C513.326 365.859 513.302 365.723 513.311 365.587C513.321 365.451 513.364 365.32 513.436 365.204C513.509 365.089 513.609 364.994 513.727 364.926C513.917 364.818 514.142 364.79 514.353 364.847C514.563 364.905 514.743 365.043 514.852 365.232C514.907 365.326 514.942 365.43 514.956 365.538C514.97 365.646 514.963 365.756 514.935 365.861ZM523.033 374.232C522.965 374.35 522.87 374.45 522.754 374.522C522.639 374.595 522.508 374.638 522.372 374.648C522.236 374.657 522.1 374.633 521.976 374.577C521.852 374.522 521.743 374.436 521.66 374.329C521.576 374.221 521.521 374.094 521.498 373.96C521.475 373.826 521.486 373.688 521.53 373.559C521.573 373.43 521.647 373.314 521.747 373.22C521.846 373.127 521.966 373.059 522.098 373.024C522.169 373.012 522.242 373.012 522.313 373.024C522.458 373.023 522.601 373.061 522.728 373.134C522.854 373.206 522.959 373.31 523.032 373.436C523.105 373.562 523.143 373.705 523.143 373.85C523.143 373.996 523.105 374.139 523.033 374.265V374.232ZM544.861 373.024C544.992 373.059 545.113 373.127 545.212 373.22C545.311 373.314 545.386 373.43 545.429 373.559C545.473 373.688 545.483 373.826 545.461 373.96C545.438 374.094 545.383 374.221 545.299 374.329C545.216 374.436 545.107 374.522 544.983 374.577C544.859 374.633 544.723 374.657 544.587 374.648C544.451 374.638 544.32 374.595 544.204 374.522C544.089 374.45 543.994 374.35 543.926 374.232C543.818 374.042 543.79 373.817 543.847 373.606C543.905 373.395 544.043 373.216 544.232 373.107C544.358 373.032 544.5 372.992 544.646 372.991C544.719 372.99 544.792 373.001 544.861 373.024ZM552.818 364.819C552.963 364.818 553.106 364.855 553.232 364.926C553.35 364.994 553.45 365.089 553.522 365.204C553.595 365.32 553.638 365.451 553.648 365.587C553.657 365.723 553.633 365.859 553.577 365.983C553.522 366.107 553.436 366.216 553.329 366.299C553.221 366.383 553.094 366.438 552.96 366.461C552.826 366.483 552.688 366.473 552.559 366.429C552.43 366.386 552.314 366.311 552.22 366.212C552.127 366.113 552.059 365.992 552.024 365.861C551.996 365.756 551.988 365.646 552.003 365.538C552.017 365.43 552.052 365.326 552.107 365.232C552.179 365.107 552.282 365.003 552.407 364.931C552.532 364.858 552.674 364.82 552.818 364.819ZM531.825 331.319C531.825 330.992 531.922 330.672 532.104 330.4C532.286 330.128 532.544 329.916 532.846 329.791C533.149 329.666 533.481 329.633 533.802 329.697C534.123 329.761 534.418 329.918 534.649 330.15C534.88 330.381 535.038 330.676 535.102 330.997C535.166 331.317 535.133 331.65 535.008 331.952C534.883 332.255 534.67 332.513 534.398 332.695C534.126 332.877 533.807 332.974 533.479 332.974C533.041 332.974 532.62 332.799 532.31 332.489C531.999 332.179 531.825 331.758 531.825 331.319ZM510.319 356.134C509.992 356.134 509.672 356.037 509.4 355.855C509.128 355.673 508.916 355.415 508.791 355.112C508.666 354.81 508.633 354.478 508.697 354.157C508.761 353.836 508.918 353.541 509.15 353.31C509.381 353.078 509.676 352.921 509.997 352.857C510.317 352.793 510.65 352.826 510.952 352.951C511.255 353.076 511.513 353.288 511.695 353.56C511.877 353.832 511.974 354.152 511.974 354.479C511.974 354.918 511.799 355.339 511.489 355.649C511.179 355.959 510.758 356.134 510.319 356.134ZM535.134 377.639C535.134 377.967 535.037 378.286 534.855 378.558C534.673 378.831 534.415 379.043 534.112 379.168C533.81 379.293 533.478 379.326 533.157 379.262C532.836 379.198 532.541 379.041 532.31 378.809C532.078 378.578 531.921 378.283 531.857 377.962C531.793 377.641 531.826 377.309 531.951 377.006C532.076 376.704 532.288 376.446 532.56 376.264C532.832 376.082 533.152 375.985 533.479 375.985C533.918 375.985 534.339 376.159 534.649 376.47C534.959 376.78 535.134 377.201 535.134 377.639ZM542.032 367.648L541.205 366.241C541.095 366.051 540.914 365.911 540.702 365.854C540.489 365.796 540.263 365.826 540.072 365.935C539.881 366.045 539.741 366.226 539.684 366.439C539.627 366.651 539.656 366.878 539.766 367.069L540.593 368.466C538.391 369.602 535.949 370.195 533.471 370.195C530.993 370.195 528.551 369.602 526.349 368.466L527.177 367.069C527.286 366.878 527.316 366.651 527.258 366.439C527.201 366.226 527.061 366.045 526.87 365.935C526.68 365.826 526.453 365.796 526.241 365.854C526.028 365.911 525.847 366.051 525.737 366.241L524.91 367.648C522.838 366.295 521.114 364.472 519.88 362.328C518.645 360.183 517.934 357.778 517.805 355.307H519.418C519.637 355.307 519.848 355.219 520.003 355.064C520.158 354.909 520.245 354.699 520.245 354.479C520.245 354.26 520.158 354.05 520.003 353.894C519.848 353.739 519.637 353.652 519.418 353.652H517.805C517.936 351.18 518.649 348.773 519.887 346.628C521.125 344.484 522.851 342.662 524.927 341.311L525.754 342.717C525.809 342.811 525.881 342.894 525.968 342.96C526.055 343.026 526.153 343.074 526.259 343.101C526.364 343.129 526.474 343.136 526.581 343.121C526.689 343.106 526.793 343.07 526.887 343.015C527.076 342.906 527.215 342.727 527.272 342.516C527.329 342.305 527.301 342.08 527.193 341.89L526.366 340.492C528.568 339.356 531.01 338.764 533.488 338.764C535.965 338.764 538.407 339.356 540.609 340.492L539.782 341.89C539.675 342.081 539.648 342.307 539.707 342.518C539.766 342.729 539.906 342.907 540.097 343.015C540.19 343.07 540.294 343.106 540.402 343.121C540.51 343.136 540.62 343.129 540.725 343.101C540.83 343.074 540.929 343.026 541.016 342.96C541.102 342.894 541.175 342.811 541.23 342.717L542.057 341.311C544.135 342.66 545.865 344.481 547.106 346.626C548.346 348.77 549.062 351.178 549.195 353.652H547.541C547.321 353.652 547.111 353.739 546.956 353.894C546.801 354.05 546.714 354.26 546.714 354.479C546.714 354.699 546.801 354.909 546.956 355.064C547.111 355.219 547.321 355.307 547.541 355.307H549.195C549.06 357.783 548.34 360.192 547.095 362.337C545.85 364.482 544.115 366.302 542.032 367.648ZM556.639 356.134C556.312 356.134 555.992 356.037 555.72 355.855C555.448 355.673 555.236 355.415 555.111 355.112C554.986 354.81 554.953 354.478 555.017 354.157C555.081 353.836 555.238 353.541 555.47 353.31C555.701 353.078 555.996 352.921 556.317 352.857C556.638 352.793 556.97 352.826 557.272 352.951C557.575 353.076 557.833 353.288 558.015 353.56C558.197 353.832 558.294 354.152 558.294 354.479C558.294 354.918 558.119 355.339 557.809 355.649C557.499 355.959 557.078 356.134 556.639 356.134Z" fill="#525252"/>
<path d="M530.582 345.383C529.845 345.383 529.126 345.601 528.514 346.01C527.902 346.419 527.424 347 527.143 347.681C526.861 348.361 526.787 349.109 526.931 349.831C527.075 350.553 527.429 351.216 527.95 351.737C528.47 352.257 529.133 352.612 529.855 352.756C530.577 352.899 531.326 352.826 532.006 352.544C532.686 352.262 533.267 351.785 533.676 351.173C534.085 350.561 534.304 349.841 534.304 349.105C534.301 348.118 533.909 347.173 533.211 346.475C532.514 345.778 531.568 345.385 530.582 345.383ZM530.582 351.173C530.173 351.173 529.773 351.052 529.433 350.824C529.093 350.597 528.828 350.274 528.671 349.896C528.515 349.518 528.474 349.103 528.553 348.702C528.633 348.3 528.83 347.932 529.119 347.643C529.409 347.354 529.777 347.157 530.178 347.077C530.579 346.997 530.995 347.038 531.373 347.195C531.751 347.351 532.074 347.616 532.301 347.956C532.528 348.296 532.649 348.696 532.649 349.105C532.649 349.653 532.432 350.179 532.044 350.567C531.656 350.955 531.13 351.173 530.582 351.173Z" fill="#525252"/>
<path d="M536.785 357.789C536.131 357.789 535.491 357.983 534.947 358.347C534.403 358.71 533.979 359.227 533.728 359.832C533.478 360.436 533.412 361.101 533.54 361.743C533.668 362.385 533.983 362.974 534.446 363.437C534.908 363.9 535.498 364.215 536.14 364.343C536.781 364.47 537.447 364.405 538.051 364.154C538.656 363.904 539.173 363.48 539.536 362.936C539.9 362.392 540.094 361.752 540.094 361.098C540.094 360.22 539.745 359.379 539.125 358.758C538.504 358.138 537.663 357.789 536.785 357.789ZM536.785 362.752C536.458 362.752 536.138 362.655 535.866 362.473C535.594 362.291 535.382 362.033 535.257 361.731C535.132 361.428 535.099 361.096 535.163 360.775C535.226 360.454 535.384 360.159 535.615 359.928C535.847 359.697 536.142 359.539 536.462 359.475C536.783 359.411 537.116 359.444 537.418 359.569C537.72 359.694 537.979 359.907 538.161 360.179C538.342 360.451 538.439 360.77 538.439 361.098C538.439 361.536 538.265 361.957 537.955 362.267C537.645 362.578 537.224 362.752 536.785 362.752Z" fill="#525252"/>
<path d="M540.508 347.863C539.936 347.863 539.376 348.033 538.9 348.351C538.424 348.669 538.053 349.121 537.834 349.65C537.615 350.179 537.557 350.761 537.669 351.323C537.781 351.885 538.056 352.4 538.461 352.805C538.866 353.21 539.382 353.486 539.944 353.598C540.505 353.709 541.087 353.652 541.616 353.433C542.145 353.214 542.597 352.843 542.915 352.367C543.234 351.891 543.403 351.331 543.403 350.758C543.403 349.99 543.098 349.254 542.555 348.711C542.012 348.168 541.276 347.863 540.508 347.863ZM540.508 351.999C540.263 351.999 540.023 351.926 539.819 351.79C539.615 351.654 539.456 351.46 539.362 351.233C539.268 351.006 539.244 350.757 539.291 350.516C539.339 350.276 539.457 350.054 539.631 349.881C539.804 349.707 540.026 349.589 540.266 349.541C540.507 349.494 540.756 349.518 540.983 349.612C541.21 349.706 541.404 349.865 541.54 350.069C541.676 350.273 541.749 350.513 541.749 350.758C541.749 351.087 541.618 351.403 541.386 351.636C541.153 351.868 540.837 351.999 540.508 351.999Z" fill="#525252"/>
<path d="M526.036 355.309C525.545 355.309 525.066 355.454 524.658 355.727C524.249 355.999 523.931 356.387 523.744 356.84C523.556 357.294 523.507 357.793 523.602 358.274C523.698 358.755 523.934 359.198 524.281 359.545C524.629 359.892 525.071 360.128 525.552 360.224C526.033 360.32 526.532 360.27 526.986 360.083C527.439 359.895 527.827 359.577 528.099 359.169C528.372 358.761 528.518 358.281 528.518 357.79C528.518 357.132 528.256 356.501 527.791 356.035C527.325 355.57 526.694 355.309 526.036 355.309ZM526.036 358.617C525.873 358.617 525.713 358.569 525.577 358.478C525.441 358.387 525.335 358.258 525.272 358.107C525.209 357.955 525.193 357.789 525.225 357.629C525.257 357.468 525.336 357.321 525.451 357.205C525.567 357.089 525.714 357.011 525.875 356.979C526.035 356.947 526.202 356.963 526.353 357.026C526.504 357.088 526.633 357.194 526.724 357.33C526.815 357.467 526.863 357.626 526.863 357.79C526.863 358.009 526.776 358.22 526.621 358.375C526.466 358.53 526.255 358.617 526.036 358.617Z" fill="#525252"/>
<path d="M186.382 323C183.635 323.009 180.968 323.928 178.799 325.614C176.63 327.3 175.081 329.657 174.394 332.317H164.642C164.215 322.983 161.778 313.852 157.499 305.546L166.195 300.546C167.87 301.993 170.006 302.797 172.22 302.813C173.845 302.792 175.437 302.347 176.837 301.521C178.237 300.694 179.397 299.516 180.201 298.103C181.004 296.691 181.424 295.092 181.419 293.466C181.414 291.841 180.984 290.245 180.171 288.837C179.252 287.237 177.878 285.946 176.225 285.127C174.571 284.308 172.711 283.999 170.882 284.239C169.052 284.478 167.335 285.256 165.947 286.472C164.56 287.689 163.565 289.29 163.089 291.073C162.795 292.424 162.795 293.822 163.089 295.173L154.393 300.173C149.346 292.327 142.674 285.654 134.827 280.607L139.797 271.911C140.349 272.029 140.91 272.102 141.474 272.128C142.29 272.117 143.103 272.013 143.896 271.818C145.853 271.323 147.596 270.206 148.864 268.635C150.131 267.065 150.854 265.125 150.924 263.107C150.994 261.09 150.407 259.105 149.251 257.45C148.095 255.795 146.433 254.561 144.515 253.932C142.597 253.303 140.527 253.314 138.616 253.963C136.704 254.612 135.056 255.865 133.918 257.532C132.78 259.198 132.214 261.19 132.305 263.206C132.396 265.223 133.14 267.155 134.424 268.712L129.393 277.377C121.051 273.121 111.885 270.726 102.528 270.358V260.451C105.456 259.695 108.007 257.897 109.704 255.395C111.401 252.892 112.127 249.857 111.746 246.857C111.365 243.858 109.903 241.1 107.635 239.102C105.366 237.103 102.446 236 99.4226 236C96.3989 236 93.4791 237.103 91.2104 239.102C88.9416 241.1 87.4798 243.858 87.0988 246.857C86.7178 249.857 87.4438 252.892 89.1408 255.395C90.8378 257.897 93.3892 259.695 96.3169 260.451V270.358C86.9926 270.782 77.8705 273.219 69.5768 277.501L64.5456 268.836C65.8297 267.279 66.5732 265.347 66.6645 263.331C66.7558 261.314 66.1898 259.323 65.0516 257.656C63.9135 255.989 62.2649 254.736 60.3537 254.087C58.4425 253.438 56.3722 253.427 54.4542 254.056C52.5362 254.685 50.8743 255.919 49.7186 257.574C48.5628 259.229 47.9756 261.214 48.0454 263.232C48.1153 265.249 48.8383 267.189 50.1057 268.76C51.3731 270.331 53.1164 271.447 55.0732 271.942C55.8663 272.137 56.679 272.241 57.4957 272.253C58.0597 272.226 58.6206 272.153 59.1727 272.035L64.204 280.731C56.3576 285.779 49.6855 292.451 44.6381 300.297L35.9422 295.049C36.2365 293.698 36.2365 292.3 35.9422 290.949C35.542 289.472 34.784 288.116 33.7354 287.001C32.6867 285.887 31.3796 285.047 29.9296 284.558C28.4795 284.068 26.9312 283.943 25.4215 284.194C23.9117 284.445 22.4871 285.064 21.2734 285.997C20.0597 286.929 19.0944 288.146 18.4627 289.54C17.8311 290.934 17.5525 292.462 17.6517 293.989C17.751 295.517 18.2249 296.996 19.0316 298.296C19.8383 299.597 20.953 300.679 22.2771 301.446C23.6849 302.257 25.2802 302.685 26.9046 302.689C29.1185 302.673 31.2544 301.869 32.9296 300.421L41.6256 305.422C37.286 313.755 34.8065 322.932 34.3582 332.317H24.4511C23.6952 329.389 21.8975 326.838 19.395 325.141C16.8925 323.444 13.857 322.718 10.8575 323.099C7.85793 323.48 5.10033 324.942 3.10154 327.21C1.10275 329.479 0 332.399 0 335.423C0 338.446 1.10275 341.366 3.10154 343.635C5.10033 345.903 7.85793 347.365 10.8575 347.746C13.857 348.127 16.8925 347.401 19.395 345.704C21.8975 344.007 23.6952 341.456 24.4511 338.528H34.3582C34.7857 347.862 37.2222 356.993 41.5013 365.299L32.8365 370.299C31.2791 369.015 29.3469 368.272 27.3306 368.181C25.3142 368.089 23.3227 368.655 21.6557 369.793C19.9888 370.932 18.7365 372.58 18.0873 374.491C17.4381 376.403 17.4271 378.473 18.0559 380.391C18.6848 382.309 19.9194 383.971 21.5742 385.127C23.229 386.282 25.2143 386.869 27.2315 386.8C29.2488 386.73 31.1888 386.007 32.7597 384.739C34.3306 383.472 35.4474 381.729 35.9422 379.772C36.2365 378.421 36.2365 377.023 35.9422 375.672L44.6381 370.672C49.6855 378.518 56.3576 385.191 64.204 390.238L59.0485 398.903C57.6979 398.609 56.2997 398.609 54.949 398.903C52.9921 399.398 51.2489 400.515 49.9814 402.085C48.714 403.656 47.991 405.596 47.9212 407.614C47.8514 409.631 48.4385 411.616 49.5943 413.271C50.7501 414.926 52.412 416.16 54.33 416.789C56.248 417.418 58.3183 417.407 60.2295 416.758C62.1406 416.109 63.7893 414.856 64.9274 413.189C66.0655 411.522 66.6315 409.531 66.5403 407.515C66.449 405.498 65.7054 403.566 64.4214 402.009L69.4526 393.344C77.7716 397.697 86.9386 400.188 96.3169 400.642V410.549C93.3892 411.305 90.8378 413.103 89.1408 415.605C87.4438 418.108 86.7178 421.143 87.0988 424.143C87.4798 427.142 88.9416 429.9 91.2104 431.899C93.4791 433.898 96.3989 435 99.4226 435C102.446 435 105.366 433.898 107.635 431.899C109.903 429.9 111.365 427.142 111.746 424.143C112.127 421.143 111.401 418.108 109.704 415.605C108.007 413.103 105.456 411.305 102.528 410.549V400.642C111.853 400.218 120.975 397.781 129.268 393.499L134.299 402.164C133.015 403.721 132.272 405.653 132.181 407.67C132.089 409.686 132.655 411.678 133.793 413.345C134.932 415.012 136.58 416.264 138.491 416.913C140.403 417.562 142.473 417.573 144.391 416.944C146.309 416.316 147.971 415.081 149.127 413.426C150.282 411.771 150.869 409.786 150.8 407.769C150.73 405.752 150.007 403.812 148.739 402.241C147.472 400.67 145.729 399.553 143.772 399.058C142.421 398.764 141.023 398.764 139.672 399.058L134.641 390.393C142.487 385.346 149.16 378.674 154.207 370.827L162.903 375.797C162.609 377.147 162.609 378.545 162.903 379.896C163.398 381.853 164.515 383.596 166.085 384.864C167.656 386.131 169.596 386.854 171.614 386.924C173.631 386.994 175.616 386.407 177.271 385.251C178.926 384.095 180.16 382.433 180.789 380.515C181.418 378.597 181.407 376.527 180.758 374.616C180.109 372.704 178.856 371.056 177.189 369.918C175.522 368.78 173.531 368.214 171.515 368.305C169.498 368.396 167.566 369.14 166.009 370.424L157.344 365.424C161.694 357.092 164.184 347.916 164.642 338.528H174.549C175.133 340.786 176.339 342.834 178.032 344.438C179.724 346.042 181.834 347.137 184.119 347.598C186.405 348.06 188.774 347.868 190.956 347.046C193.138 346.224 195.045 344.805 196.458 342.95C197.871 341.096 198.734 338.881 198.948 336.559C199.161 334.237 198.717 331.902 197.666 329.821C196.615 327.739 194.999 325.996 193.004 324.79C191.008 323.583 188.713 322.963 186.382 323ZM169.052 292.688C169.186 292.195 169.439 291.742 169.789 291.369C170.14 290.997 170.577 290.717 171.061 290.554C171.546 290.392 172.063 290.351 172.567 290.436C173.072 290.521 173.547 290.73 173.951 291.042C174.356 291.355 174.676 291.763 174.885 292.23C175.094 292.697 175.184 293.208 175.148 293.718C175.112 294.228 174.951 294.721 174.678 295.153C174.406 295.586 174.031 295.945 173.587 296.198C172.873 296.603 172.029 296.709 171.238 296.494C170.447 296.278 169.772 295.759 169.363 295.049C169.158 294.695 169.026 294.304 168.972 293.899C168.919 293.494 168.946 293.083 169.052 292.688ZM138.647 261.259C138.9 260.814 139.259 260.439 139.692 260.167C140.124 259.894 140.617 259.733 141.127 259.697C141.637 259.661 142.148 259.751 142.615 259.96C143.082 260.169 143.49 260.49 143.803 260.894C144.116 261.298 144.324 261.773 144.409 262.278C144.494 262.782 144.453 263.299 144.291 263.784C144.128 264.268 143.848 264.705 143.476 265.056C143.103 265.406 142.65 265.659 142.157 265.793C141.762 265.899 141.351 265.926 140.946 265.873C140.541 265.819 140.15 265.687 139.797 265.482C139.086 265.073 138.567 264.399 138.351 263.607C138.136 262.816 138.243 261.972 138.647 261.259ZM56.6882 265.793C56.1946 265.659 55.7416 265.406 55.3694 265.056C54.9972 264.705 54.7173 264.268 54.5544 263.784C54.3916 263.299 54.351 262.782 54.4361 262.278C54.5213 261.773 54.7295 261.298 55.0425 260.894C55.3554 260.49 55.7633 260.169 56.23 259.96C56.6966 259.751 57.2076 259.661 57.7176 259.697C58.2276 259.733 58.7208 259.894 59.1534 260.167C59.5861 260.439 59.9447 260.814 60.1976 261.259C60.6025 261.972 60.7089 262.816 60.4937 263.607C60.2784 264.399 59.7589 265.073 59.0485 265.482C58.6949 265.687 58.3043 265.819 57.8993 265.873C57.4943 265.926 57.0827 265.899 56.6882 265.793ZM25.2586 296.198C24.8142 295.945 24.4392 295.586 24.1667 295.153C23.8943 294.721 23.7329 294.228 23.6968 293.718C23.6607 293.208 23.7511 292.697 23.9599 292.23C24.1687 291.763 24.4895 291.355 24.8939 291.042C25.2982 290.73 25.7735 290.521 26.2776 290.436C26.7817 290.351 27.2991 290.392 27.7837 290.554C28.2684 290.717 28.7053 290.997 29.0558 291.369C29.4063 291.742 29.6595 292.195 29.7929 292.688C29.8989 293.083 29.926 293.494 29.8727 293.899C29.8194 294.304 29.6868 294.695 29.4823 295.049C29.0726 295.759 28.3986 296.278 27.6073 296.494C26.816 296.709 25.9717 296.603 25.2586 296.198ZM29.7929 378.157C29.6595 378.65 29.4063 379.103 29.0558 379.476C28.7053 379.848 28.2684 380.128 27.7837 380.291C27.2991 380.453 26.7817 380.494 26.2776 380.409C25.7735 380.324 25.2982 380.116 24.8939 379.803C24.4895 379.49 24.1687 379.082 23.9599 378.615C23.7511 378.148 23.6607 377.637 23.6968 377.127C23.7329 376.617 23.8943 376.124 24.1667 375.692C24.4392 375.259 24.8142 374.9 25.2586 374.647C25.9717 374.243 26.816 374.136 27.6073 374.351C28.3986 374.567 29.0726 375.086 29.4823 375.797C29.6868 376.15 29.8194 376.541 29.8727 376.946C29.926 377.351 29.8989 377.762 29.7929 378.157ZM60.1976 409.587C59.9447 410.031 59.5861 410.406 59.1534 410.678C58.7208 410.951 58.2276 411.112 57.7176 411.148C57.2076 411.184 56.6966 411.094 56.23 410.885C55.7633 410.676 55.3554 410.356 55.0425 409.951C54.7295 409.547 54.5213 409.072 54.4361 408.567C54.351 408.063 54.3916 407.546 54.5544 407.061C54.7173 406.577 54.9972 406.14 55.3694 405.789C55.7416 405.439 56.1946 405.186 56.6882 405.052C56.9555 405.007 57.2284 405.007 57.4957 405.052C58.0419 405.05 58.579 405.192 59.0528 405.464C59.5267 405.735 59.9205 406.127 60.1946 406.6C60.4686 407.072 60.6132 407.609 60.6137 408.155C60.6143 408.701 60.4707 409.238 60.1976 409.711V409.587ZM142.157 405.052C142.65 405.186 143.103 405.439 143.476 405.789C143.848 406.14 144.128 406.577 144.291 407.061C144.453 407.546 144.494 408.063 144.409 408.567C144.324 409.072 144.116 409.547 143.803 409.951C143.49 410.356 143.082 410.676 142.615 410.885C142.148 411.094 141.637 411.184 141.127 411.148C140.617 411.112 140.124 410.951 139.692 410.678C139.259 410.406 138.9 410.031 138.647 409.587C138.243 408.873 138.136 408.029 138.351 407.238C138.567 406.447 139.086 405.772 139.797 405.363C140.267 405.084 140.803 404.934 141.349 404.928C141.624 404.923 141.897 404.965 142.157 405.052ZM172.034 374.244C172.578 374.24 173.113 374.379 173.587 374.647C174.031 374.9 174.406 375.259 174.678 375.692C174.951 376.124 175.112 376.617 175.148 377.127C175.184 377.637 175.094 378.148 174.885 378.615C174.676 379.082 174.356 379.49 173.951 379.803C173.547 380.116 173.072 380.324 172.567 380.409C172.063 380.494 171.546 380.453 171.061 380.291C170.577 380.128 170.14 379.848 169.789 379.476C169.439 379.103 169.186 378.65 169.052 378.157C168.946 377.762 168.919 377.351 168.972 376.946C169.026 376.541 169.158 376.15 169.363 375.797C169.634 375.327 170.023 374.937 170.491 374.664C170.96 374.392 171.492 374.247 172.034 374.244ZM93.2112 248.463C93.2112 247.235 93.5754 246.034 94.258 245.012C94.9405 243.991 95.9106 243.195 97.0455 242.725C98.1805 242.254 99.4295 242.131 100.634 242.371C101.839 242.611 102.946 243.202 103.815 244.071C104.683 244.94 105.275 246.046 105.515 247.251C105.754 248.456 105.631 249.705 105.161 250.84C104.691 251.975 103.895 252.945 102.873 253.628C101.852 254.31 100.651 254.674 99.4226 254.674C97.7752 254.674 96.1953 254.02 95.0304 252.855C93.8656 251.69 93.2112 250.11 93.2112 248.463ZM12.4631 341.634C11.2346 341.634 10.0337 341.27 9.01224 340.587C7.99078 339.905 7.19465 338.935 6.72453 337.8C6.2544 336.665 6.13139 335.416 6.37106 334.211C6.61073 333.006 7.20231 331.899 8.07098 331.03C8.93966 330.162 10.0464 329.57 11.2513 329.33C12.4562 329.091 13.7051 329.214 14.8401 329.684C15.9751 330.154 16.9452 330.95 17.6277 331.972C18.3102 332.993 18.6745 334.194 18.6745 335.423C18.6745 337.07 18.0201 338.65 16.8552 339.815C15.6904 340.98 14.1105 341.634 12.4631 341.634ZM105.634 422.382C105.634 423.61 105.27 424.811 104.587 425.833C103.905 426.854 102.935 427.65 101.8 428.121C100.665 428.591 99.4157 428.714 98.2108 428.474C97.0059 428.234 95.8991 427.643 95.0304 426.774C94.1618 425.905 93.5702 424.799 93.3305 423.594C93.0908 422.389 93.2138 421.14 93.684 420.005C94.1541 418.87 94.9502 417.9 95.9717 417.217C96.9931 416.535 98.1941 416.171 99.4226 416.171C101.07 416.171 102.65 416.825 103.815 417.99C104.98 419.155 105.634 420.735 105.634 422.382ZM131.535 384.865L128.43 379.586C128.018 378.869 127.338 378.345 126.54 378.13C125.742 377.914 124.892 378.025 124.175 378.436C123.458 378.848 122.935 379.528 122.719 380.326C122.504 381.124 122.614 381.975 123.026 382.691L126.132 387.94C117.863 392.205 108.695 394.431 99.3915 394.431C90.088 394.431 80.9195 392.205 72.6515 387.94L75.7571 382.691C76.169 381.975 76.2793 381.124 76.0638 380.326C75.8483 379.528 75.3247 378.848 74.608 378.436C73.8914 378.025 73.0406 377.914 72.2427 378.13C71.4447 378.345 70.7651 378.869 70.3532 379.586L67.2476 384.865C59.4668 379.787 52.995 372.944 48.3592 364.892C43.7233 356.84 41.0544 347.807 40.5696 338.528H46.6257C47.4494 338.528 48.2394 338.201 48.8218 337.619C49.4042 337.036 49.7314 336.246 49.7314 335.423C49.7314 334.599 49.4042 333.809 48.8218 333.226C48.2394 332.644 47.4494 332.317 46.6257 332.317H40.5696C41.0613 323.033 43.7397 313.996 48.3866 305.944C53.0335 297.891 59.5173 291.051 67.3097 285.98L70.4154 291.26C70.6208 291.613 70.894 291.922 71.2193 292.17C71.5445 292.417 71.9154 292.598 72.3107 292.702C72.7059 292.806 73.1178 292.831 73.5227 292.775C73.9276 292.719 74.3176 292.584 74.6702 292.378C75.3805 291.968 75.9 291.294 76.1153 290.503C76.3306 289.711 76.2242 288.867 75.8193 288.154L72.7136 282.905C80.9817 278.64 90.1501 276.414 99.4536 276.414C108.757 276.414 117.926 278.64 126.194 282.905L123.088 288.154C122.686 288.871 122.584 289.718 122.805 290.51C123.026 291.301 123.552 291.973 124.268 292.378C124.621 292.584 125.011 292.719 125.416 292.775C125.82 292.831 126.232 292.806 126.628 292.702C127.023 292.598 127.394 292.417 127.719 292.17C128.044 291.922 128.317 291.613 128.523 291.26L131.629 285.98C139.432 291.044 145.928 297.881 150.586 305.934C155.244 313.987 157.932 323.027 158.431 332.317H152.219C151.396 332.317 150.606 332.644 150.023 333.226C149.441 333.809 149.114 334.599 149.114 335.423C149.114 336.246 149.441 337.036 150.023 337.619C150.606 338.201 151.396 338.528 152.219 338.528H158.431C157.922 347.826 155.22 356.872 150.545 364.925C145.871 372.979 139.357 379.812 131.535 384.865ZM186.382 341.634C185.154 341.634 183.953 341.27 182.931 340.587C181.91 339.905 181.114 338.935 180.643 337.8C180.173 336.665 180.05 335.416 180.29 334.211C180.53 333.006 181.121 331.899 181.99 331.03C182.859 330.162 183.965 329.57 185.17 329.33C186.375 329.091 187.624 329.214 188.759 329.684C189.894 330.154 190.864 330.95 191.547 331.972C192.229 332.993 192.593 334.194 192.593 335.423C192.593 337.07 191.939 338.65 190.774 339.815C189.609 340.98 188.029 341.634 186.382 341.634Z" fill="#FF84A3"/>
<path d="M88.5498 301.264C85.7857 301.264 83.0837 302.083 80.7854 303.619C78.4871 305.155 76.6958 307.337 75.6381 309.891C74.5803 312.445 74.3035 315.255 74.8428 317.966C75.382 320.677 76.7131 323.167 78.6676 325.122C80.6221 327.076 83.1123 328.407 85.8233 328.946C88.5343 329.486 91.3444 329.209 93.8981 328.151C96.4518 327.093 98.6345 325.302 100.17 323.004C101.706 320.705 102.525 318.003 102.525 315.239C102.517 311.535 101.042 307.985 98.423 305.366C95.8039 302.747 92.2539 301.272 88.5498 301.264ZM88.5498 323.004C87.0142 323.004 85.5131 322.548 84.2363 321.695C82.9594 320.842 81.9643 319.629 81.3766 318.211C80.789 316.792 80.6352 315.231 80.9348 313.725C81.2344 312.218 81.9739 310.835 83.0597 309.749C84.1456 308.663 85.529 307.924 87.0351 307.624C88.5412 307.325 90.1024 307.478 91.5211 308.066C92.9398 308.654 94.1524 309.649 95.0056 310.926C95.8587 312.203 96.3141 313.704 96.3141 315.239C96.3141 317.299 95.4961 319.273 94.04 320.729C92.5839 322.186 90.609 323.004 88.5498 323.004Z" fill="#FF84A3"/>
<path d="M111.837 347.848C109.38 347.848 106.978 348.576 104.935 349.941C102.892 351.306 101.3 353.246 100.36 355.516C99.4194 357.786 99.1734 360.284 99.6528 362.694C100.132 365.104 101.315 367.317 103.053 369.055C104.79 370.792 107.003 371.975 109.413 372.455C111.823 372.934 114.321 372.688 116.591 371.748C118.861 370.807 120.801 369.215 122.166 367.172C123.531 365.129 124.26 362.727 124.26 360.27C124.26 356.976 122.951 353.816 120.621 351.486C118.291 349.156 115.132 347.848 111.837 347.848ZM111.837 366.482C110.608 366.482 109.407 366.118 108.386 365.435C107.365 364.752 106.568 363.782 106.098 362.647C105.628 361.512 105.505 360.264 105.745 359.059C105.984 357.854 106.576 356.747 107.445 355.878C108.313 355.01 109.42 354.418 110.625 354.178C111.83 353.939 113.079 354.062 114.214 354.532C115.349 355.002 116.319 355.798 117.001 356.82C117.684 357.841 118.048 359.042 118.048 360.27C118.048 361.918 117.394 363.498 116.229 364.663C115.064 365.827 113.484 366.482 111.837 366.482Z" fill="#FF84A3"/>
<path d="M125.815 310.578C123.665 310.578 121.564 311.216 119.776 312.41C117.989 313.604 116.595 315.302 115.773 317.288C114.95 319.275 114.735 321.46 115.154 323.569C115.574 325.677 116.609 327.614 118.129 329.134C119.649 330.654 121.586 331.69 123.695 332.109C125.803 332.529 127.989 332.313 129.975 331.491C131.961 330.668 133.659 329.275 134.853 327.487C136.048 325.7 136.685 323.598 136.685 321.448C136.685 318.565 135.54 315.8 133.501 313.762C131.463 311.723 128.698 310.578 125.815 310.578ZM125.815 326.107C124.894 326.107 123.993 325.833 123.227 325.321C122.461 324.81 121.864 324.082 121.511 323.231C121.159 322.38 121.066 321.443 121.246 320.539C121.426 319.636 121.87 318.805 122.521 318.154C123.173 317.502 124.003 317.059 124.906 316.879C125.81 316.699 126.747 316.792 127.598 317.144C128.449 317.497 129.177 318.094 129.689 318.86C130.201 319.626 130.474 320.527 130.474 321.448C130.474 322.684 129.983 323.868 129.109 324.742C128.236 325.616 127.051 326.107 125.815 326.107Z" fill="#FF84A3"/>
<path d="M71.4694 338.531C69.6267 338.531 67.8253 339.078 66.2931 340.101C64.761 341.125 63.5668 342.58 62.8616 344.283C62.1564 345.985 61.9719 347.859 62.3314 349.666C62.6909 351.473 63.5782 353.133 64.8813 354.436C66.1843 355.74 67.8444 356.627 69.6518 356.986C71.4591 357.346 73.3325 357.161 75.0349 356.456C76.7374 355.751 78.1925 354.557 79.2163 353.025C80.2401 351.492 80.7865 349.691 80.7865 347.848C80.7865 345.377 79.8049 343.007 78.0576 341.26C76.3103 339.513 73.9405 338.531 71.4694 338.531ZM71.4694 350.954C70.8552 350.954 70.2547 350.772 69.744 350.431C69.2333 350.089 68.8352 349.604 68.6001 349.037C68.3651 348.469 68.3036 347.845 68.4234 347.242C68.5432 346.64 68.839 346.087 69.2734 345.652C69.7077 345.218 70.2611 344.922 70.8635 344.802C71.466 344.682 72.0904 344.744 72.6579 344.979C73.2254 345.214 73.7105 345.612 74.0517 346.123C74.393 346.634 74.5751 347.234 74.5751 347.848C74.5751 348.672 74.2479 349.462 73.6655 350.044C73.0831 350.627 72.2931 350.954 71.4694 350.954Z" fill="#FF84A3"/>
</svg>
