<svg width="478" height="437" viewBox="0 0 478 437" fill="none" xmlns="http://www.w3.org/2000/svg">
<path d="M457.271 41.2917H421.783C420.336 38.7853 418.258 36.7012 415.756 35.2466C413.254 33.792 410.415 33.0175 407.521 33H349.479C346.585 33.0175 343.746 33.792 341.244 35.2466C338.742 36.7012 336.664 38.7853 335.217 41.2917H299.729C294.231 41.2917 288.959 43.4756 285.071 47.3631C281.184 51.2506 279 56.5231 279 62.0208V277.604C279 283.102 281.184 288.374 285.071 292.262C288.959 296.149 294.231 298.333 299.729 298.333H457.271C462.769 298.333 468.041 296.149 471.929 292.262C475.816 288.374 478 283.102 478 277.604V62.0208C478 56.5231 475.816 51.2506 471.929 47.3631C468.041 43.4756 462.769 41.2917 457.271 41.2917ZM349.479 66.1667H407.521V74.4583C407.521 75.5579 407.084 76.6124 406.307 77.3899C405.529 78.1674 404.475 78.6042 403.375 78.6042H392.845C392.175 78.6342 391.51 78.4894 390.914 78.1841C390.318 77.8788 389.812 77.4234 389.445 76.8629C388.379 74.8884 386.799 73.239 384.872 72.0894C382.946 70.9398 380.744 70.3329 378.5 70.3329C376.256 70.3329 374.054 70.9398 372.128 72.0894C370.201 73.239 368.621 74.8884 367.555 76.8629C367.188 77.4234 366.682 77.8788 366.086 78.1841C365.49 78.4894 364.825 78.6342 364.155 78.6042H353.625C352.525 78.6042 351.471 78.1674 350.693 77.3899C349.916 76.6124 349.479 75.5579 349.479 74.4583V66.1667ZM341.188 66.1667V74.4583C341.188 77.757 342.498 80.9205 344.83 83.253C347.163 85.5855 350.326 86.8958 353.625 86.8958H364.155C366.323 86.9427 368.462 86.4007 370.346 85.3274C372.23 84.2542 373.787 82.69 374.852 80.8015C375.207 80.1433 375.734 79.5935 376.376 79.2103C377.018 78.8271 377.752 78.6248 378.5 78.6248C379.248 78.6248 379.982 78.8271 380.624 79.2103C381.266 79.5935 381.793 80.1433 382.148 80.8015C383.213 82.69 384.77 84.2542 386.654 85.3274C388.538 86.4007 390.677 86.9427 392.845 86.8958H403.375C406.674 86.8958 409.837 85.5855 412.17 83.253C414.502 80.9205 415.812 77.757 415.812 74.4583V66.1667H448.979V269.312H308.021V66.1667H341.188ZM349.479 41.2917H407.521C409.72 41.2917 411.829 42.1652 413.384 43.7202C414.939 45.2752 415.812 47.3842 415.812 49.5833C415.812 51.7824 414.939 53.8914 413.384 55.4464C411.829 57.0014 409.72 57.875 407.521 57.875H349.479C347.28 57.875 345.171 57.0014 343.616 55.4464C342.061 53.8914 341.188 51.7824 341.188 49.5833C341.188 47.3842 342.061 45.2752 343.616 43.7202C345.171 42.1652 347.28 41.2917 349.479 41.2917ZM469.708 277.604C469.708 280.903 468.398 284.066 466.065 286.399C463.733 288.731 460.569 290.042 457.271 290.042H299.729C296.431 290.042 293.267 288.731 290.935 286.399C288.602 284.066 287.292 280.903 287.292 277.604V62.0208C287.292 58.7222 288.602 55.5587 290.935 53.2262C293.267 50.8937 296.431 49.5833 299.729 49.5833H332.896C332.908 52.506 333.71 55.3709 335.217 57.875H303.875C302.775 57.875 301.721 58.3118 300.943 59.0893C300.166 59.8668 299.729 60.9213 299.729 62.0208V273.458C299.729 274.558 300.166 275.612 300.943 276.39C301.721 277.167 302.775 277.604 303.875 277.604H453.125C454.225 277.604 455.279 277.167 456.057 276.39C456.834 275.612 457.271 274.558 457.271 273.458V62.0208C457.271 60.9213 456.834 59.8668 456.057 59.0893C455.279 58.3118 454.225 57.875 453.125 57.875H421.783C423.29 55.3709 424.092 52.506 424.104 49.5833H457.271C460.569 49.5833 463.733 50.8937 466.065 53.2262C468.398 55.5587 469.708 58.7222 469.708 62.0208V277.604Z" fill="#B4B4B4"/>
<path d="M353.622 53.7292C355.912 53.7292 357.768 51.873 357.768 49.5833C357.768 47.2937 355.912 45.4375 353.622 45.4375C351.333 45.4375 349.477 47.2937 349.477 49.5833C349.477 51.873 351.333 53.7292 353.622 53.7292Z" fill="#B4B4B4"/>
<path d="M403.372 53.7292C405.662 53.7292 407.518 51.873 407.518 49.5833C407.518 47.2937 405.662 45.4375 403.372 45.4375C401.083 45.4375 399.227 47.2937 399.227 49.5833C399.227 51.873 401.083 53.7292 403.372 53.7292Z" fill="#B4B4B4"/>
<path d="M337.036 153.684H328.329C327.23 153.684 326.175 153.247 325.398 152.47C324.62 151.692 324.184 150.638 324.184 149.538C324.184 148.439 324.62 147.384 325.398 146.607C326.175 145.829 327.23 145.393 328.329 145.393H337.036C337.776 137.31 340.908 129.631 346.032 123.337L342.135 119.44C341.444 119.617 340.734 119.715 340.021 119.73C337.822 119.73 335.713 118.856 334.158 117.301C332.603 115.746 331.729 113.637 331.729 111.438C331.738 109.243 332.618 107.14 334.175 105.593C335.729 104.048 337.83 103.181 340.021 103.181C342.211 103.181 344.313 104.048 345.866 105.593C347.423 107.14 348.303 109.243 348.312 111.438C348.31 112.156 348.198 112.869 347.981 113.553L351.878 117.45C358.188 112.306 365.874 109.133 373.975 108.329V99.7884C373.975 98.6889 374.412 97.6344 375.189 96.8569C375.967 96.0794 377.021 95.6426 378.121 95.6426C379.22 95.6426 380.275 96.0794 381.052 96.8569C381.83 97.6344 382.267 98.6889 382.267 99.7884V108.329C390.372 109.117 398.063 112.291 404.364 117.45L408.261 113.553C408.044 112.869 407.932 112.156 407.929 111.438C407.939 109.243 408.818 107.14 410.375 105.593C411.146 104.822 412.06 104.21 413.067 103.793C414.073 103.376 415.152 103.161 416.242 103.161C417.331 103.161 418.41 103.376 419.417 103.793C420.424 104.21 421.338 104.822 422.108 105.593C423.65 107.147 424.514 109.249 424.513 111.438C424.513 113.637 423.639 115.746 422.084 117.301C420.529 118.856 418.42 119.73 416.221 119.73C415.507 119.715 414.798 119.617 414.107 119.44L410.21 123.337C415.374 129.623 418.562 137.297 419.372 145.393H428.078C429.178 145.393 430.232 145.829 431.01 146.607C431.787 147.384 432.224 148.439 432.224 149.538C432.224 150.638 431.787 151.692 431.01 152.47C430.232 153.247 429.178 153.684 428.078 153.684H419.538C418.736 161.794 415.547 169.484 410.375 175.782L414.273 179.679C415.675 179.299 417.152 179.295 418.556 179.666C419.96 180.037 421.242 180.771 422.274 181.793C423.233 182.76 423.939 183.948 424.33 185.253C424.721 186.557 424.784 187.938 424.515 189.273C424.245 190.608 423.651 191.856 422.785 192.907C421.918 193.957 420.806 194.779 419.547 195.298C418.288 195.817 416.921 196.018 415.566 195.883C414.21 195.748 412.909 195.281 411.777 194.524C410.645 193.767 409.717 192.743 409.075 191.542C408.433 190.341 408.096 189 408.095 187.639C408.104 186.922 408.216 186.21 408.427 185.524L404.53 181.669C398.219 186.813 390.534 189.985 382.433 190.789V199.33C382.433 200.429 381.996 201.484 381.218 202.261C380.441 203.039 379.386 203.476 378.287 203.476C377.187 203.476 376.133 203.039 375.355 202.261C374.578 201.484 374.141 200.429 374.141 199.33V190.789C366.039 189.985 358.354 186.813 352.044 181.669L348.147 185.524C348.358 186.21 348.469 186.922 348.478 187.639C348.478 189.838 347.605 191.947 346.05 193.502C344.495 195.057 342.386 195.93 340.187 195.93C337.987 195.93 335.878 195.057 334.323 193.502C332.768 191.947 331.895 189.838 331.895 187.639C331.904 186.374 332.201 185.129 332.765 183.997C333.329 182.866 334.144 181.878 335.149 181.11C336.153 180.342 337.319 179.814 338.559 179.566C339.798 179.318 341.078 179.356 342.301 179.679L346.198 175.782C341.007 169.495 337.816 161.799 337.036 153.684Z" fill="#B4B4B4"/>
<path d="M363.49 154.927C365.414 154.965 367.291 154.332 368.799 153.137C370.307 151.943 371.353 150.261 371.758 148.38C372.162 146.499 371.899 144.535 371.015 142.827C370.131 141.118 368.68 139.77 366.911 139.013C365.141 138.257 363.164 138.139 361.318 138.681C359.472 139.222 357.871 140.389 356.79 141.981C355.71 143.573 355.217 145.491 355.395 147.407C355.574 149.322 356.413 151.117 357.769 152.481C359.286 154.009 361.338 154.886 363.49 154.927Z" fill="#B4B4B4"/>
<path d="M389.855 146.971C393.29 146.971 396.074 144.186 396.074 140.752C396.074 137.317 393.29 134.533 389.855 134.533C386.421 134.533 383.637 137.317 383.637 140.752C383.637 144.186 386.421 146.971 389.855 146.971Z" fill="#B4B4B4"/>
<path d="M381.073 170.058C381.845 169.282 382.279 168.231 382.279 167.135C382.279 166.04 381.845 164.989 381.073 164.213C380.688 163.824 380.229 163.516 379.724 163.305C379.219 163.095 378.677 162.986 378.13 162.986C377.582 162.986 377.04 163.095 376.535 163.305C376.03 163.516 375.571 163.824 375.186 164.213C374.414 164.989 373.98 166.04 373.98 167.135C373.98 168.231 374.414 169.282 375.186 170.058C375.571 170.447 376.03 170.755 376.535 170.966C377.04 171.176 377.582 171.285 378.13 171.285C378.677 171.285 379.219 171.176 379.724 170.966C380.229 170.755 380.688 170.447 381.073 170.058Z" fill="#B4B4B4"/>
<path d="M428.247 215.418H328.747C327.648 215.418 326.593 215.855 325.816 216.632C325.038 217.41 324.602 218.464 324.602 219.564C324.602 220.663 325.038 221.718 325.816 222.495C326.593 223.273 327.648 223.71 328.747 223.71H428.247C429.347 223.71 430.401 223.273 431.179 222.495C431.956 221.718 432.393 220.663 432.393 219.564C432.393 218.464 431.956 217.41 431.179 216.632C430.401 215.855 429.347 215.418 428.247 215.418Z" fill="#B4B4B4"/>
<path d="M428.247 232H328.747C327.648 232 326.593 232.437 325.816 233.214C325.038 233.992 324.602 235.046 324.602 236.146C324.602 237.245 325.038 238.3 325.816 239.077C326.593 239.855 327.648 240.292 328.747 240.292H428.247C429.347 240.292 430.401 239.855 431.179 239.077C431.956 238.3 432.393 237.245 432.393 236.146C432.393 235.046 431.956 233.992 431.179 233.214C430.401 232.437 429.347 232 428.247 232Z" fill="#B4B4B4"/>
<path d="M407.518 248.582H328.747C327.648 248.582 326.593 249.019 325.816 249.796C325.038 250.574 324.602 251.628 324.602 252.728C324.602 253.827 325.038 254.882 325.816 255.659C326.593 256.437 327.648 256.874 328.747 256.874H407.518C408.618 256.874 409.672 256.437 410.45 255.659C411.227 254.882 411.664 253.827 411.664 252.728C411.664 251.628 411.227 250.574 410.45 249.796C409.672 249.019 408.618 248.582 407.518 248.582Z" fill="#B4B4B4"/>
<path d="M129.645 308.863C121.962 308.863 114.451 311.156 108.062 315.451C101.674 319.747 96.6944 325.852 93.7541 332.996C90.8137 340.139 90.0444 347.999 91.5434 355.582C93.0423 363.165 96.7423 370.131 102.175 375.598C107.608 381.065 114.531 384.788 122.066 386.296C129.602 387.805 137.414 387.031 144.512 384.072C151.611 381.113 157.678 376.103 161.947 369.674C166.216 363.245 168.494 355.687 168.494 347.955C168.494 337.588 164.401 327.644 157.116 320.313C149.83 312.982 139.949 308.863 129.645 308.863ZM129.645 382.704C122.816 382.704 116.139 380.666 110.46 376.848C104.782 373.03 100.356 367.603 97.742 361.253C95.1283 354.904 94.4445 347.917 95.7769 341.176C97.1094 334.436 100.398 328.244 105.228 323.384C110.057 318.525 116.21 315.215 122.909 313.875C129.607 312.534 136.55 313.222 142.86 315.852C149.17 318.482 154.563 322.936 158.358 328.65C162.152 334.365 164.178 341.083 164.178 347.955C164.178 357.171 160.539 366.01 154.063 372.526C147.587 379.043 138.804 382.704 129.645 382.704Z" fill="#FF4D79"/>
<path d="M215.263 420.19L181.897 386.593C180.956 385.655 179.836 384.919 178.604 384.43C177.373 383.941 176.055 383.709 174.731 383.748L169.185 378.145C176.789 368.06 180.304 355.446 179.021 342.853C177.737 330.26 171.749 318.628 162.269 310.307C152.788 301.986 140.521 297.598 127.949 298.029C115.376 298.46 103.435 303.679 94.5392 312.63C85.6437 321.582 80.4575 333.598 80.0288 346.249C79.6002 358.901 83.9612 371.244 92.2303 380.784C100.499 390.324 112.059 396.349 124.574 397.641C137.088 398.933 149.623 395.396 159.645 387.744L165.213 393.325C165.175 394.657 165.406 395.983 165.892 397.222C166.378 398.462 167.109 399.589 168.041 400.536L201.429 434.111C202.331 435.031 203.407 435.761 204.593 436.257C205.779 436.753 207.051 437.005 208.335 437C210.934 437 213.426 435.961 215.264 434.112C217.102 432.263 218.134 429.755 218.134 427.14C218.139 425.848 217.888 424.567 217.395 423.374C216.902 422.18 216.177 421.098 215.263 420.19ZM161.307 383.27C160.926 382.885 160.415 382.659 159.875 382.635C159.336 382.611 158.807 382.791 158.393 383.14C149.405 390.583 137.915 394.262 126.305 393.412C114.695 392.562 103.854 387.25 96.0308 378.576C88.2073 369.902 84.0004 358.532 84.282 346.821C84.5637 335.111 89.3123 323.958 97.5436 315.675C105.775 307.392 116.858 302.614 128.495 302.331C140.133 302.047 151.433 306.28 160.053 314.153C168.673 322.026 173.952 332.934 174.796 344.617C175.64 356.3 171.985 367.862 164.588 376.907C164.241 377.323 164.062 377.855 164.086 378.398C164.11 378.941 164.335 379.455 164.717 379.839L169.962 385.094C168.513 385.891 167.322 387.09 166.53 388.547L161.307 383.27ZM208.335 432.656C207.618 432.658 206.907 432.517 206.244 432.241C205.581 431.965 204.979 431.56 204.472 431.049L171.106 397.452C170.598 396.941 170.195 396.335 169.92 395.668C169.645 395.001 169.504 394.286 169.504 393.564C169.504 392.842 169.645 392.127 169.92 391.46C170.195 390.793 170.598 390.187 171.106 389.677C171.613 389.166 172.215 388.761 172.878 388.484C173.541 388.207 174.251 388.065 174.969 388.065C175.686 388.065 176.397 388.207 177.06 388.484C177.723 388.761 178.325 389.166 178.832 389.677L212.22 423.253C212.983 424.025 213.501 425.008 213.71 426.076C213.919 427.145 213.808 428.252 213.393 429.257C212.977 430.263 212.276 431.123 211.375 431.727C210.475 432.332 209.418 432.655 208.335 432.656Z" fill="#FF4D79"/>
<path d="M149.073 345.782H146.785C146.382 342.698 145.176 339.777 143.289 337.312L146.289 334.294C146.695 333.885 146.924 333.33 146.924 332.752C146.924 332.173 146.695 331.619 146.289 331.21C145.883 330.801 145.331 330.571 144.757 330.571C144.182 330.571 143.631 330.801 143.224 331.21L140.224 334.228C137.776 332.33 134.872 331.116 131.807 330.71V328.408C131.807 327.832 131.58 327.28 131.175 326.872C130.77 326.465 130.221 326.236 129.649 326.236C129.077 326.236 128.528 326.465 128.123 326.872C127.718 327.28 127.491 327.832 127.491 328.408V330.71C124.426 331.116 121.522 332.33 119.074 334.228L116.074 331.21C115.872 331.007 115.633 330.847 115.37 330.737C115.108 330.627 114.826 330.571 114.541 330.571C114.257 330.571 113.975 330.627 113.712 330.737C113.449 330.847 113.21 331.007 113.009 331.21C112.808 331.412 112.648 331.653 112.539 331.917C112.43 332.182 112.374 332.465 112.374 332.752C112.374 333.33 112.602 333.885 113.009 334.294L116.009 337.312C114.122 339.777 112.916 342.698 112.512 345.782H110.225C109.652 345.782 109.103 346.011 108.699 346.418C108.294 346.826 108.066 347.378 108.066 347.954C108.066 348.53 108.294 349.083 108.699 349.49C109.103 349.897 109.652 350.126 110.225 350.126H112.512C112.916 353.21 114.122 356.132 116.009 358.596L113.009 361.615C112.807 361.817 112.646 362.057 112.536 362.321C112.427 362.586 112.37 362.87 112.37 363.157C112.37 363.443 112.427 363.727 112.536 363.992C112.646 364.257 112.807 364.497 113.009 364.699C113.209 364.902 113.448 365.064 113.711 365.174C113.974 365.284 114.256 365.341 114.541 365.341C114.826 365.341 115.108 365.284 115.371 365.174C115.634 365.064 115.873 364.902 116.074 364.699L119.074 361.68C121.522 363.578 124.426 364.792 127.491 365.198V367.5C127.491 368.076 127.718 368.629 128.123 369.036C128.528 369.443 129.077 369.672 129.649 369.672C130.221 369.672 130.77 369.443 131.175 369.036C131.58 368.629 131.807 368.076 131.807 367.5V365.198C134.872 364.792 137.776 363.578 140.224 361.68L143.224 364.699C143.425 364.902 143.664 365.064 143.927 365.174C144.19 365.284 144.472 365.341 144.757 365.341C145.042 365.341 145.324 365.284 145.587 365.174C145.85 365.064 146.088 364.902 146.289 364.699C146.491 364.497 146.652 364.257 146.762 363.992C146.871 363.727 146.927 363.443 146.927 363.157C146.927 362.87 146.871 362.586 146.762 362.321C146.652 362.057 146.491 361.817 146.289 361.615L143.289 358.596C145.176 356.132 146.382 353.21 146.785 350.126H149.073C149.646 350.126 150.195 349.897 150.599 349.49C151.004 349.083 151.231 348.53 151.231 347.954C151.231 347.378 151.004 346.826 150.599 346.418C150.195 346.011 149.646 345.782 149.073 345.782ZM120.498 357.163C118.584 355.262 117.321 352.797 116.894 350.126C117.466 350.126 118.015 349.897 118.42 349.49C118.825 349.083 119.052 348.53 119.052 347.954C119.052 347.378 118.825 346.826 118.42 346.418C118.015 346.011 117.466 345.782 116.894 345.782C117.343 343.119 118.605 340.662 120.503 338.751C122.402 336.841 124.844 335.572 127.491 335.119C127.491 335.695 127.718 336.247 128.123 336.655C128.528 337.062 129.077 337.291 129.649 337.291C130.221 337.291 130.77 337.062 131.175 336.655C131.58 336.247 131.807 335.695 131.807 335.119C134.454 335.572 136.896 336.841 138.794 338.751C140.693 340.662 141.954 343.119 142.404 345.782C141.832 345.782 141.283 346.011 140.878 346.418C140.473 346.826 140.246 347.378 140.246 347.954C140.246 348.53 140.473 349.083 140.878 349.49C141.283 349.897 141.832 350.126 142.404 350.126C141.954 352.79 140.693 355.247 138.794 357.157C136.896 359.067 134.454 360.337 131.807 360.789C131.807 360.213 131.58 359.661 131.175 359.254C130.77 358.846 130.221 358.618 129.649 358.618C129.077 358.618 128.528 358.846 128.123 359.254C127.718 359.661 127.491 360.213 127.491 360.789C124.836 360.359 122.386 359.089 120.498 357.163Z" fill="#FF4D79"/>
<path d="M135.042 347.955C136.83 347.955 138.279 346.496 138.279 344.697C138.279 342.898 136.83 341.439 135.042 341.439C133.254 341.439 131.805 342.898 131.805 344.697C131.805 346.496 133.254 347.955 135.042 347.955Z" fill="#FF4D79"/>
<path d="M123.17 347.955C124.362 347.955 125.328 346.983 125.328 345.783C125.328 344.584 124.362 343.611 123.17 343.611C121.978 343.611 121.012 344.584 121.012 345.783C121.012 346.983 121.978 347.955 123.17 347.955Z" fill="#FF4D79"/>
<path d="M129.647 354.471C130.839 354.471 131.805 353.498 131.805 352.299C131.805 351.099 130.839 350.127 129.647 350.127C128.455 350.127 127.488 351.099 127.488 352.299C127.488 353.498 128.455 354.471 129.647 354.471Z" fill="#FF4D79"/>
<path d="M177.188 174.92H171.562V59.2471C171.562 58.4988 171.266 57.7812 170.739 57.2521C170.211 56.723 169.496 56.4258 168.75 56.4258H146.25C145.504 56.4258 144.789 56.723 144.261 57.2521C143.734 57.7812 143.438 58.4988 143.438 59.2471V174.92H126.562V138.243C126.562 137.495 126.266 136.777 125.739 136.248C125.211 135.719 124.496 135.422 123.75 135.422H101.25C100.504 135.422 99.7887 135.719 99.2613 136.248C98.7338 136.777 98.4375 137.495 98.4375 138.243V174.92H81.5625V98.7451C81.5625 97.9969 81.2662 97.2793 80.7387 96.7502C80.2113 96.2211 79.4959 95.9238 78.75 95.9238H56.25C55.5041 95.9238 54.7887 96.2211 54.2613 96.7502C53.7338 97.2793 53.4375 97.9969 53.4375 98.7451V174.92H36.5625V115.673C36.5625 114.925 36.2662 114.207 35.7387 113.678C35.2113 113.149 34.4959 112.852 33.75 112.852H11.25C10.5041 112.852 9.78871 113.149 9.26126 113.678C8.73382 114.207 8.4375 114.925 8.4375 115.673V174.92H2.8125C2.06658 174.92 1.35121 175.217 0.823762 175.746C0.296316 176.275 0 176.993 0 177.741C0 178.489 0.296316 179.207 0.823762 179.736C1.35121 180.265 2.06658 180.562 2.8125 180.562H177.188C177.933 180.562 178.649 180.265 179.176 179.736C179.704 179.207 180 178.489 180 177.741C180 176.993 179.704 176.275 179.176 175.746C178.649 175.217 177.933 174.92 177.188 174.92ZM14.0625 174.92V118.494H30.9375V174.92H14.0625ZM59.0625 174.92V101.566H75.9375V174.92H59.0625ZM104.062 174.92V141.064H120.938V174.92H104.062ZM149.062 174.92V62.0684H165.938V174.92H149.062Z" fill="#FF4D79"/>
<path d="M56.25 39.498H62.0719C62.6116 45.0043 64.7646 50.2269 68.2594 54.5073L65.6156 57.1593C64.4207 56.834 63.1523 56.9133 62.0069 57.3848C60.8615 57.8563 59.9031 58.6937 59.2805 59.7672C58.6578 60.8406 58.4056 62.0902 58.563 63.3221C58.7203 64.554 59.2785 65.6994 60.1508 66.5807C61.0232 67.462 62.1611 68.03 63.388 68.1965C64.6149 68.3631 65.8623 68.1189 66.9368 67.5019C68.0113 66.8849 68.8529 65.9295 69.331 64.7839C69.8091 63.6383 69.8971 62.3664 69.5812 61.1655L72.225 58.5135C76.4719 62.0802 81.6801 64.2996 87.1875 64.8896V70.5322C87.1875 71.2805 87.4838 71.9981 88.0113 72.5272C88.5387 73.0563 89.2541 73.3535 90 73.3535C90.7459 73.3535 91.4613 73.0563 91.9887 72.5272C92.5162 71.9981 92.8125 71.2805 92.8125 70.5322V64.8896C98.3114 64.3536 103.528 62.1936 107.803 58.6828L110.447 61.3348C110.228 62.1667 110.202 63.0377 110.37 63.8813C110.539 64.7249 110.897 65.5187 111.418 66.2021C111.939 66.8854 112.609 67.4401 113.377 67.8239C114.144 68.2077 114.989 68.4103 115.847 68.4163C116.589 68.4168 117.324 68.2701 118.01 67.9844C118.695 67.6987 119.317 67.2798 119.841 66.7517C120.707 65.8719 121.261 64.7312 121.418 63.5048C121.574 62.2784 121.325 61.0343 120.709 59.9638C120.092 58.8933 119.142 58.0555 118.004 57.5794C116.867 57.1033 115.605 57.0152 114.413 57.3286L111.769 54.6766C115.294 50.3494 117.449 45.0634 117.956 39.498H123.75C124.496 39.498 125.211 39.2008 125.739 38.6717C126.266 38.1426 126.562 37.425 126.562 36.6768C126.562 35.9285 126.266 35.2109 125.739 34.6818C125.211 34.1527 124.496 33.8555 123.75 33.8555H117.956C117.422 28.3394 115.269 23.1062 111.769 18.818L114.413 16.166C114.881 16.2869 115.363 16.3532 115.847 16.3635C117.024 16.3701 118.173 16.0062 119.133 15.3231C120.093 14.64 120.815 13.6721 121.198 12.5556C121.58 11.4391 121.604 10.2304 121.266 9.09954C120.928 7.96871 120.245 6.97279 119.313 6.25201C118.38 5.53123 117.246 5.12191 116.07 5.08168C114.894 5.04146 113.735 5.37236 112.756 6.02779C111.777 6.68322 111.027 7.63016 110.613 8.73526C110.199 9.84036 110.141 11.0479 110.447 12.188L107.803 14.8118C103.519 11.3214 98.3055 9.17259 92.8125 8.63314V2.82129C92.8125 2.07304 92.5162 1.35543 91.9887 0.826336C91.4613 0.297242 90.7459 0 90 0C89.2541 0 88.5387 0.297242 88.0113 0.826336C87.4838 1.35543 87.1875 2.07304 87.1875 2.82129V8.63314C81.6915 9.18071 76.4778 11.3394 72.1969 14.84L69.5531 12.2162C69.8591 11.0762 69.8009 9.86857 69.3867 8.76347C68.9725 7.65837 68.2232 6.71144 67.2443 6.05601C66.2654 5.40058 65.1062 5.06967 63.9299 5.1099C62.7537 5.15012 61.6196 5.55944 60.6874 6.28022C59.7553 7.001 59.072 7.99693 58.7338 9.12775C58.3956 10.2586 58.4195 11.4673 58.8022 12.5838C59.1848 13.7003 59.907 14.6682 60.8669 15.3513C61.8268 16.0345 62.9762 16.3983 64.1531 16.3917C64.6372 16.3814 65.1185 16.3151 65.5875 16.1942L68.2313 18.8462C64.7365 23.1266 62.5835 28.3492 62.0437 33.8555H56.25C55.5041 33.8555 54.7887 34.1527 54.2613 34.6818C53.7338 35.2109 53.4375 35.9285 53.4375 36.6768C53.4375 37.425 53.7338 38.1426 54.2613 38.6717C54.7887 39.2008 55.5041 39.498 56.25 39.498ZM74.1094 24.6863C74.3698 24.9493 74.6793 25.1584 75.0202 25.3014C75.3611 25.4445 75.7268 25.5188 76.0963 25.5201C76.4659 25.5214 76.832 25.4497 77.174 25.3091C77.5159 25.1684 77.8268 24.9616 78.0891 24.7004C78.3513 24.4392 78.5597 24.1287 78.7023 23.7867C78.8449 23.4448 78.919 23.0779 78.9203 22.7072C78.9216 22.3365 78.8501 21.9692 78.7099 21.6262C78.5697 21.2832 78.3635 20.9713 78.1031 20.7083L76.2469 18.8462C80.1819 15.7828 85.019 14.1157 90 14.1064C94.9939 14.1176 99.8423 15.795 103.781 18.8744L101.925 20.7365C101.665 20.9995 101.458 21.3115 101.318 21.6544C101.178 21.9974 101.107 22.3648 101.108 22.7355C101.109 23.1062 101.183 23.473 101.326 23.815C101.468 24.1569 101.677 24.4674 101.939 24.7286C102.201 24.9898 102.512 25.1966 102.854 25.3373C103.196 25.4779 103.562 25.5497 103.932 25.5483C104.301 25.547 104.667 25.4727 105.008 25.3296C105.349 25.1866 105.658 24.9775 105.919 24.7145L107.775 22.8807C110.829 26.8279 112.491 31.6802 112.5 36.6768C112.476 41.6708 110.816 46.5185 107.775 50.4729L105.919 48.6108C105.657 48.3464 105.346 48.1365 105.003 47.9933C104.661 47.85 104.293 47.7763 103.922 47.7763C103.551 47.7763 103.183 47.85 102.84 47.9933C102.498 48.1365 102.186 48.3464 101.925 48.6108C101.401 49.1394 101.107 49.8545 101.107 50.5998C101.107 51.3452 101.401 52.0602 101.925 52.5888L103.781 54.4509C99.8543 57.5559 95.0002 59.2453 90 59.2471C85.0161 59.255 80.1736 57.5861 76.2469 54.5073L78.1031 52.6453C78.627 52.1166 78.921 51.4016 78.921 50.6562C78.921 49.9109 78.627 49.1958 78.1031 48.6672C77.8417 48.4028 77.5306 48.1929 77.1879 48.0497C76.8451 47.9064 76.4775 47.8327 76.1062 47.8327C75.735 47.8327 75.3674 47.9064 75.0246 48.0497C74.6819 48.1929 74.3708 48.4028 74.1094 48.6672L72.2531 50.5293C69.1906 46.5632 67.5197 41.6935 67.5 36.6768C67.5093 31.6802 69.1711 26.8279 72.225 22.8807L74.1094 24.6863Z" fill="#FF4D79"/>
<path d="M80.0469 40.3457C81.5387 40.3457 82.9695 39.7512 84.0244 38.693C85.0792 37.6348 85.6719 36.1996 85.6719 34.7031C85.6719 33.2066 85.0792 31.7714 84.0244 30.7132C82.9695 29.655 81.5387 29.0605 80.0469 29.0605C78.555 29.0605 77.1243 29.655 76.0694 30.7132C75.0145 31.7714 74.4219 33.2066 74.4219 34.7031C74.4219 36.1996 75.0145 37.6348 76.0694 38.693C77.1243 39.7512 78.555 40.3457 80.0469 40.3457Z" fill="#FF4D79"/>
<path d="M97.957 34.958C100.287 34.958 102.176 33.0633 102.176 30.7261C102.176 28.3888 100.287 26.4941 97.957 26.4941C95.6271 26.4941 93.7383 28.3888 93.7383 30.7261C93.7383 33.0633 95.6271 34.958 97.957 34.958Z" fill="#FF4D79"/>
<path d="M91.9969 50.7807C92.3879 50.3852 92.6535 49.8825 92.7601 49.3358C92.8668 48.7892 92.8097 48.2231 92.5962 47.7089C92.3826 47.1948 92.0222 46.7555 91.5601 46.4465C91.0981 46.1375 90.5553 45.9727 90 45.9727C89.4447 45.9727 88.9019 46.1375 88.4399 46.4465C87.9778 46.7555 87.6173 47.1948 87.4038 47.7089C87.1903 48.2231 87.1332 48.7892 87.2399 49.3358C87.3465 49.8825 87.6121 50.3852 88.0031 50.7807C88.2646 51.0451 88.5756 51.255 88.9184 51.3983C89.2611 51.5415 89.6287 51.6152 90 51.6152C90.3713 51.6152 90.7389 51.5415 91.0816 51.3983C91.4243 51.255 91.7354 51.0451 91.9969 50.7807Z" fill="#FF4D79"/>
</svg>
