<svg width="165" height="173" viewBox="0 0 165 173" fill="none" xmlns="http://www.w3.org/2000/svg">
<path d="M82.1289 78.3906C81.4493 78.3906 80.7975 78.6754 80.3169 79.1823C79.8364 79.6893 79.5664 80.3768 79.5664 81.0938V86.5C79.5664 87.2169 79.8364 87.9045 80.3169 88.4114C80.7975 88.9183 81.4493 89.2031 82.1289 89.2031C82.8085 89.2031 83.4603 88.9183 83.9409 88.4114C84.4214 87.9045 84.6914 87.2169 84.6914 86.5V81.0938C84.6914 80.3768 84.4214 79.6893 83.9409 79.1823C83.4603 78.6754 82.8085 78.3906 82.1289 78.3906Z" fill="#FF4D79"/>
<path d="M82.1289 62.1719C81.4493 62.1719 80.7975 62.4567 80.3169 62.9636C79.8364 63.4705 79.5664 64.1581 79.5664 64.875V70.2812C79.5664 70.9982 79.8364 71.6857 80.3169 72.1926C80.7975 72.6996 81.4493 72.9844 82.1289 72.9844C82.8085 72.9844 83.4603 72.6996 83.9409 72.1926C84.4214 71.6857 84.6914 70.9982 84.6914 70.2812V64.875C84.6914 64.1581 84.4214 63.4705 83.9409 62.9636C83.4603 62.4567 82.8085 62.1719 82.1289 62.1719Z" fill="#FF4D79"/>
<path d="M82.1289 94.6094C81.4493 94.6094 80.7975 94.8942 80.3169 95.4011C79.8364 95.908 79.5664 96.5956 79.5664 97.3125V102.719C79.5664 103.436 79.8364 104.123 80.3169 104.63C80.7975 105.137 81.4493 105.422 82.1289 105.422C82.8085 105.422 83.4603 105.137 83.9409 104.63C84.4214 104.123 84.6914 103.436 84.6914 102.719V97.3125C84.6914 96.5956 84.4214 95.908 83.9409 95.4011C83.4603 94.8942 82.8085 94.6094 82.1289 94.6094Z" fill="#FF4D79"/>
<path d="M82.1289 110.828C81.4493 110.828 80.7975 111.113 80.3169 111.62C79.8364 112.127 79.5664 112.814 79.5664 113.531V118.938C79.5664 119.654 79.8364 120.342 80.3169 120.849C80.7975 121.356 81.4493 121.641 82.1289 121.641C82.8085 121.641 83.4603 121.356 83.9409 120.849C84.4214 120.342 84.6914 119.654 84.6914 118.938V113.531C84.6914 112.814 84.4214 112.127 83.9409 111.62C83.4603 111.113 82.8085 110.828 82.1289 110.828Z" fill="#FF4D79"/>
<path d="M82.1289 127.047C81.4493 127.047 80.7975 127.332 80.3169 127.839C79.8364 128.346 79.5664 129.033 79.5664 129.75V135.156C79.5664 135.873 79.8364 136.561 80.3169 137.068C80.7975 137.575 81.4493 137.859 82.1289 137.859C82.8085 137.859 83.4603 137.575 83.9409 137.068C84.4214 136.561 84.6914 135.873 84.6914 135.156V129.75C84.6914 129.033 84.4214 128.346 83.9409 127.839C83.4603 127.332 82.8085 127.047 82.1289 127.047Z" fill="#FF4D79"/>
<path d="M82.1289 143.266C81.4493 143.266 80.7975 143.55 80.3169 144.057C79.8364 144.564 79.5664 145.252 79.5664 145.969V151.375C79.5664 152.092 79.8364 152.779 80.3169 153.286C80.7975 153.793 81.4493 154.078 82.1289 154.078C82.8085 154.078 83.4603 153.793 83.9409 153.286C84.4214 152.779 84.6914 152.092 84.6914 151.375V145.969C84.6914 145.252 84.4214 144.564 83.9409 144.057C83.4603 143.55 82.8085 143.266 82.1289 143.266Z" fill="#FF4D79"/>
<path d="M82.1289 159.484C81.4493 159.484 80.7975 159.769 80.3169 160.276C79.8364 160.783 79.5664 161.471 79.5664 162.188V167.594C79.5664 168.311 79.8364 168.998 80.3169 169.505C80.7975 170.012 81.4493 170.297 82.1289 170.297C82.8085 170.297 83.4603 170.012 83.9409 169.505C84.4214 168.998 84.6914 168.311 84.6914 167.594V162.188C84.6914 161.471 84.4214 160.783 83.9409 160.276C83.4603 159.769 82.8085 159.484 82.1289 159.484Z" fill="#FF4D79"/>
<path d="M25.9578 11.839C26.0798 12.1708 26.2627 12.474 26.496 12.7311L34.1835 20.8404C34.4217 21.0938 34.7051 21.2949 35.0174 21.4321C35.3296 21.5694 35.6646 21.64 36.0028 21.64C36.3411 21.64 36.6761 21.5694 36.9883 21.4321C37.3006 21.2949 37.584 21.0938 37.8222 20.8404C38.0624 20.5891 38.253 20.2902 38.3831 19.9608C38.5132 19.6314 38.5802 19.2781 38.5802 18.9212C38.5802 18.5644 38.5132 18.2111 38.3831 17.8817C38.253 17.5523 38.0624 17.2533 37.8222 17.002L34.491 13.515H129.765L126.433 17.002C126.193 17.2533 126.003 17.5523 125.873 17.8817C125.742 18.2111 125.675 18.5644 125.675 18.9212C125.675 19.2781 125.742 19.6314 125.873 19.9608C126.003 20.2902 126.193 20.5891 126.433 20.8404C126.672 21.0938 126.955 21.2949 127.267 21.4321C127.58 21.5694 127.915 21.64 128.253 21.64C128.591 21.64 128.926 21.5694 129.238 21.4321C129.551 21.2949 129.834 21.0938 130.072 20.8404L137.76 12.7311C137.993 12.474 138.176 12.1708 138.298 11.839C138.554 11.1809 138.554 10.4428 138.298 9.78465C138.176 9.45284 137.993 9.1497 137.76 8.89262L130.072 0.783248C129.59 0.274239 128.935 -0.0117186 128.253 -0.0117186C127.57 -0.0117186 126.916 0.274239 126.433 0.783248C125.951 1.29226 125.68 1.98262 125.68 2.70247C125.68 3.42231 125.951 4.11268 126.433 4.62169L129.765 8.10872H34.491L37.8222 4.62169C38.0611 4.36965 38.2507 4.07044 38.38 3.74114C38.5093 3.41184 38.5758 3.0589 38.5758 2.70247C38.5758 2.34603 38.5093 1.99309 38.38 1.66379C38.2507 1.33449 38.0611 1.03528 37.8222 0.783248C37.5833 0.531212 37.2997 0.331287 36.9875 0.194886C36.6753 0.0584857 36.3407 -0.0117188 36.0028 -0.0117187C35.665 -0.0117187 35.3304 0.0584857 35.0182 0.194886C34.706 0.331287 34.4224 0.531212 34.1835 0.783248L26.496 8.89262C26.2627 9.1497 26.0798 9.45284 25.9578 9.78465C25.7016 10.4428 25.7016 11.1809 25.9578 11.839Z" fill="#FF4D79"/>
<path d="M39.6939 67.5781C42.2599 64.6272 43.686 60.77 43.6914 56.7656V48.6562C43.6914 44.3548 42.0716 40.2295 39.1882 37.1879C36.3048 34.1463 32.3941 32.4375 28.3164 32.4375C24.2387 32.4375 20.328 34.1463 17.4447 37.1879C14.5613 40.2295 12.9414 44.3548 12.9414 48.6562V56.7656C12.9469 60.77 14.3729 64.6272 16.9389 67.5781C12.3797 67.881 8.1018 70.0075 4.978 73.5238C1.8542 77.04 0.119908 81.681 0.128941 86.5V118.938C0.128941 121.088 0.938872 123.151 2.38056 124.672C3.82224 126.192 5.77759 127.047 7.81644 127.047C8.69154 127.05 9.5599 126.885 10.3789 126.56V160.566C8.80614 161.589 7.50887 163.021 6.61146 164.725C5.71406 166.429 5.24662 168.348 5.25394 170.297C5.25394 171.014 5.52392 171.701 6.00448 172.208C6.48504 172.715 7.13682 173 7.81644 173H25.7539C26.4336 173 27.0853 172.715 27.5659 172.208C28.0465 171.701 28.3164 171.014 28.3164 170.297C28.3164 171.014 28.5864 171.701 29.067 172.208C29.5475 172.715 30.1993 173 30.8789 173H48.8164C49.4961 173 50.1478 172.715 50.6284 172.208C51.109 171.701 51.3789 171.014 51.3789 170.297C51.3962 168.346 50.933 166.423 50.0347 164.717C49.1363 163.012 47.8336 161.581 46.2539 160.566V126.56C47.073 126.885 47.9413 127.05 48.8164 127.047C50.8553 127.047 52.8106 126.192 54.2523 124.672C55.694 123.151 56.5039 121.088 56.5039 118.938V86.5C56.513 81.681 54.7787 77.04 51.6549 73.5238C48.5311 70.0075 44.2532 67.881 39.6939 67.5781ZM18.0664 48.6562C18.0664 45.7886 19.1463 43.0384 21.0686 41.0107C22.9908 38.9829 25.598 37.8438 28.3164 37.8438C31.0349 37.8438 33.642 38.9829 35.5643 41.0107C37.4865 43.0384 38.5664 45.7886 38.5664 48.6562V56.7656C38.5664 59.6333 37.4865 62.3835 35.5643 64.4112C33.642 66.439 31.0349 67.5781 28.3164 67.5781C25.598 67.5781 22.9908 66.439 21.0686 64.4112C19.1463 62.3835 18.0664 59.6333 18.0664 56.7656V48.6562ZM51.3789 118.938C51.3789 119.654 51.109 120.342 50.6284 120.849C50.1478 121.356 49.4961 121.641 48.8164 121.641C48.4816 121.636 48.1508 121.563 47.8427 121.424H47.6377C47.208 121.19 46.8501 120.832 46.6052 120.392C46.3603 119.952 46.2385 119.448 46.2539 118.938V83.7969C46.2539 83.08 45.984 82.3924 45.5034 81.8855C45.0228 81.3785 44.3711 81.0938 43.6914 81.0938C43.0118 81.0938 42.36 81.3785 41.8795 81.8855C41.3989 82.3924 41.1289 83.08 41.1289 83.7969V162.188C41.128 162.684 41.2566 163.171 41.5007 163.595C41.7447 164.02 42.0949 164.365 42.5127 164.593L43.1021 164.918C44.2116 165.502 45.111 166.45 45.6646 167.621H33.4414L30.8789 118.938C30.8789 118.221 30.609 117.533 30.1284 117.026C29.6478 116.519 28.9961 116.234 28.3164 116.234C27.6368 116.234 26.985 116.519 26.5045 117.026C26.0239 117.533 25.7539 118.221 25.7539 118.938L23.3196 167.594H10.9683C11.5249 166.426 12.4234 165.478 13.5308 164.891L14.0689 164.593C14.4963 164.372 14.8569 164.03 15.1104 163.605C15.3639 163.18 15.5001 162.69 15.5039 162.188V83.7969C15.5039 83.08 15.234 82.3924 14.7534 81.8855C14.2728 81.3785 13.6211 81.0938 12.9414 81.0938C12.2618 81.0938 11.61 81.3785 11.1295 81.8855C10.6489 82.3924 10.3789 83.08 10.3789 83.7969V118.938C10.3752 119.429 10.2444 119.911 10.0006 120.33C9.75677 120.749 9.40915 121.09 8.99519 121.316H8.79019C8.48952 121.492 8.15837 121.603 7.81644 121.641C7.13682 121.641 6.48504 121.356 6.00448 120.849C5.52392 120.342 5.25394 119.654 5.25394 118.938V86.5C5.25394 82.9154 6.60383 79.4777 9.00664 76.943C11.4094 74.4083 14.6684 72.9844 18.0664 72.9844H38.5664C41.9645 72.9844 45.2234 74.4083 47.6262 76.943C50.0291 79.4777 51.3789 82.9154 51.3789 86.5V118.938Z" fill="#FF4D79"/>
<path d="M147.319 67.5781C149.885 64.6272 151.311 60.77 151.316 56.7656V48.6562C151.316 44.3548 149.697 40.2295 146.813 37.1879C143.93 34.1463 140.019 32.4375 135.941 32.4375C131.864 32.4375 127.953 34.1463 125.07 37.1879C122.186 40.2295 120.566 44.3548 120.566 48.6562V56.7656C120.572 60.77 121.998 64.6272 124.564 67.5781C120.005 67.881 115.727 70.0075 112.603 73.5238C109.479 77.04 107.745 81.681 107.754 86.5V118.938C107.754 121.088 108.564 123.151 110.006 124.672C111.447 126.192 113.403 127.047 115.441 127.047C116.317 127.05 117.185 126.885 118.004 126.56V160.566C116.431 161.589 115.134 163.021 114.236 164.725C113.339 166.429 112.872 168.348 112.879 170.297C112.879 171.014 113.149 171.701 113.629 172.208C114.11 172.715 114.762 173 115.441 173H133.379C134.059 173 134.71 172.715 135.191 172.208C135.671 171.701 135.941 171.014 135.941 170.297C135.941 171.014 136.211 171.701 136.692 172.208C137.173 172.715 137.824 173 138.504 173H156.441C157.121 173 157.773 172.715 158.253 172.208C158.734 171.701 159.004 171.014 159.004 170.297C159.021 168.346 158.558 166.423 157.66 164.717C156.761 163.012 155.459 161.581 153.879 160.566V126.56C154.698 126.885 155.566 127.05 156.441 127.047C158.48 127.047 160.436 126.192 161.877 124.672C163.319 123.151 164.129 121.088 164.129 118.938V86.5C164.138 81.681 162.404 77.04 159.28 73.5238C156.156 70.0075 151.878 67.881 147.319 67.5781ZM125.691 48.6562C125.691 45.7886 126.771 43.0384 128.694 41.0107C130.616 38.9829 133.223 37.8438 135.941 37.8438C138.66 37.8438 141.267 38.9829 143.189 41.0107C145.112 43.0384 146.191 45.7886 146.191 48.6562V56.7656C146.191 59.6333 145.112 62.3835 143.189 64.4112C141.267 66.439 138.66 67.5781 135.941 67.5781C133.223 67.5781 130.616 66.439 128.694 64.4112C126.771 62.3835 125.691 59.6333 125.691 56.7656V48.6562ZM159.004 118.938C159.004 119.654 158.734 120.342 158.253 120.849C157.773 121.356 157.121 121.641 156.441 121.641C156.107 121.636 155.776 121.563 155.468 121.424H155.263C154.833 121.19 154.475 120.832 154.23 120.392C153.985 119.952 153.864 119.448 153.879 118.938V83.7969C153.879 83.08 153.609 82.3924 153.128 81.8855C152.648 81.3785 151.996 81.0938 151.316 81.0938C150.637 81.0938 149.985 81.3785 149.504 81.8855C149.024 82.3924 148.754 83.08 148.754 83.7969V162.188C148.753 162.684 148.882 163.171 149.126 163.595C149.37 164.02 149.72 164.365 150.138 164.593L150.727 164.918C151.837 165.502 152.736 166.45 153.29 167.621H141.066L138.504 118.938C138.504 118.221 138.234 117.533 137.753 117.026C137.273 116.519 136.621 116.234 135.941 116.234C135.262 116.234 134.61 116.519 134.129 117.026C133.649 117.533 133.379 118.221 133.379 118.938L130.816 167.594H118.593C119.15 166.426 120.048 165.478 121.156 164.891L121.694 164.593C122.121 164.372 122.482 164.03 122.735 163.605C122.989 163.18 123.125 162.69 123.129 162.188V83.7969C123.129 83.08 122.859 82.3924 122.378 81.8855C121.898 81.3785 121.246 81.0938 120.566 81.0938C119.887 81.0938 119.235 81.3785 118.754 81.8855C118.274 82.3924 118.004 83.08 118.004 83.7969V118.938C118 119.429 117.869 119.911 117.626 120.33C117.382 120.749 117.034 121.09 116.62 121.316H116.415C116.115 121.492 115.783 121.603 115.441 121.641C114.762 121.641 114.11 121.356 113.629 120.849C113.149 120.342 112.879 119.654 112.879 118.938V86.5C112.879 82.9154 114.229 79.4777 116.632 76.943C119.034 74.4083 122.293 72.9844 125.691 72.9844H146.191C149.59 72.9844 152.848 74.4083 155.251 76.943C157.654 79.4777 159.004 82.9154 159.004 86.5V118.938Z" fill="#FF4D79"/>
<path d="M66.7539 32.4375H64.1914C63.3172 32.4448 62.4506 32.6094 61.6289 32.9241V29.7344C61.6289 29.0175 61.8989 28.3299 62.3794 27.823C62.86 27.316 63.5118 27.0313 64.1914 27.0313H66.7539C67.2054 27.0294 67.6494 27.1534 68.0409 27.3907C68.4324 27.6281 68.7575 27.9703 68.9833 28.3828C69.1309 28.7275 69.3455 29.0356 69.6132 29.2873C69.8808 29.539 70.1955 29.7286 70.537 29.844C70.8785 29.9593 71.2391 29.9977 71.5956 29.9568C71.952 29.9159 72.2964 29.7965 72.6063 29.6064C72.9163 29.4163 73.185 29.1597 73.3951 28.8532C73.6051 28.5467 73.7519 28.1971 73.8258 27.827C73.8997 27.4569 73.8992 27.0745 73.8243 26.7046C73.7494 26.3348 73.6017 25.9856 73.3908 25.6797C72.7178 24.4501 71.7506 23.4285 70.5859 22.7169C69.4212 22.0053 68.0998 21.6288 66.7539 21.625H64.1914C62.1526 21.625 60.1972 22.4794 58.7555 24.0002C57.3138 25.521 56.5039 27.5836 56.5039 29.7344V40.5469C56.5039 42.6976 57.3138 44.7603 58.7555 46.2811C60.1972 47.8019 62.1526 48.6563 64.1914 48.6563H66.7539C68.7928 48.6563 70.7481 47.8019 72.1898 46.2811C73.6315 44.7603 74.4414 42.6976 74.4414 40.5469C74.4414 38.3961 73.6315 36.3335 72.1898 34.8127C70.7481 33.2919 68.7928 32.4375 66.7539 32.4375ZM66.7539 43.25H64.1914C63.5118 43.25 62.86 42.9652 62.3794 42.4583C61.8989 41.9513 61.6289 41.2638 61.6289 40.5469C61.6289 39.83 61.8989 39.1424 62.3794 38.6355C62.86 38.1285 63.5118 37.8438 64.1914 37.8438H66.7539C67.4335 37.8438 68.0853 38.1285 68.5659 38.6355C69.0464 39.1424 69.3164 39.83 69.3164 40.5469C69.3164 41.2638 69.0464 41.9513 68.5659 42.4583C68.0853 42.9652 67.4335 43.25 66.7539 43.25Z" fill="#FF4D79"/>
<path d="M92.3789 21.625H89.8164C87.7776 21.625 85.8222 22.4794 84.3805 24.0002C82.9388 25.521 82.1289 27.5836 82.1289 29.7344V32.4375C81.4493 32.4375 80.7975 32.7223 80.3169 33.2292C79.8364 33.7362 79.5664 34.4237 79.5664 35.1406C79.5664 35.8575 79.8364 36.5451 80.3169 37.052C80.7975 37.559 81.4493 37.8438 82.1289 37.8438V45.9531C82.1289 46.67 82.3989 47.3576 82.8794 47.8645C83.36 48.3715 84.0118 48.6563 84.6914 48.6563C85.371 48.6563 86.0228 48.3715 86.5034 47.8645C86.9839 47.3576 87.2539 46.67 87.2539 45.9531V37.8438H89.8164C90.496 37.8438 91.1478 37.559 91.6284 37.052C92.1089 36.5451 92.3789 35.8575 92.3789 35.1406C92.3789 34.4237 92.1089 33.7362 91.6284 33.2292C91.1478 32.7223 90.496 32.4375 89.8164 32.4375H87.2539V29.7344C87.2539 29.0175 87.5239 28.3299 88.0044 27.823C88.485 27.316 89.1368 27.0313 89.8164 27.0313H92.3789C93.0585 27.0313 93.7103 26.7465 94.1909 26.2395C94.6714 25.7326 94.9414 25.045 94.9414 24.3281C94.9414 23.6112 94.6714 22.9237 94.1909 22.4167C93.7103 21.9098 93.0585 21.625 92.3789 21.625Z" fill="#FF4D79"/>
<path d="M105.191 43.25C104.512 43.25 103.86 42.9652 103.379 42.4583C102.899 41.9513 102.629 41.2638 102.629 40.5469V37.8438H105.191C105.871 37.8438 106.523 37.559 107.003 37.052C107.484 36.5451 107.754 35.8575 107.754 35.1406C107.754 34.4237 107.484 33.7362 107.003 33.2292C106.523 32.7223 105.871 32.4375 105.191 32.4375H102.629V29.7344C102.629 29.0175 102.359 28.3299 101.878 27.823C101.398 27.316 100.746 27.0312 100.066 27.0312C99.3868 27.0312 98.735 27.316 98.2544 27.823C97.7739 28.3299 97.5039 29.0175 97.5039 29.7344V32.4375C96.8243 32.4375 96.1725 32.7223 95.6919 33.2292C95.2114 33.7362 94.9414 34.4237 94.9414 35.1406C94.9414 35.8575 95.2114 36.5451 95.6919 37.052C96.1725 37.559 96.8243 37.8438 97.5039 37.8438V40.5469C97.5039 42.6976 98.3138 44.7603 99.7555 46.2811C101.197 47.8019 103.153 48.6563 105.191 48.6563C105.871 48.6563 106.523 48.3715 107.003 47.8645C107.484 47.3576 107.754 46.67 107.754 45.9531C107.754 45.2362 107.484 44.5487 107.003 44.0417C106.523 43.5348 105.871 43.25 105.191 43.25Z" fill="#FF4D79"/>
</svg>
