<svg width="174" height="173" viewBox="0 0 174 173" fill="none" xmlns="http://www.w3.org/2000/svg">
<path d="M169.244 80.615C169.705 80.9357 170.254 81.1057 170.816 81.1015C171.249 81.0964 171.675 80.9948 172.064 80.8042C172.506 80.5758 172.876 80.2306 173.134 79.8063C173.393 79.3819 173.529 78.8949 173.528 78.3986V62.1812C173.53 61.7478 173.428 61.3202 173.23 60.9345C173.031 60.5488 172.743 60.2162 172.389 59.9648L88.3365 0.501073C87.8773 0.175146 87.3276 0 86.7639 0C86.2002 0 85.6505 0.175146 85.1913 0.501073L1.13881 59.9648C0.784657 60.2162 0.496325 60.5488 0.298133 60.9345C0.0999418 61.3202 -0.00229686 61.7478 3.91488e-05 62.1812V78.3986C-0.000996434 78.8949 0.135079 79.3819 0.393346 79.8063C0.651612 80.2306 1.0221 80.5758 1.46418 80.8042C1.89284 81.0133 2.36928 81.1059 2.84536 81.0727C3.32144 81.0395 3.78029 80.8816 4.17555 80.615L18.9796 70.2899V151.377H2.71141C1.99231 151.377 1.30266 151.662 0.794181 152.168C0.285701 152.675 3.91488e-05 153.363 3.91488e-05 154.08V170.297C3.91488e-05 171.014 0.285701 171.701 0.794181 172.208C1.30266 172.715 1.99231 173 2.71141 173H170.816C171.535 173 172.225 172.715 172.734 172.208C173.242 171.701 173.528 171.014 173.528 170.297V154.08C173.528 153.363 173.242 152.675 172.734 152.168C172.225 151.662 171.535 151.377 170.816 151.377H154.548V70.2899L169.244 80.615ZM5.42278 63.5867L86.7639 6.04201L168.105 63.5867V73.155L153.436 62.8029L88.3636 16.8536C87.9044 16.5277 87.3547 16.3525 86.791 16.3525C86.2273 16.3525 85.6776 16.5277 85.2184 16.8536L20.1455 62.8029L5.42278 73.155V63.5867ZM168.105 167.594H5.42278V156.783H168.105V167.594ZM75.9184 86.5073V78.3986C75.9184 75.5312 77.0611 72.7812 79.095 70.7536C81.1289 68.7261 83.8875 67.587 86.7639 67.587C89.6403 67.587 92.3989 68.7261 94.4328 70.7536C96.4667 72.7812 97.6094 75.5312 97.6094 78.3986V86.5073C97.6094 89.3747 96.4667 92.1247 94.4328 94.1522C92.3989 96.1798 89.6403 97.3189 86.7639 97.3189C83.8875 97.3189 81.1289 96.1798 79.095 94.1522C77.0611 92.1247 75.9184 89.3747 75.9184 86.5073V86.5073ZM75.9184 102.725H97.6094C99.3897 102.725 101.153 103.074 102.797 103.753C104.442 104.433 105.937 105.428 107.196 106.683C108.454 107.938 109.453 109.428 110.134 111.067C110.816 112.707 111.166 114.464 111.166 116.239V143.268C111.162 144.941 110.638 146.572 109.667 147.936C108.696 149.301 107.326 150.333 105.743 150.89V113.536C105.743 112.819 105.458 112.132 104.949 111.625C104.441 111.118 103.751 110.833 103.032 110.833C102.313 110.833 101.623 111.118 101.115 111.625C100.606 112.132 100.321 112.819 100.321 113.536V151.377H73.207V113.536C73.207 112.819 72.9214 112.132 72.4129 111.625C71.9044 111.118 71.2148 110.833 70.4957 110.833C69.7766 110.833 69.0869 111.118 68.5784 111.625C68.07 112.132 67.7843 112.819 67.7843 113.536V150.89C66.2021 150.333 64.8316 149.301 63.8608 147.936C62.89 146.572 62.3663 144.941 62.3616 143.268V116.239C62.3616 112.655 63.7899 109.217 66.3323 106.683C68.8747 104.148 72.3229 102.725 75.9184 102.725ZM149.125 151.377H113.878C115.652 149.045 116.605 146.195 116.589 143.268V116.239C116.599 111.421 114.763 106.78 111.458 103.264C108.153 99.748 103.626 97.6217 98.8024 97.3189C101.517 94.3682 103.026 90.5113 103.032 86.5073V78.3986C103.032 74.0975 101.318 69.9725 98.2673 66.9312C95.2164 63.8898 91.0785 62.1812 86.7639 62.1812C82.4493 62.1812 78.3114 63.8898 75.2605 66.9312C72.2096 69.9725 70.4957 74.0975 70.4957 78.3986V86.5073C70.5014 90.5113 72.0103 94.3682 74.7254 97.3189C69.9013 97.6217 65.3749 99.748 62.0696 103.264C58.7643 106.78 56.9293 111.421 56.9388 116.239V143.268C56.9229 146.195 57.8759 149.045 59.6502 151.377H24.4024V66.3707L86.7639 22.2594L149.125 66.3707V151.377Z" fill="#FF4D79"/>
</svg>
