<svg width="199" height="173" viewBox="0 0 199 173" fill="none" xmlns="http://www.w3.org/2000/svg">
<path d="M195.891 159.483H179.504C178.817 159.485 178.15 159.685 177.607 160.051C170.24 164.923 161.243 167.571 151.986 167.593H89.0521C87.8387 167.639 86.6482 167.295 85.7077 166.627C84.7672 165.959 84.1425 165.013 83.9527 163.97C83.8772 163.4 83.9437 162.823 84.1476 162.277C84.3515 161.732 84.6879 161.23 85.1342 160.808C85.5764 160.388 86.1147 160.054 86.7144 159.825C87.3142 159.597 87.9621 159.481 88.6168 159.483C88.8749 159.511 89.136 159.511 89.3941 159.483C89.6522 159.511 89.9134 159.511 90.1715 159.483H121.265C122.09 159.483 122.881 159.198 123.464 158.692C124.047 158.185 124.375 157.497 124.375 156.78C124.375 156.063 124.047 155.376 123.464 154.869C122.881 154.362 122.09 154.077 121.265 154.077H90.1715C89.9134 154.049 89.6522 154.049 89.3941 154.077C89.136 154.049 88.8749 154.049 88.6168 154.077H79.7239C78.5105 154.123 77.3201 153.779 76.3796 153.111C75.4391 152.443 74.8143 151.498 74.6245 150.455C74.5491 149.885 74.6156 149.307 74.8194 148.762C75.0233 148.216 75.3598 147.715 75.8061 147.292C76.2483 146.873 76.7865 146.538 77.3863 146.31C77.986 146.082 78.634 145.965 79.2886 145.968H118.156C118.981 145.968 119.771 145.683 120.355 145.176C120.938 144.669 121.265 143.981 121.265 143.265C121.265 142.548 120.938 141.86 120.355 141.353C119.771 140.846 118.981 140.561 118.156 140.561H70.3958C69.1824 140.608 67.9919 140.264 67.0514 139.596C66.1109 138.928 65.4862 137.982 65.2964 136.939C65.2209 136.369 65.2874 135.792 65.4913 135.246C65.6951 134.701 66.0316 134.199 66.4779 133.777C66.9201 133.357 67.4584 133.022 68.0581 132.794C68.6578 132.566 69.3058 132.45 69.9604 132.452H115.047C115.871 132.452 116.662 132.167 117.245 131.66C117.828 131.154 118.156 130.466 118.156 129.749C118.156 129.032 117.828 128.345 117.245 127.838C116.662 127.331 115.871 127.046 115.047 127.046H79.2886C78.6392 127.045 77.9972 126.926 77.4031 126.698C76.8091 126.47 76.2758 126.138 75.8372 125.721C75.3854 125.301 75.0431 124.801 74.8339 124.255C74.6246 123.709 74.5532 123.131 74.6245 122.559C74.8143 121.516 75.4391 120.57 76.3796 119.902C77.3201 119.234 78.5105 118.89 79.7239 118.937H143.839C144.453 118.934 145.053 118.773 145.562 118.475C146.071 118.177 146.467 117.754 146.7 117.261C146.95 116.776 147.03 116.238 146.931 115.714C146.831 115.19 146.556 114.703 146.14 114.314L130.842 101.096C129.095 99.5756 128.114 97.5145 128.114 95.3656C128.114 93.2166 129.095 91.1555 130.842 89.635C131.132 89.3775 131.478 89.1729 131.859 89.0333C132.241 88.8936 132.651 88.8217 133.065 88.8217C133.48 88.8217 133.89 88.8936 134.271 89.0333C134.653 89.1729 134.999 89.3775 135.289 89.635L156.432 107.34C156.759 107.619 157.152 107.831 157.583 107.962L160.444 108.8C164.595 110.024 168.312 112.16 171.232 115.002C174.153 117.844 176.178 121.295 177.11 125.019C177.268 125.628 177.664 126.172 178.231 126.556C178.798 126.941 179.501 127.142 180.219 127.127H195.891C196.715 127.127 197.506 126.842 198.089 126.335C198.672 125.828 199 125.141 199 124.424C199 123.707 198.672 123.019 198.089 122.513C197.506 122.006 196.715 121.721 195.891 121.721H182.52C181.046 117.56 178.456 113.763 174.964 110.643C171.472 107.522 167.177 105.168 162.434 103.772L160.226 103.123L139.642 85.8777C137.864 84.3958 135.497 83.5684 133.034 83.5684C130.572 83.5684 128.204 84.3958 126.427 85.8777C123.512 88.4122 121.875 91.8493 121.875 95.4331C121.875 99.017 123.512 102.454 126.427 104.989L136.346 113.53H79.7239C76.9676 113.49 74.2907 114.333 72.2034 115.898C70.116 117.464 68.7643 119.642 68.4058 122.018C68.216 123.747 68.582 125.487 69.4629 127.046C67.9753 127.094 66.515 127.408 65.1728 127.968C63.8306 128.528 62.6353 129.322 61.6612 130.3C60.6871 131.279 59.9551 132.421 59.5106 133.657C59.0661 134.892 58.9187 136.193 59.0776 137.48C59.4103 139.721 60.6276 141.793 62.5216 143.341C64.4157 144.889 66.8691 145.817 69.4629 145.968C68.5882 147.528 68.2225 149.267 68.4058 150.995C68.7384 153.237 69.9557 155.308 71.8498 156.856C73.7438 158.404 76.1972 159.333 78.7911 159.483C77.9163 161.044 77.5506 162.783 77.7339 164.511C78.0924 166.887 79.4442 169.065 81.5315 170.631C83.6189 172.196 86.2958 173.039 89.0521 172.999H151.986C162.246 172.976 172.235 170.138 180.53 164.889H195.891C196.715 164.889 197.506 164.605 198.089 164.098C198.672 163.591 199 162.903 199 162.186C199 161.469 198.672 160.782 198.089 160.275C197.506 159.768 196.715 159.483 195.891 159.483Z" fill="#FF4D79"/>
<path d="M75.3715 56.7652C77.714 56.9286 79.8992 57.8546 81.4902 59.3581C83.0813 60.8615 83.961 62.8316 83.9534 64.8745V67.5776C83.9534 68.2945 84.281 68.9821 84.8642 69.489C85.4473 69.996 86.2382 70.2807 87.0628 70.2807H108.829C109.653 70.2807 110.444 69.996 111.027 69.489C111.61 68.9821 111.938 68.2945 111.938 67.5776V62.8742C111.939 54.3207 108.138 46.0975 101.33 39.9221C94.5222 33.7467 85.233 30.0967 75.4026 29.7342C73.4553 27.6468 71.084 25.8877 68.4065 24.5442V13.5155C68.4065 12.7986 68.0789 12.1111 67.4958 11.6041C66.9127 11.0972 66.1218 10.8124 65.2971 10.8124H59.0784V5.40621H77.7347C78.5593 5.40621 79.3502 5.12142 79.9333 4.61449C80.5165 4.10756 80.8441 3.42001 80.8441 2.70311C80.8441 1.9862 80.5165 1.29865 79.9333 0.791721C79.3502 0.284791 78.5593 0 77.7347 0L34.2033 0C33.3786 0 32.5877 0.284791 32.0046 0.791721C31.4215 1.29865 31.0939 1.9862 31.0939 2.70311C31.0939 3.42001 31.4215 4.10756 32.0046 4.61449C32.5877 5.12142 33.3786 5.40621 34.2033 5.40621H52.8596V10.8124H46.6408C45.8161 10.8124 45.0253 11.0972 44.4421 11.6041C43.859 12.1111 43.5314 12.7986 43.5314 13.5155V24.5442C42.1101 25.2523 40.7764 26.0856 39.5514 27.0311H24.8751C24.8751 26.3141 24.5475 25.6266 23.9644 25.1197C23.3813 24.6127 22.5904 24.328 21.7657 24.328H3.10939C2.28473 24.328 1.49384 24.6127 0.910718 25.1197C0.327595 25.6266 0 26.3141 0 27.0311L0 59.4683C0 60.1852 0.327595 60.8728 0.910718 61.3797C1.49384 61.8866 2.28473 62.1714 3.10939 62.1714H21.7657C22.5904 62.1714 23.3813 61.8866 23.9644 61.3797C24.5475 60.8728 24.8751 60.1852 24.8751 59.4683H39.5514C44.071 62.967 49.9172 64.8921 55.969 64.8745C59.6952 64.8725 63.3734 64.1427 66.7317 62.7391C70.09 61.3355 73.0426 59.294 75.3715 56.7652ZM49.7502 16.2186H62.1877V22.3277C60.155 21.8763 58.0669 21.6404 55.969 21.6248C53.87 21.6269 51.78 21.8631 49.7502 22.3277V16.2186ZM6.21877 56.7652V29.7342H18.6563V56.7652H6.21877ZM71.2672 52.5213C69.7175 54.4511 67.7034 56.0646 65.3645 57.2497C63.0257 58.4349 60.4181 59.1633 57.7229 59.3845C55.0278 59.6057 52.3095 59.3143 49.7568 58.5306C47.2042 57.7469 44.8783 56.4896 42.9406 54.846C42.3615 54.3466 41.5798 54.0651 40.7641 54.0621H24.8751V32.4373H40.7641C41.5798 32.4343 42.3615 32.1528 42.9406 31.6534C44.8783 30.0098 47.2042 28.7525 49.7568 27.9688C52.3095 27.1851 55.0278 26.8937 57.7229 27.1149C60.4181 27.3361 63.0257 28.0645 65.3645 29.2497C67.7034 30.4348 69.7175 32.0483 71.2672 33.978C71.5529 34.3361 71.934 34.6288 72.3779 34.8312C72.8219 35.0336 73.3156 35.1397 73.8168 35.1404C82.2753 35.1475 90.385 38.0718 96.3661 43.2713C102.347 48.4709 105.711 55.521 105.719 62.8742V64.8745H90.1722C90.1722 61.29 88.5342 57.8523 85.6186 55.3176C82.703 52.783 78.7486 51.359 74.6253 51.359H73.8168C73.3156 51.3597 72.8219 51.4658 72.3779 51.6682C71.934 51.8706 71.5529 52.1633 71.2672 52.5213Z" fill="#FF4D79"/>
<path d="M94.0249 73.9307C92.7811 75.2011 81.8672 86.5001 81.8672 95.5555C81.8672 98.9035 83.3971 102.114 86.1202 104.482C88.8434 106.849 92.5369 108.179 96.388 108.179C100.239 108.179 103.933 106.849 106.656 104.482C109.379 102.114 110.909 98.9035 110.909 95.5555C110.909 86.5542 99.9949 75.2552 98.7512 73.9307C98.4592 73.6339 98.0969 73.3957 97.6889 73.2323C97.281 73.069 96.8372 72.9844 96.388 72.9844C95.9389 72.9844 95.4951 73.069 95.0871 73.2323C94.6792 73.3957 94.3168 73.6339 94.0249 73.9307ZM96.388 102.719C94.1887 102.712 92.0818 101.949 90.5266 100.597C88.9715 99.245 88.0942 97.4134 88.086 95.5015C88.086 90.8251 92.9055 84.1214 96.388 80.0397C99.8705 84.1214 104.69 90.8521 104.69 95.5015C104.682 97.4134 103.805 99.245 102.249 100.597C100.694 101.949 98.5873 102.712 96.388 102.719Z" fill="#FF4D79"/>
</svg>
