<svg width="146" height="173" viewBox="0 0 146 173" fill="none" xmlns="http://www.w3.org/2000/svg">
<path d="M83.5492 108.125H61.9916C61.2769 108.125 60.5915 108.41 60.0861 108.917C59.5808 109.424 59.2969 110.111 59.2969 110.828C59.2969 111.545 59.5808 112.233 60.0861 112.74C60.5915 113.246 61.2769 113.531 61.9916 113.531H83.5492C84.2639 113.531 84.9493 113.246 85.4546 112.74C85.96 112.233 86.2439 111.545 86.2439 110.828C86.2439 110.111 85.96 109.424 85.4546 108.917C84.9493 108.41 84.2639 108.125 83.5492 108.125Z" fill="#FF4D79"/>
<path d="M83.5492 118.938H61.9916C61.2769 118.938 60.5915 119.222 60.0861 119.729C59.5808 120.236 59.2969 120.924 59.2969 121.641C59.2969 122.358 59.5808 123.045 60.0861 123.552C60.5915 124.059 61.2769 124.344 61.9916 124.344H83.5492C84.2639 124.344 84.9493 124.059 85.4546 123.552C85.96 123.045 86.2439 122.358 86.2439 121.641C86.2439 120.924 85.96 120.236 85.4546 119.729C84.9493 119.222 84.2639 118.938 83.5492 118.938Z" fill="#FF4D79"/>
<path d="M52.5577 83.7969C54.79 83.7969 56.5997 81.3764 56.5997 78.3906C56.5997 75.4048 54.79 72.9844 52.5577 72.9844C50.3253 72.9844 48.5156 75.4048 48.5156 78.3906C48.5156 81.3764 50.3253 83.7969 52.5577 83.7969Z" fill="#FF4D79"/>
<path d="M92.9796 83.7969C95.2119 83.7969 97.0216 81.3764 97.0216 78.3906C97.0216 75.4048 95.2119 72.9844 92.9796 72.9844C90.7472 72.9844 88.9375 75.4048 88.9375 78.3906C88.9375 81.3764 90.7472 83.7969 92.9796 83.7969Z" fill="#FF4D79"/>
<path d="M145.363 169.351C142.773 162.498 138.172 156.595 132.168 152.42C126.164 148.245 119.038 145.996 111.733 145.969H91.6304V133.724C98.8121 130.463 105.033 125.398 109.693 119.02C114.352 112.641 117.292 105.164 118.227 97.3124H121.272C124.1 97.3124 126.856 96.4199 129.15 94.7613C131.444 93.1026 133.16 90.762 134.054 88.0708C134.949 85.3797 134.976 82.4746 134.133 79.7669C133.29 77.0592 131.619 74.6863 129.356 72.9843V43.25C129.381 39.5529 128.452 35.9122 126.662 32.6808C128.482 28.3257 129.399 23.6442 129.356 18.9219C129.356 13.9035 127.369 9.09062 123.831 5.54209C120.294 1.99355 115.496 0 110.493 0H61.9887C57.614 0.00722603 53.2945 0.979571 49.3362 2.84812C45.3779 4.71668 41.8777 7.4357 39.0838 10.8125C32.888 11.1583 27.0601 13.8733 22.7993 18.3988C18.5386 22.9242 16.1692 28.9159 16.1788 35.1406V72.9843C13.9165 74.6863 12.2454 77.0592 11.4022 79.7669C10.5591 82.4746 10.5865 85.3797 11.4808 88.0708C12.375 90.762 14.0907 93.1026 16.3848 94.7613C18.6789 96.4199 21.435 97.3124 24.2629 97.3124H27.3079C28.2434 105.164 31.183 112.641 35.8423 119.02C40.5016 125.398 46.7229 130.463 53.9046 133.724V145.969H33.8021C26.4966 145.996 19.3712 148.245 13.3669 152.42C7.36261 156.595 2.76185 162.498 0.172252 169.351C0.047275 169.684 -0.0107124 170.039 0.00162573 170.396C0.0139638 170.752 0.0963837 171.102 0.244144 171.426C0.391905 171.75 0.60209 172.042 0.862605 172.284C1.12312 172.526 1.42882 172.714 1.76213 172.838C2.06435 172.948 2.38376 173.003 2.70527 173C3.25586 173.002 3.79379 172.834 4.24665 172.52C4.69952 172.206 5.04559 171.76 5.23829 171.243C7.43282 165.419 11.339 160.4 16.4398 156.852C21.5405 153.305 27.5952 151.394 33.8021 151.375H43.3144C44.9582 163.512 57.5425 173 72.7675 173C87.9926 173 100.577 163.512 102.221 151.375H111.733C117.94 151.394 123.995 153.305 129.095 156.852C134.196 160.4 138.102 165.419 140.297 171.243C140.489 171.76 140.836 172.206 141.288 172.52C141.741 172.834 142.279 173.002 142.83 173C143.151 173.003 143.471 172.948 143.773 172.838C144.106 172.714 144.412 172.526 144.672 172.284C144.933 172.042 145.143 171.75 145.291 171.426C145.439 171.102 145.521 170.752 145.533 170.396C145.546 170.039 145.488 169.684 145.363 169.351ZM72.7675 132.453C71.7705 132.453 70.8004 132.453 69.8034 132.291C58.297 131.264 45.8205 124.506 45.8205 116.234C45.8205 104.989 49.0811 94.6093 72.7675 94.6093C96.454 94.6093 99.7146 104.989 99.7146 116.234C99.7146 124.506 87.2381 131.264 75.7317 132.291C74.7347 132.453 73.7646 132.453 72.7675 132.453ZM32.347 71.5787C35.662 69.3568 38.3798 66.3494 40.2599 62.8227C42.14 59.296 43.1243 55.3587 43.1258 51.3593V48.467C47.1918 52.0774 52.4357 54.068 57.8658 54.0625H94.3251C97.9865 54.0593 101.624 53.4754 105.104 52.3325V54.0625C105.106 57.3019 105.833 60.4994 107.233 63.4189C108.632 66.3385 110.667 68.9053 113.188 70.93V72.5248C110.143 81.5803 103.164 95.5284 97.0199 95.5284C91.6304 91.2845 83.5463 89.2031 72.7675 89.2031C61.9887 89.2031 53.9046 91.2845 48.6769 95.5284C42.2905 95.5284 35.3651 81.5803 32.5087 72.5518L32.347 71.5787ZM105.104 116.234C105.371 110.533 103.926 104.883 100.954 100.016C105.993 97.799 110.17 91.9062 113.188 86.1485V91.9062C113.204 100.682 110.365 109.223 105.104 116.234ZM121.272 91.9062H118.577V75.6875H121.272C123.416 75.6875 125.472 76.5418 126.988 78.0626C128.505 79.5834 129.356 81.6461 129.356 83.7968C129.356 85.9476 128.505 88.0102 126.988 89.531C125.472 91.0518 123.416 91.9062 121.272 91.9062ZM123.967 43.25V70.065C120.198 69.4258 116.776 67.4677 114.309 64.5382C111.843 61.6086 110.491 57.8971 110.493 54.0625V50.0618C115.638 47.3724 120.036 43.4434 123.293 38.6276C123.749 40.1256 123.976 41.6839 123.967 43.25ZM21.5682 35.1406C21.5682 30.1222 23.5555 25.3094 27.093 21.7608C30.6305 18.2123 35.4283 16.2187 40.4311 16.2187C40.8494 16.2187 41.262 16.121 41.6362 15.9334C42.0104 15.7457 42.3359 15.4732 42.5869 15.1375C44.8531 12.1238 47.7839 9.67704 51.1498 7.98881C54.5158 6.30058 58.2255 5.41667 61.9887 5.40625H110.493C114.067 5.40625 117.494 6.83021 120.021 9.36488C122.547 11.8995 123.967 15.3373 123.967 18.9219C123.967 22.8266 123.2 26.6932 121.711 30.3007C120.221 33.9082 118.038 37.1861 115.285 39.9472C109.726 45.5235 102.187 48.6562 94.3251 48.6562H57.8658C54.7415 48.6648 51.6772 47.7958 49.0198 46.1477C46.3624 44.4995 44.218 42.138 42.8294 39.3304C42.5543 38.7917 42.1069 38.3612 41.5589 38.1079C41.0108 37.8545 40.3939 37.7931 39.8069 37.9333C39.2199 38.0735 38.6968 38.4072 38.3214 38.8811C37.946 39.355 37.74 39.9416 37.7364 40.5468V51.3593C37.7376 55.9102 36.1036 60.3091 33.1341 63.7496C30.1646 67.1902 26.0584 69.4419 21.5682 70.092V35.1406ZM24.2629 91.9062C22.1189 91.9062 20.0626 91.0518 18.5466 89.531C17.0305 88.0102 16.1788 85.9476 16.1788 83.7968C16.1788 81.6461 17.0305 79.5834 18.5466 78.0626C20.0626 76.5418 22.1189 75.6875 24.2629 75.6875H26.9576V91.9062H24.2629ZM32.347 91.9062V86.3107C35.3381 91.9062 39.488 97.8531 44.554 100.016C41.5996 104.889 40.1639 110.537 40.4311 116.234C35.1696 109.223 32.3314 100.682 32.347 91.9062ZM69.2105 137.67C70.3962 137.67 71.5819 137.859 72.7675 137.859C73.9532 137.859 75.1389 137.859 76.3245 137.67C79.6868 137.421 83.012 136.804 86.241 135.832V148.672C86.241 153.078 80.0702 156.781 72.7675 156.781C65.4649 156.781 59.294 153.078 59.294 148.672V135.832C62.5231 136.804 65.8483 137.421 69.2105 137.67ZM72.7675 167.594C60.5875 167.594 50.4823 160.538 48.7847 151.375H54.1741C55.8718 157.619 63.39 162.187 72.6597 162.187C81.9295 162.187 89.4477 157.619 91.1454 151.375H96.5348C95.0527 160.538 84.9476 167.594 72.7675 167.594Z" fill="#FF4D79"/>
<path d="M47.2752 69.955C47.9639 69.2603 48.7826 68.709 49.6844 68.3328C50.5862 67.9566 51.5532 67.763 52.5299 67.763C53.5065 67.763 54.4736 67.9566 55.3754 68.3328C56.2771 68.709 57.0959 69.2603 57.7846 69.955C58.2865 70.4544 58.9639 70.7359 59.6709 70.7389C60.0255 70.741 60.3771 70.6728 60.7054 70.5383C61.0337 70.4037 61.3323 70.2055 61.5841 69.955C61.8367 69.7037 62.0371 69.4047 62.1739 69.0753C62.3107 68.7459 62.3812 68.3926 62.3812 68.0358C62.3812 67.6789 62.3107 67.3256 62.1739 66.9962C62.0371 66.6668 61.8367 66.3678 61.5841 66.1166C59.1753 63.7115 55.915 62.3613 52.5164 62.3613C49.1178 62.3613 45.8575 63.7115 43.4487 66.1166C42.9413 66.6256 42.6562 67.3159 42.6562 68.0358C42.6562 68.7556 42.9413 69.446 43.4487 69.955C43.9562 70.464 44.6444 70.75 45.362 70.75C46.0796 70.75 46.7678 70.464 47.2752 69.955Z" fill="#FF4D79"/>
<path d="M87.7529 69.955C88.4415 69.2603 89.2603 68.709 90.1621 68.3328C91.0639 67.9566 92.0309 67.763 93.0075 67.763C93.9842 67.763 94.9512 67.9566 95.853 68.3328C96.7548 68.709 97.5735 69.2603 98.2622 69.955C98.514 70.2055 98.8126 70.4037 99.1409 70.5383C99.4692 70.6728 99.8208 70.741 100.175 70.7389C100.53 70.741 100.882 70.6728 101.21 70.5383C101.538 70.4037 101.837 70.2055 102.089 69.955C102.341 69.7037 102.542 69.4047 102.679 69.0753C102.815 68.7459 102.886 68.3926 102.886 68.0358C102.886 67.6789 102.815 67.3256 102.679 66.9962C102.542 66.6668 102.341 66.3678 102.089 66.1166C99.6799 63.7115 96.4196 62.3613 93.021 62.3613C89.6224 62.3613 86.3621 63.7115 83.9533 66.1166C83.7008 66.3678 83.5003 66.6668 83.3635 66.9962C83.2267 67.3256 83.1562 67.6789 83.1562 68.0358C83.1562 68.3926 83.2267 68.7459 83.3635 69.0753C83.5003 69.4047 83.7008 69.7037 83.9533 69.955C84.4582 70.4585 85.1412 70.741 85.8531 70.741C86.565 70.741 87.248 70.4585 87.7529 69.955Z" fill="#FF4D79"/>
</svg>
